SplineFontDB: 3.0
FontName: Paribartan0
FullName: Paribartan 0
FamilyName: Paribartan
Weight: Regular
Copyright: Copyright 2024 The Paribartan Project Authors (github.com/mitradranirban/paribartan)
Version: 0.001
ItalicAngle: 0
UnderlinePosition: 0
UnderlineWidth: 0
Ascent: 800
Descent: 200
InvalidEm: 1
UFOAscent: 800
UFODescent: -250
LayerCount: 2
Layer: 0 0 "Back" 1
Layer: 1 0 "Fore" 0
StyleMap: 0x0000
FSType: 0
OS2Version: 0
OS2_WeightWidthSlopeOnly: 0
OS2_UseTypoMetrics: 0
CreationTime: 1733728903
ModificationTime: 1739253283
PfmFamily: 17
TTFWeight: 400
TTFWidth: 5
LineGap: 0
VLineGap: 0
OS2TypoAscent: 1200
OS2TypoAOffset: 0
OS2TypoDescent: -400
OS2TypoDOffset: 0
OS2TypoLinegap: 0
OS2WinAscent: 1160
OS2WinAOffset: 0
OS2WinDescent: 348
OS2WinDOffset: 0
HheadAscent: 1200
HheadAOffset: 0
HheadDescent: -400
HheadDOffset: 0
OS2CapHeight: 750
OS2XHeight: 500
OS2Vendor: 'anir'
Lookup: 1 0 0 "'smcp' Lowercase to Small Capitals in Latin lookup 0" { "'smcp' Lowercase to Small Capitals in Latin lookup 0 subtable"  } ['smcp' ('latn' <'dflt' > ) ]
Lookup: 1 0 0 "'c2sc' Capitals to Small Capitals in Latin lookup 0" { "'c2sc' Capitals to Small Capitals in Latin lookup 0 subtable"  } ['c2sc' ('latn' <'dflt' > ) ]
MarkAttachClasses: 1
DEI: 91125
LangName: 1033 "" "" "" "" "" "" "" "" "Dr Anirban Mitra" "Dr Anirban Mitra" "Variable Color Bengali Font" "https://fonts.atipra.in" "https://github.com/mitradranirban" "This Font Software is licensed under the SIL Open Font License, Version 1.1. This license is available with a FAQ at: https://openfontlicense.org+ACIA" " https://openfontlicense.org"
PickledDataWithLists: "(dp0
Vxyz.fontra.lineMetricsHorizontalLayout.zones
p1
(dp2
Vascender
p3
I16
sVbaseline
p4
I-16
sVcapHeight
p5
I16
sVdescender
p6
I-16
sVxHeight
p7
I16
ss."
Encoding: Custom
UnicodeInterp: none
NameList: AGL For New Fonts
DisplaySize: -128
AntiAlias: 1
FitToEm: 1
WidthSeparation: 150
WinInfo: 360 10 4
BeginPrivate: 0
EndPrivate
Grid
-1000 668 m 0
 2000 668 l 1024

StartChar: exclam
Encoding: 2 33 0
Width: 252
VWidth: 0
Flags: W
HStem: -2 142<50 202>
VStem: 50 152<-2 140 258 772>
LayerCount: 2
Fore
SplineSet
50 258 m 257
 50 772 l 257
 202 772 l 257
 202 258 l 257
 50 258 l 257
50 -2 m 257
 50 140 l 257
 202 140 l 257
 202 -2 l 257
 50 -2 l 257
EndSplineSet
EndChar

StartChar: quotedbl
Encoding: 3 34 1
Width: 452
VWidth: 0
Flags: W
HStem: 532 257<50 202 250 402>
VStem: 50 152<532 789> 250 152<532 789>
LayerCount: 2
Fore
SplineSet
250 532 m 261
 250 789 l 261
 402 789 l 261
 402 532 l 261
 250 532 l 261
50 532 m 257
 50 789 l 257
 202 789 l 257
 202 532 l 257
 50 532 l 257
EndSplineSet
EndChar

StartChar: numbersign
Encoding: 4 35 2
Width: 644
VWidth: 0
Flags: W
HStem: 216 152<55 64.8453 243.718 364.845 543.718 599> 466 152<55 109.044 287.917 409.044 587.917 599>
LayerCount: 2
Fore
SplineSet
149 692 m 1
 301 692 l 1
 287.917127072 618 l 1
 435.917127072 618 l 1
 449 692 l 1
 601 692 l 1
 587.917127072 618 l 1
 599 618 l 1
 599 466 l 1
 561.044198895 466 l 1
 543.718232044 368 l 1
 599 368 l 1
 599 216 l 1
 516.845303867 216 l 1
 505 149 l 1
 353 149 l 1
 364.845303867 216 l 1
 216.845303867 216 l 1
 205 149 l 1
 53 149 l 1
 64.8453038674 216 l 1
 55 216 l 1
 55 368 l 1
 91.7182320442 368 l 1
 109.044198895 466 l 1
 55 466 l 1
 55 618 l 1
 135.917127072 618 l 1
 149 692 l 1
409.044198895 466 m 1
 261.044198895 466 l 1
 243.718232044 368 l 1
 391.718232044 368 l 1
 409.044198895 466 l 1
EndSplineSet
EndChar

StartChar: dollar
Encoding: 5 36 3
Width: 512
VWidth: 0
Flags: W
VStem: 253 210.5<155.062 301.804> 253 79<-182 -0.345529 442.672 585.787 774.489 1030>
LayerCount: 2
Fore
SplineSet
60 57 m 1x40
 135 182 l 1
 140.333333333 178 147.666666667 173 157 167 c 0
 182.333333333 152.333333333 209.333333333 148.333333333 238 155 c 0
 243.245543236 156.219893776 248.245543236 157.741136069 253 159.563726878 c 1x80
 253 309.608321509 l 1
 246.412287954 311.996122309 239.412287954 313.793348473 232 315 c 0
 199.333333333 333 171 353 147 375 c 0
 123 397 104 421.666666667 90 449 c 0
 76 476.333333333 70 506.333333333 72 539 c 0
 74 571.666666667 85.3333333333 605 106 639 c 0
 140.18626834 695.16315513 189.18626834 734.835552375 253 758.017191734 c 1
 253 1030 l 1
 332 1030 l 1
 332 774.489432646 l 1
 379.18066614 775.872802808 421.18066614 760.042991926 458 727 c 0
 460 725 463.5 722.5 468.5 719.5 c 0
 473.5 716.5 477 714 479 712 c 1
 404 587 l 1
 396 593.666666667 388.666666667 598.666666667 382 602 c 0
 365.936434903 610.877233343 349.269768237 615.532755695 332 615.966567057 c 1
 332 400.544512926 l 1x40
 351.361329682 388.93680017 368.361329682 377.255295861 383 365.5 c 0
 405 347.833333333 424.166666667 327.333333333 440.5 304 c 0
 456.833333333 280.666666667 464.5 254.333333333 463.5 225 c 0x80
 462.5 195.666666667 452 164 432 130 c 0
 408.666666667 90.6666666667 375.5 58.1666666667 332.5 32.5 c 0
 332.333343348 32.4005227733 332.166676681 32.3012358169 332 32.2021391306 c 2
 332 -182 l 1
 253 -182 l 1
 253 -0.345529008978 l 1
 235.934473186 -4.31867653794 218.767806519 -6.37016686828 201.5 -6.5 c 0
 157.166666667 -6.83333333333 117 9.33333333333 81 42 c 0
 79 44 75.5 46.5 70.5 49.5 c 0
 65.5 52.5 62 55 60 57 c 1x40
253 585.786987628 m 1x40
 246.98060167 579.74485626 241.647268336 572.815860384 237 565 c 0
 220.333333333 537.666666667 218.833333333 507.666666667 232.5 475 c 0
 237.901451462 462.089213579 244.734784795 451.313232858 253 442.672057836 c 1
 253 585.786987628 l 1x40
EndSplineSet
EndChar

StartChar: percent
Encoding: 6 37 4
Width: 691
VWidth: 0
Flags: W
HStem: 82 75<498.188 521.812> 264 75<498.188 521.812> 483 75<193.188 216.812> 665 75<193.188 216.812>
VStem: 75 76<568.334 654.111> 259 76<568.933 653.698> 380 76<167.334 253.111> 564 76<167.933 252.698>
LayerCount: 2
Fore
SplineSet
204 483 m 260
 203 483 203 483 202 483 c 260
 200 483 197 483 195 483 c 260
 128 488 75 543 75 611 c 260
 75 679 128 735 195 740 c 260
 197 740 200 740 202 740 c 260
 203 740 203 740 204 740 c 260
 205 740 205 740 206 740 c 260
 278 740 335 683 335 611 c 260
 335 540 278 483 206 483 c 260
 205 483 205 483 204 483 c 260
205 665 m 260
 201 665 197 664 193 663 c 261
 193 664 l 261
 168 659 151 637 151 611 c 260
 151 585 168 564 193 559 c 261
 193 560 l 261
 197 559 201 558 205 558 c 261
 209 558 213 559 217 560 c 261
 217 559 l 261
 242 564 259 585 259 611 c 260
 259 637 242 659 217 664 c 261
 217 663 l 261
 213 664 209 665 205 665 c 260
509 82 m 256
 508 82 508 82 507 82 c 256
 505 82 502 82 500 82 c 256
 433 87 380 142 380 210 c 256
 380 278 433 334 500 339 c 256
 502 339 505 339 507 339 c 256
 508 339 508 339 509 339 c 256
 510 339 510 339 511 339 c 256
 583 339 640 282 640 210 c 256
 640 139 583 82 511 82 c 256
 510 82 510 82 509 82 c 256
510 264 m 256
 506 264 502 263 498 262 c 257
 498 263 l 257
 473 258 456 236 456 210 c 256
 456 184 473 163 498 158 c 257
 498 159 l 257
 502 158 506 157 510 157 c 257
 514 157 518 158 522 159 c 257
 522 158 l 257
 547 163 564 184 564 210 c 256
 564 236 547 258 522 263 c 257
 522 262 l 257
 518 263 514 264 510 264 c 256
535 818 m 257
 641 757 l 257
 156 -83 l 257
 50 -22 l 257
 535 818 l 257
EndSplineSet
EndChar

StartChar: ampersand
Encoding: 7 38 5
Width: 649
VWidth: 0
Flags: W
HStem: 3 151<250.364 321.357> 498 20G<297.268 319.279>
VStem: 56.8926 151<196.066 271.468>
LayerCount: 2
Fore
SplineSet
388.892578125 810 m 1
 385.892578125 691 l 1
 360.892578125 689 242.892578125 624 223.892578125 605 c 0
 200.892578125 582 190.892578125 551 192.892578125 521 c 1
 215.551757812 498.340820312 l 1
 246.095703125 511.012695312 279.643554688 518 314.892578125 518 c 0
 323.666015625 518 332.338867188 517.560546875 340.892578125 516.704101562 c 1
 340.892578125 373 l 1
 452.024414062 261.868164062 l 1
 509.897460938 309.09375 564.953125 354.163085938 568.892578125 355.131835938 c 1
 568.892578125 202.295898438 l 2
 567.041015625 202.110351562 554.50390625 192.668945312 535.904296875 177.98828125 c 1
 599.892578125 114 l 1
 481.892578125 -4 l 1
 405.688476562 72.955078125 l 1
 358.41015625 34.77734375 318.403320312 3 314.892578125 3 c 0
 171.892578125 3 56.892578125 118 56.892578125 260 c 0
 56.892578125 307.479492188 69.5703125 351.873046875 91.7412109375 389.995117188 c 1
 75.892578125 406 l 1
 20.81640625 505.021484375 62.6962890625 608.463867188 116.892578125 712 c 0
 143.875 763.546875 356.1484375 829.728515625 388.892578125 810 c 1
321.578125 157.893554688 m 1
 208.534179688 272.051757812 l 1
 208.110351562 268.1015625 207.892578125 264.081054688 207.892578125 260 c 0
 207.892578125 201 254.892578125 154 314.892578125 154 c 0
 315.63671875 154 317.953125 155.373046875 321.578125 157.893554688 c 1
EndSplineSet
EndChar

StartChar: quotesingle
Encoding: 8 39 6
Width: 252
VWidth: 0
Flags: W
HStem: 532 257<50 202>
VStem: 50 152<532 789>
LayerCount: 2
Fore
SplineSet
50 532 m 261
 50 789 l 261
 202 789 l 261
 202 532 l 261
 50 532 l 261
EndSplineSet
EndChar

StartChar: parenleft
Encoding: 9 40 7
Width: 555
VWidth: 0
Flags: W
HStem: -14 25<373.819 460.389> 744 29<364.924 455.227>
VStem: 50 104<252.783 504.708>
LayerCount: 2
Fore
SplineSet
432 744 m 256
 304 744 154 579 154 378 c 260
 154 176 304 11 432 11 c 256
 505 -7 l 257
 481 -12 457 -14 432 -14 c 256
 221 -14 50 162 50 380 c 256
 50 597 221 773 432 773 c 256
 457 773 481 771 505 766 c 257
 432 744 l 256
EndSplineSet
EndChar

StartChar: parenright
Encoding: 10 41 8
Width: 555
VWidth: 0
Flags: W
HStem: -14 25<94.6111 181.181> 744 29<99.7727 190.076>
VStem: 401 104<252.783 504.708>
LayerCount: 2
Fore
SplineSet
123 744 m 260
 50 766 l 261
 74 771 98 773 123 773 c 260
 334 773 505 597 505 380 c 260
 505 162 334 -14 123 -14 c 260
 98 -14 74 -12 50 -7 c 261
 123 11 l 260
 251 11 401 176 401 378 c 260
 401 579 251 744 123 744 c 260
EndSplineSet
EndChar

StartChar: asterisk
Encoding: 11 42 9
Width: 644
VWidth: 0
Flags: W
HStem: 344 152<50 139 505 594>
VStem: 246 152<149 237 603 692>
LayerCount: 2
Fore
SplineSet
594 496 m 1
 594 344 l 1
 505 344 l 1
 568 281 l 1
 461 174 l 1
 398 237 l 1
 398 149 l 1
 246 149 l 1
 246 237 l 1
 183 174 l 1
 76 281 l 1
 139 344 l 1
 50 344 l 1
 50 496 l 1
 139 496 l 1
 76 559 l 1
 183 666 l 1
 246 603 l 1
 246 692 l 1
 398 692 l 1
 398 603 l 1
 461 666 l 1
 568 559 l 1
 505 496 l 1
 594 496 l 1
EndSplineSet
EndChar

StartChar: plus
Encoding: 12 43 10
Width: 644
VWidth: 0
Flags: W
HStem: 344 152<50 594>
VStem: 246 152<149 692>
LayerCount: 2
Fore
SplineSet
594 496 m 261
 594 344 l 261
 50 344 l 261
 50 496 l 261
 594 496 l 261
246 692 m 261
 398 692 l 261
 398 149 l 261
 246 149 l 261
 246 692 l 261
EndSplineSet
EndChar

StartChar: comma
Encoding: 13 44 11
Width: 252
VWidth: 0
Flags: W
HStem: -134 274<92.7671 145.182>
VStem: 50 152<-2 140>
LayerCount: 2
Fore
SplineSet
50 -2 m 5
 50 140 l 5
 202 140 l 5
 202 -2 l 5
 142 -134 l 5
 84 -130 l 5
 92.7671232877 -2 l 5
 50 -2 l 5
EndSplineSet
EndChar

StartChar: hyphen
Encoding: 14 45 12
Width: 644
VWidth: 0
Flags: W
HStem: 344 152<50 594>
LayerCount: 2
Fore
SplineSet
594 496 m 261
 594 344 l 261
 50 344 l 261
 50 496 l 261
 594 496 l 261
EndSplineSet
EndChar

StartChar: period
Encoding: 15 46 13
Width: 252
VWidth: 0
Flags: W
HStem: -2 142<50 202>
VStem: 50 152<-2 140>
LayerCount: 2
Fore
SplineSet
50 -2 m 257
 50 140 l 257
 202 140 l 257
 202 -2 l 257
 50 -2 l 257
EndSplineSet
EndChar

StartChar: slash
Encoding: 16 47 14
Width: 691
VWidth: 0
Flags: W
LayerCount: 2
Fore
SplineSet
535 818 m 257
 641 757 l 257
 156 -83 l 257
 50 -22 l 257
 535 818 l 257
EndSplineSet
EndChar

StartChar: zero
Encoding: 17 48 15
Width: 864
VWidth: 0
Flags: W
HStem: -14 157<356.32 508.56> 612 161<356.32 508.56>
VStem: 126.5 122<271.459 485.999> 615.5 122<268.943 488.503>
LayerCount: 2
Fore
SplineSet
737.5 380 m 256
 737.5 162 601.5 -14 432.5 -14 c 256
 263.5 -14 126.5 162 126.5 380 c 256
 126.5 597 263.5 773 432.5 773 c 256
 601.5 773 737.5 597 737.5 380 c 256
615.5 378 m 256
 615.5 507 534.5 612 432.5 612 c 256
 330.5 612 248.5 507 248.5 378 c 256
 248.5 248 330.5 143 432.5 143 c 256
 534.5 143 615.5 248 615.5 378 c 256
EndSplineSet
EndChar

StartChar: one
Encoding: 18 49 16
Width: 436
VWidth: 0
Flags: W
HStem: -2 21G<234 386> 754 20G<234 386>
VStem: 234 152<-2 774>
LayerCount: 2
Fore
SplineSet
158 487 m 261
 50 594 l 261
 232 776 l 261
 340 669 l 261
 158 487 l 261
234 774 m 257
 386 774 l 257
 386 -2 l 257
 234 -2 l 257
 234 774 l 257
EndSplineSet
EndChar

StartChar: two
Encoding: 19 50 17
Width: 555
VWidth: 0
Flags: W
HStem: 0 226<58.0748 244.22> 586 128.801<58.0915 234.536>
VStem: 359 153<324.465 477.36>
LayerCount: 2
Fore
SplineSet
130 586 m 4
 257 586 359 502 359 398.80078125 c 4
 359 294.80078125 257 226 130 226 c 4
 104.4453125 226 79.9033203125 229.401367188 57 235.682617188 c 5
 54 0 l 5
 557 4.80078125 l 5
 557 126.400390625 l 5
 281.891601562 123.775390625 l 5
 417.301757812 167.858398438 512 270.616210938 512 400.400390625 c 4
 512 574 341 714.80078125 130 714.80078125 c 4
 105.034179688 714.80078125 80.62890625 712.829101562 57 709.06640625 c 5
 57 576.325195312 l 5
 79.9033203125 582.599609375 104.4453125 586 130 586 c 4
EndSplineSet
EndChar

StartChar: three
Encoding: 20 51 18
Width: 435
VWidth: 0
Flags: W
HStem: -6.12012 122.31<50 177.642> 288.149 122.641<101.207 198.605> 582.75 122.311<56 180.704>
VStem: 234 151<159.615 254.202 444.41 539.831>
LayerCount: 2
Fore
SplineSet
50 -5.0703125 m 5
 50 118.7265625 l 5
 58.326171875 117.068359375 67.0361328125 116.189453125 76 116.189453125 c 4
 164.59765625 116.189453125 234 154.260742188 234 202.049804688 c 0
 234 247.192382812 193.44921875 283.25 139.595703125 288.15234375 c 0
 135.422851562 287.991210938 131.223632812 287.91015625 127 287.91015625 c 0
 122.829101562 287.91015625 118.681640625 287.990234375 114.55859375 288.149414062 c 0
 109.943359375 287.72265625 105.41796875 287.061523438 101 286.1796875 c 1
 101 288.959960938 l 1
 101 409.979492188 l 1
 101 412.756835938 l 1
 105.41796875 411.876953125 109.943359375 411.216796875 114.557617188 410.790039062 c 0
 118.681640625 410.94921875 122.829101562 411.030273438 127 411.030273438 c 0
 131.224609375 411.030273438 135.423828125 410.948242188 139.59765625 410.787109375 c 0
 193.450195312 415.686523438 234 451.690429688 234 496.080078125 c 0
 234 544.6796875 167.233398438 582.75 82 582.75 c 0
 73.0361328125 582.75 64.326171875 581.87109375 56 580.209960938 c 1
 56 704.009765625 l 1
 64.5537109375 704.704101562 73.2265625 705.060546875 82 705.060546875 c 0
 249.94140625 705.060546875 385 611.91015625 385 496.080078125 c 0
 385 438.852539062 356.532226562 387.0390625 310.310546875 349.418945312 c 1
 356.532226562 311.696289062 385 259.680664062 385 202.049804688 c 0
 385 87.0302734375 247.267578125 -6.1201171875 76 -6.1201171875 c 4
 67.2265625 -6.1201171875 58.5537109375 -5.7646484375 50 -5.0703125 c 5
EndSplineSet
EndChar

StartChar: four
Encoding: 21 52 19
Width: 752
VWidth: 0
Flags: W
HStem: 191.015 150<287.765 385.765> 754 20G<368.718 522.766>
VStem: 385.765 137.001<341.015 521.015> 393.764 129.002<0 192.015>
LayerCount: 2
Fore
SplineSet
393.763671875 0 m 257xd0
 393.763671875 192.014648438 l 257
 392.764648438 191.014648438 l 257
 57.7646484375 191.014648438 l 257
 379.764648438 774 l 257
 522.765625 774 l 257
 522.765625 0 l 257
 393.763671875 0 l 257xd0
385.764648438 341.014648438 m 257xe0
 385.764648438 521.014648438 l 257
 287.764648438 344.014648438 l 261
 385.764648438 341.014648438 l 257xe0
EndSplineSet
EndChar

StartChar: five
Encoding: 22 53 20
Width: 384
VWidth: 0
Flags: W
HStem: 3 151<50 140.529> 622 152<202 367>
VStem: 50 152<471.593 622> 183 151<196.066 325.061>
LayerCount: 2
Fore
SplineSet
50 4 m 1xe0
 50 157 l 1xe0
 58 155 67 154 76 154 c 0
 136 154 183 201 183 260 c 0xd0
 183 320 136 367 76 367 c 0
 67 367 58 366 50 364 c 1
 50 397 l 1
 50 517 l 1
 50 773 l 1
 51 773 l 1
 51 774 l 1
 368 774 l 5
 367 622 l 5
 202 622 l 1
 202 485 l 1xe0
 281 441 334 357 334 260 c 0xd0
 334 118 219 3 76 3 c 0
 67 3 59 3 50 4 c 1xe0
EndSplineSet
EndChar

StartChar: six
Encoding: 23 54 21
Width: 729
VWidth: 0
Flags: W
HStem: 612 161<337.002 549.858>
VStem: 50 224<251.187 324.857> 492 167<195.982 323.016>
LayerCount: 2
Fore
SplineSet
432 612 m 0
 317.670328662 612.000000062 223.601172199 526.905837875 205.969256783 415.812511233 c 1
 249.354779686 463.501108786 310.460782675 494.748835245 379.12890625 499.397460938 c 0
 384.006835938 499.727539062 388.66015625 499.930664062 393.451171875 499.9765625 c 0
 394.631835938 499.98828125 395.815429688 500 397 500 c 0
 397.301757812 500 397.603515625 499.999023438 397.905273438 499.998046875 c 0
 398.92578125 500 399.956054688 500 401 500 c 0
 524.041992188 500 626.35546875 414.859375 652.516601562 300 c 0
 656.759765625 281.370117188 659 261.958007812 659 242 c 0
 659 214.854492188 654.797851562 188.6953125 647 164.138671875 c 0
 627.598271266 103.033822211 585.939717489 51.8443866011 531.387759945 20.0410419676 c 0
 499.19846793 -2.30765230769 465.974024761 -14 432 -14 c 0
 429.58559311 -13.999995273 427.176423534 -13.9769506975 424.772687632 -13.9310623118 c 0
 416.946690964 -14.6385164443 409.01735085 -15 401 -15 c 0
 399.956054688 -15 398.92578125 -14.998046875 397.90625 -14.998046875 c 0
 397.604492188 -14.998046875 397.301757812 -15 397 -15 c 0
 395.815429688 -15 394.631835938 -14.9921875 393.451171875 -14.9765625 c 0
 388.662109375 -14.9130859375 384.004882812 -14.794921875 379.133789062 -14.3974609375 c 0
 325.603809587 -10.0245965702 276.634264559 9.94501177464 237.078901235 40.9840052466 c 1
 125.058137298 109.575386262 50 235.570027147 50 380 c 0
 50 597 221 773 432 773 c 0
 456.965667725 773 527.37109375 770.536132812 551 765.83203125 c 1
 551 599.90625 l 1
 528.096679688 607.749023438 457.554656982 612 432 612 c 0
382.955078125 366.982421875 m 0
 374.64227937 367.129037445 366.393982318 365.848222764 359 364 c 1
 359 364.828125 l 1
 309.898666382 354.945550887 274 312.437469496 274 260 c 0
 273.999999576 224.543768392 290.973779003 193.421277828 317.542301242 174.228595904 c 0
 327.941962956 168.082459008 338.862464818 162.750704809 350.222734557 158.317562061 c 0
 353.096623042 157.485658526 356.024062585 156.768044868 359 156.169921875 c 1
 359 157 l 1
 366.393972898 155.151752524 374.642176384 154.15762207 382.955078125 154.017578125 c 0
 391.230953058 154.16349388 399.280360492 155.234183537 407 157.131835938 c 1
 407 156.169921875 l 1
 456.101318359 166.038622896 492 208.436493023 492 260 c 0
 492 312.437469496 456.101318359 354.945550887 407 364.828125 c 1
 407 363.864257812 l 1
 399.28037029 365.76539277 391.230942554 366.836457727 382.955078125 366.982421875 c 0
EndSplineSet
EndChar

StartChar: seven
Encoding: 24 55 22
Width: 610
VWidth: 0
Flags: W
HStem: 610 152<50 389>
LayerCount: 2
Fore
SplineSet
213 0 m 257
 51 0 l 257
 389 610 l 257
 50 610 l 261
 50 762 l 261
 560 762 l 257
 560 610 l 257
 213 0 l 257
EndSplineSet
EndChar

StartChar: eight
Encoding: 25 56 23
Width: 616
VWidth: 0
Flags: HW
HStem: 366.983 92.0348<286.347 333.638>
VStem: 50 151<197.14 324.826 500.772 628.449> 419 151<195.844 324.826 500.772 629.753>
LayerCount: 2
Fore
SplineSet
309.959960938 323.504882812 m 256
 302.64453125 323.381835938 295.38671875 322.505859375 288.879882812 320.879882812 c 257
 288.879882812 321.609375 l 257
 245.669921875 312.912109375 214.080078125 275.504882812 214.080078125 229.359375 c 256
 214.080078125 183.984375 245.669921875 146.673828125 288.879882812 137.990234375 c 257
 288.879882812 138.720703125 l 257
 295.38671875 137.09375 302.64453125 136.21875 309.959960938 136.094726562 c 257
 317.243164062 136.223632812 324.327148438 137.166015625 331.120117188 138.8359375 c 257
 331.120117188 137.990234375 l 257
 374.330078125 146.673828125 405.919921875 183.984375 405.919921875 229.359375 c 256
 405.919921875 275.504882812 374.330078125 312.912109375 331.120117188 321.609375 c 257
 331.120117188 320.760742188 l 257
 324.327148438 322.434570312 317.243164062 323.375976562 309.959960938 323.504882812 c 256
309.959960938 591.904296875 m 256
 302.64453125 591.78125 295.38671875 590.907226562 288.879882812 589.279296875 c 257
 288.879882812 590.008789062 l 257
 245.669921875 581.3125 214.080078125 543.904296875 214.080078125 497.759765625 c 256
 214.080078125 452.384765625 245.669921875 415.075195312 288.879882812 406.389648438 c 257
 288.879882812 407.120117188 l 257
 295.38671875 405.493164062 302.64453125 404.618164062 309.959960938 404.49609375 c 257
 317.2421875 404.624023438 324.327148438 405.565429688 331.120117188 407.236328125 c 257
 331.120117188 406.389648438 l 257
 374.330078125 415.075195312 405.919921875 452.384765625 405.919921875 497.759765625 c 256
 405.919921875 543.904296875 374.330078125 581.3125 331.120117188 590.008789062 c 257
 331.120117188 589.16015625 l 257
 324.327148438 590.833984375 317.2421875 591.776367188 309.959960938 591.904296875 c 256
309.037109375 3.201171875 m 0
 308.771484375 3.201171875 308.505859375 3.2001953125 308.240234375 3.2001953125 c 0
 307.197265625 3.2001953125 306.15625 3.2060546875 305.116210938 3.220703125 c 0
 300.90234375 3.2607421875 296.8046875 3.380859375 292.518554688 3.7294921875 c 0
 174.077148438 11.744140625 81.2001953125 109.6484375 81.2001953125 229.359375 c 0
 81.2001953125 279.814453125 97.4677734375 326.307617188 125.0703125 363.905273438 c 1
 97.4677734375 401.375976562 81.2001953125 447.659179688 81.2001953125 497.759765625 c 0
 81.2001953125 618.3125 174.075195312 716.250976562 292.513671875 724.26953125 c 0
 296.801757812 724.619140625 300.901367188 724.73828125 305.116210938 724.779296875 c 0
 306.15625 724.793945312 307.197265625 724.799804688 308.240234375 724.799804688 c 0
 308.505859375 724.799804688 308.771484375 724.798828125 309.036132812 724.797851562 c 0
 309.934570312 724.799804688 310.840820312 724.799804688 311.759765625 724.799804688 c 0
 437.599609375 724.799804688 538.799804688 623.599609375 538.799804688 497.759765625 c 0
 538.799804688 447.659179688 522.532226562 401.375976562 494.9296875 363.905273438 c 1
 522.532226562 326.307617188 538.799804688 279.814453125 538.799804688 229.359375 c 0
 538.799804688 104.400390625 437.599609375 3.2001953125 311.759765625 3.2001953125 c 0
 310.840820312 3.2001953125 309.934570312 3.201171875 309.037109375 3.201171875 c 0
EndSplineSet
EndChar

StartChar: nine
Encoding: 26 57 24
Width: 729
VWidth: 0
Flags: W
HStem: -15 161<159.125 372.237> 753 20G<303.991 308.522 311.849 312.592>
VStem: 50 167<434.984 562.018> 435 224<269.5 508.141>
LayerCount: 2
Fore
SplineSet
277 146 m 0
 391.330078125 146 485.3984375 231.09375 503.030273438 342.1875 c 1
 459.645507812 294.499023438 398.5390625 263.250976562 329.87109375 258.602539062 c 0
 324.993164062 258.272460938 320.33984375 258.069335938 315.548828125 258.0234375 c 0
 314.368164062 258.01171875 313.184570312 258 312 258 c 0
 311.698242188 258 311.396484375 258.000976562 311.094726562 258.001953125 c 0
 310.07421875 258 309.043945312 258 308 258 c 0
 184.958007812 258 82.64453125 343.140625 56.4833984375 458 c 0
 52.240234375 476.629882812 50 496.041992188 50 516 c 0
 50 543.145507812 54.2021484375 569.3046875 62 593.861328125 c 0
 81.4013671875 654.965820312 123.060546875 706.155273438 177.612304688 737.958984375 c 0
 209.801757812 760.307617188 243.026367188 772 277 772 c 0
 279.4140625 772 281.823242188 771.9765625 284.227539062 771.930664062 c 0
 292.053710938 772.638671875 299.982421875 773 308 773 c 0
 309.043945312 773 310.07421875 772.998046875 311.09375 772.998046875 c 0
 311.395507812 772.998046875 311.698242188 773 312 773 c 0
 313.184570312 773 314.368164062 772.9921875 315.548828125 772.9765625 c 0
 320.337890625 772.913085938 324.995117188 772.794921875 329.866210938 772.397460938 c 0
 383.396484375 768.024414062 432.366210938 748.0546875 471.920898438 717.015625 c 1
 583.94140625 648.424804688 659 522.4296875 659 378 c 0
 659 161 488 -15 277 -15 c 0
 252.034179688 -15 181.62890625 -12.5361328125 158 -7.83203125 c 1
 158 158.09375 l 1
 180.903320312 150.250976562 251.4453125 146 277 146 c 0
326.044921875 391.017578125 m 0
 334.357421875 390.87109375 342.606445312 392.151367188 350 394 c 1
 350 393.171875 l 1
 399.1015625 403.0546875 435 445.5625 435 498 c 0
 435 533.456054688 418.026367188 564.579101562 391.458007812 583.771484375 c 0
 381.057617188 589.91796875 370.137695312 595.249023438 358.77734375 599.682617188 c 0
 355.903320312 600.514648438 352.975585938 601.232421875 350 601.830078125 c 1
 350 601 l 1
 342.606445312 602.848632812 334.357421875 603.842773438 326.044921875 603.982421875 c 0
 317.76953125 603.836914062 309.719726562 602.765625 302 600.868164062 c 1
 302 601.830078125 l 1
 252.8984375 591.9609375 217 549.563476562 217 498 c 0
 217 445.5625 252.8984375 403.0546875 302 393.171875 c 1
 302 394.135742188 l 1
 309.719726562 392.234375 317.76953125 391.163085938 326.044921875 391.017578125 c 0
EndSplineSet
EndChar

StartChar: colon
Encoding: 27 58 25
Width: 252
VWidth: 0
Flags: W
HStem: -2 142<50 202> 398 142<50 202>
VStem: 50 152<-2 140 398 540>
LayerCount: 2
Fore
SplineSet
50 398 m 261
 50 540 l 261
 202 540 l 261
 202 398 l 261
 50 398 l 261
50 -2 m 257
 50 140 l 257
 202 140 l 257
 202 -2 l 257
 50 -2 l 257
EndSplineSet
EndChar

StartChar: semicolon
Encoding: 28 59 26
Width: 252
VWidth: 0
Flags: W
HStem: 398 142<50 202>
VStem: 50 152<-2 140 398 540>
LayerCount: 2
Fore
SplineSet
50 -2 m 5
 50 140 l 5
 202 140 l 5
 202 -2 l 5
 142 -134 l 5
 84 -130 l 5
 92.7671232877 -2 l 5
 50 -2 l 5
50 398 m 257
 50 540 l 257
 202 540 l 257
 202 398 l 257
 50 398 l 257
EndSplineSet
EndChar

StartChar: less
Encoding: 29 60 27
Width: 644
VWidth: 0
Flags: W
LayerCount: 2
Fore
SplineSet
594 546 m 5
 594 394 l 5
 379.895582329 337.718875502 l 5
 594 296 l 5
 594 144 l 5
 50 250 l 5
 50 251 l 5
 50 402 l 5
 50 403 l 5
 594 546 l 5
EndSplineSet
EndChar

StartChar: equal
Encoding: 30 61 28
Width: 644
VWidth: 0
Flags: W
HStem: 144 152<50 594> 394 152<50 594>
LayerCount: 2
Fore
SplineSet
594 296 m 261
 594 144 l 261
 50 144 l 261
 50 296 l 261
 594 296 l 261
594 546 m 257
 594 394 l 257
 50 394 l 257
 50 546 l 257
 594 546 l 257
EndSplineSet
EndChar

StartChar: greater
Encoding: 31 62 29
Width: 644
VWidth: 0
Flags: W
LayerCount: 2
Fore
SplineSet
50 546 m 5
 594 403 l 5
 594 402 l 5
 594 251 l 5
 594 250 l 5
 50 144 l 5
 50 296 l 5
 264 338 l 5
 50 394 l 5
 50 546 l 5
EndSplineSet
EndChar

StartChar: question
Encoding: 32 63 30
Width: 384
VWidth: 0
Flags: W
HStem: -2 142<50 202> 230 238<50 144.438> 678 151<50 140.529>
VStem: 50 152<-2 140 230 359.991> 183 151<508.983 635.934>
LayerCount: 2
Fore
SplineSet
50 -2 m 257xf0
 50 140 l 257
 202 140 l 257
 202 -2 l 257
 50 -2 l 257xf0
50 828 m 1
 59 829 67 829 76 829 c 0
 219 829 334 714 334 572 c 0xe8
 334 474.830761529 280.901364171 390.589886565 202 346.573282595 c 1
 202 230 l 1
 50 230 l 1
 50 315 l 1
 50 440 l 1
 50 468 l 1xf0
 58 466 67 465 76 465 c 0
 136 465 183 512 183 572 c 0xe8
 183 631 136 678 76 678 c 0
 67 678 58 677 50 675 c 1
 50 828 l 1
EndSplineSet
EndChar

StartChar: at
Encoding: 33 64 31
Width: 864
VWidth: 0
Flags: W
HStem: 239 75<431.227 473> 421 71<431.227 485>
VStem: 343 76<325.505 409.715> 485 83.0107<315.318 421> 485 76<318.62 421>
LayerCount: 2
Fore
SplineSet
524 166 m 1025xe0
485 420 m 257xf0
 481 421 477 421 473 421 c 256
 443 421 419 398 419 368 c 256
 419 338 443 314 473 314 c 256
 477 314 481 315 485 316 c 257
 485 420 l 257xf0
561 236 m 1025xe8
487 228 m 1
 473 239 l 1
 401 239 343 296 343 368 c 0
 343 439 401 492 473 492 c 0
 477 492 481 492 485 492 c 2
 561 492 l 1xe8
 568.010742188 318.353515625 l 1xf0
 572.831054688 287.021484375 653.69921875 219.975585938 662 326 c 2
 661.986328125 327.467773438 657.757707957 340.566438744 658 342 c 0
 670 413 649 487 595 541 c 0
 505 631 359 628 268 537 c 0
 176 445 174 299 264 209 c 0
 334 139 438 125 524 166 c 0
 548 177 637 54 637 54 c 1
 485 -46 283 -32 153 98 c 0
 4 247 7 493 161 647 c 0
 314 800 560 804 709 655 c 0
 823 541 850 362 787 220 c 1
 679.654298086 157.57419036 584.089114196 199.539097811 487 228 c 1
EndSplineSet
EndChar

StartChar: A
Encoding: 34 65 32
Width: 752
VWidth: 0
Flags: HW
HStem: 227 140<297.449 406.827>
LayerCount: 2
Fore
SplineSet
550 0 m 257
 461 228.136672974 l 257
 461 227 l 257
 261.037719727 227 l 257
 202 0 l 257
 50 0 l 257
 266 769 l 261
 418 769 l 261
 702 0 l 257
 550 0 l 257
406.827056885 367 m 257
 357.200195312 535.223632812 l 261
 297.448638916 367 l 257
 406.827056885 367 l 257
EndSplineSet
Substitution2: "'c2sc' Capitals to Small Capitals in Latin lookup 0 subtable" a.sc
Substitution2: "'c2sc' Capitals to Small Capitals in Latin lookup 0 subtable" a.sc
EndChar

StartChar: B
Encoding: 35 66 33
Width: 512
VWidth: 0
Flags: W
HStem: 4 129<202.375 290.409> 346 105<202.375 290.409> 664 116<202.375 290.409>
VStem: 50 152<133.026 345.974 451.026 663.974 779.664 780> 333 151<176.465 303.767 492.806 610.788>
LayerCount: 2
Fore
SplineSet
202 780 m 257
 202 779.663574219 l 257
 207.96484375 780 213.740570068 780 220 780 c 256
 363 780 478 665 478 522 c 256
 478 471.500762939 420 429 395 396 c 257
 424 361 484 314.768890381 484 260 c 256
 484 118 369 3 226 3 c 256
 218 3 210 3 202 4 c 257
 50 4 l 257
 50 780 l 257
 202 780 l 257
202 136 m 257
 210 134 218 133 226 133 c 256
 286 133 333 180 333 239 c 256
 333 299 286 346 226 346 c 256
 218 346 210 345 202 343 c 257
 202 136 l 257
202 454 m 257
 210 452 218 451 226 451 c 256
 286 451 333 498 333 557 c 256
 333 617 286 664 226 664 c 256
 218 664 210 663 202 661 c 257
 202 454 l 257
EndSplineSet
Substitution2: "'c2sc' Capitals to Small Capitals in Latin lookup 0 subtable" b.sc
EndChar

StartChar: C
Encoding: 36 67 34
Width: 555
VWidth: 0
Flags: W
HStem: -14 157<337.027 503.909> 612 161<337.027 503.909>
VStem: 50 153<281.299 476.2>
LayerCount: 2
Fore
SplineSet
432 612 m 260
 305 612 203 507 203 378 c 260
 203 248 305 143 432 143 c 260
 457.554656982 143 482.097106934 147.251296997 505 155.102142334 c 261
 505 -6.83008432388 l 261
 481.371307373 -11.5360393524 456.965667725 -14 432 -14 c 260
 221 -14 50 162 50 380 c 260
 50 597 221 773 432 773 c 260
 456.965667725 773 481.371307373 770.536010742 505 765.831726074 c 261
 505 599.906005859 l 261
 482.097106934 607.748718262 457.554656982 612 432 612 c 260
EndSplineSet
Substitution2: "'c2sc' Capitals to Small Capitals in Latin lookup 0 subtable" c.sc
EndChar

StartChar: D
Encoding: 37 68 35
Width: 630
VWidth: 0
Flags: W
HStem: -13.9789 157.014<202 287.489> 611.965 161.035<202 293.477>
VStem: 50 152<-14 -13.9789 143.035 611.965> 427 153<282.064 475.736>
LayerCount: 2
Fore
SplineSet
50 768 m 257
 99.6211156208 760.911269197 148.382594462 773 198 773 c 256
 409 773 580 597 580 380 c 256
 580 163.379226685 411.156890869 -11.7713003159 202 -13.9788990021 c 257
 202 -14 l 257
 50 -14 l 257
 50 768 l 257
202 143.03477478 m 257
 327.134933472 145.212112427 427 249.36769104 427 378 c 256
 427 505.642822266 327.134933472 609.787963867 202 611.965209961 c 257
 202 143.03477478 l 257
EndSplineSet
Substitution2: "'c2sc' Capitals to Small Capitals in Latin lookup 0 subtable" d.sc
EndChar

StartChar: E
Encoding: 38 69 36
Width: 668
VWidth: 0
Flags: W
HStem: -3 152<202 617> 333 152<202 509> 626 152<202 617>
VStem: 50 568<-3 149 626 778> 50 152<149 333 485 626>
LayerCount: 2
Fore
SplineSet
509 485 m 257xe8
 510 333 l 257
 202 333 l 257
 202 149 l 257xe8
 617 149 l 257
 618 -3 l 257
 51 -3 l 257
 50.9934196472 -2 l 257
 50 -2 l 257
 50 774 l 257
 50.0263175964 774 l 257
 50 778 l 257
 617 778 l 257
 618 626 l 257xf0
 202 626 l 257
 202 485 l 257
 509 485 l 257xe8
EndSplineSet
Substitution2: "'c2sc' Capitals to Small Capitals in Latin lookup 0 subtable" e.sc
EndChar

StartChar: F
Encoding: 39 70 37
Width: 668
VWidth: 0
Flags: W
HStem: -2 21G<50 202> 333 152<202 509> 626 152<202 617>
VStem: 50 152<-2 333 485 626>
LayerCount: 2
Fore
SplineSet
509 485 m 257
 510 333 l 257
 202 333 l 257
 202 -2 l 257
 50 -2 l 257
 50 774 l 257
 50.0263175964 774 l 257
 50 778 l 257
 617 778 l 257
 618 626 l 257
 202 626 l 257
 202 485 l 257
 509 485 l 257
EndSplineSet
Substitution2: "'c2sc' Capitals to Small Capitals in Latin lookup 0 subtable" f.sc
EndChar

StartChar: G
Encoding: 40 71 38
Width: 651
VWidth: 0
Flags: W
HStem: -14 157<337.532 449> 612 161<337.027 503.909>
VStem: 50 153<281.299 476.2> 449 152<-14 -13.6178 143 313>
LayerCount: 2
Fore
SplineSet
432 612 m 256
 305 612 203 507 203 378 c 256
 203 248 305 143 432 143 c 256
 437.719726562 143 443.38873291 143.212982178 449 143.631622314 c 257
 449 313 l 257
 601 313 l 257
 601 -14 l 257
 449 -14 l 257
 449 -13.6177682877 l 257
 443.364196777 -13.8717107773 437.696685791 -14 432 -14 c 256
 221 -14 50 162 50 380 c 256
 50 597 221 773 432 773 c 256
 456.965667725 773 481.371307373 770.536010742 505 765.831726074 c 257
 505 599.906005859 l 257
 482.097106934 607.748718262 457.554656982 612 432 612 c 256
EndSplineSet
Substitution2: "'c2sc' Capitals to Small Capitals in Latin lookup 0 subtable" g.sc
EndChar

StartChar: H
Encoding: 41 72 39
Width: 652
VWidth: 0
Flags: W
HStem: -2 21G<50 202 450 602> 333 152<202 450> 754 20G<50 202 450 602>
VStem: 50 152<-2 333 485 774> 450 152<-2 333 485 774>
LayerCount: 2
Fore
SplineSet
450 774 m 257
 602 774 l 257
 602 -2 l 257
 450 -2 l 257
 450 333 l 257
 202 333 l 257
 202 -2 l 257
 50 -2 l 257
 50 774 l 257
 202 774 l 257
 202 485 l 257
 450 485 l 257
 450 774 l 257
EndSplineSet
Substitution2: "'c2sc' Capitals to Small Capitals in Latin lookup 0 subtable" h.sc
EndChar

StartChar: I
Encoding: 42 73 40
Width: 252
VWidth: 0
Flags: W
HStem: -2 21G<50 202> 754 20G<50 202>
VStem: 50 152<-2 774>
LayerCount: 2
Fore
SplineSet
50 774 m 257
 202 774 l 257
 202 -2 l 257
 50 -2 l 257
 50 774 l 257
EndSplineSet
Substitution2: "'c2sc' Capitals to Small Capitals in Latin lookup 0 subtable" i.sc
EndChar

StartChar: J
Encoding: 43 74 41
Width: 419
VWidth: 0
Flags: W
HStem: -3 151<55.4451 185.159> 741 20G<202 369>
VStem: 202 164<168.881 761>
LayerCount: 2
Fore
SplineSet
50 6 m 257
 50 174 l 257
 69 158 94 148 121 148 c 256
 154 148 182 162 202 185 c 257
 202 761 l 257
 369 761 l 257
 366 184 l 257
 335 75 239 -3 121 -3 c 256
 96 -3 73 0 50 6 c 257
EndSplineSet
Substitution2: "'c2sc' Capitals to Small Capitals in Latin lookup 0 subtable" j.sc
EndChar

StartChar: K
Encoding: 44 75 42
Width: 703
VWidth: 0
Flags: W
HStem: -2 20G<50 202 511 686.026> 754 20G<50 202>
VStem: 50 152<-2 218.505 432.895 774>
LayerCount: 2
Fore
SplineSet
50 774 m 257
 202 774 l 257
 202 432.894744873 l 257
 447 770 l 257
 633 768 l 257
 372 387 l 257
 703 -3 l 257
 511 -2 l 257
 259.207733154 301.887695312 l 257
 202 218.504714966 l 257
 202 -2 l 257
 50 -2 l 257
 50 774 l 257
EndSplineSet
Substitution2: "'c2sc' Capitals to Small Capitals in Latin lookup 0 subtable" k.sc
EndChar

StartChar: L
Encoding: 45 76 43
Width: 718
VWidth: 0
Flags: W
HStem: -3 152<202 667> 754 20G<50 202>
VStem: 50 152<149 774>
LayerCount: 2
Fore
SplineSet
50 774 m 261
 202 774 l 261
 202 149 l 261
 667 149 l 261
 668 -3 l 261
 51 -3 l 261
 50.9934196472 -2 l 261
 50 -2 l 261
 50 774 l 261
EndSplineSet
Substitution2: "'c2sc' Capitals to Small Capitals in Latin lookup 0 subtable" l.sc
EndChar

StartChar: M
Encoding: 46 77 44
Width: 1052
VWidth: 0
Flags: W
HStem: -2 21G<50 202 850 1002>
VStem: 50 152<-2 476.16> 850 152<-2 476.16>
LayerCount: 2
Fore
SplineSet
50 768 m 257
 202 768 l 257
 526 145.919998169 l 257
 850 768 l 257
 1002 768 l 257
 1002 -2 l 257
 850 -2 l 257
 850 476.160003662 l 257
 602 0 l 257
 450 0 l 257
 202 476.160003662 l 257
 202 -2 l 257
 50 -2 l 257
 50 768 l 257
EndSplineSet
Substitution2: "'c2sc' Capitals to Small Capitals in Latin lookup 0 subtable" m.sc
EndChar

StartChar: N
Encoding: 47 78 45
Width: 852
VWidth: 0
Flags: W
HStem: -2 21G<50 202 632.937 802> 754 20G<50 219.116 650 802>
VStem: 50 152<-2 523.101> 650 152<250.522 774>
LayerCount: 2
Fore
SplineSet
50 774 m 257
 202 774 l 257
 650 250.521743774 l 257
 650 774 l 257
 802 774 l 257
 802 -2 l 257
 650 -2 l 257
 202 523.10144043 l 257
 202 -2 l 257
 50 -2 l 257
 50 774 l 257
EndSplineSet
Substitution2: "'c2sc' Capitals to Small Capitals in Latin lookup 0 subtable" n.sc
EndChar

StartChar: O
Encoding: 48 79 46
Width: 864
VWidth: 0
Flags: W
HStem: -14 157<337.027 526.973> 612 161<337.027 526.973>
VStem: 50 153<278.712 478.774> 661 153<278.712 478.774>
LayerCount: 2
Fore
SplineSet
814 380 m 260
 814 162 643 -14 432 -14 c 260
 221 -14 50 162 50 380 c 260
 50 597 221 773 432 773 c 260
 643 773 814 597 814 380 c 260
661 378 m 260
 661 507 559 612 432 612 c 260
 305 612 203 507 203 378 c 260
 203 248 305 143 432 143 c 260
 559 143 661 248 661 378 c 260
EndSplineSet
Substitution2: "'c2sc' Capitals to Small Capitals in Latin lookup 0 subtable" o.sc
EndChar

StartChar: P
Encoding: 49 80 47
Width: 534
VWidth: 0
Flags: W
HStem: 265 151<202 290.529> 629 150<202.375 290.409>
VStem: 50 152<3 266 416.026 628.974> 333 151<458.471 586.934>
LayerCount: 2
Fore
SplineSet
202 3 m 257
 50 3 l 257
 50 779 l 257
 202 779 l 257
 210 780 218 780 226 780 c 256
 369 780 484 665 484 523 c 256
 484 380 369 265 226 265 c 256
 218 265 210 265 202 266 c 257
 202 3 l 257
202 626 m 257
 202 419 l 257
 210 417 218 416 226 416 c 256
 286 416 333 463 333 523 c 256
 333 582 286 629 226 629 c 256
 218 629 210 628 202 626 c 257
EndSplineSet
Substitution2: "'c2sc' Capitals to Small Capitals in Latin lookup 0 subtable" p.sc
EndChar

StartChar: Q
Encoding: 50 81 48
Width: 864
VWidth: 0
Flags: W
HStem: -14 157<337.027 513.045> 612 161<337.027 526.973>
VStem: 50 153<281.299 476.2> 661 153<280.102 476.2>
LayerCount: 2
Fore
SplineSet
661 378 m 256
 661 507 559 612 432 612 c 256
 305 612 203 507 203 378 c 256
 203 248 305 143 432 143 c 256
 559 143 661 248 661 378 c 256
814 380 m 256
 814 262.352966309 764.198242188 156.937973022 685.184082031 84.8159484863 c 257
 822 -52 l 257
 684 -191 l 257
 500.666381836 -7.66637468338 l 257
 478.391113281 -11.8275365829 455.44241333 -14 432 -14 c 256
 221 -14 50 162 50 380 c 256
 50 597 221 773 432 773 c 256
 643 773 814 597 814 380 c 256
EndSplineSet
Substitution2: "'c2sc' Capitals to Small Capitals in Latin lookup 0 subtable" q.sc
EndChar

StartChar: R
Encoding: 51 82 49
Width: 512
VWidth: 0
Flags: W
HStem: -3 21G<359.703 512> 629 150<202.375 290.409>
VStem: 50 152<3 266 416.026 628.974> 333 151<460.25 586.934>
LayerCount: 2
Fore
SplineSet
202 626 m 257
 202 419 l 257
 210 417 218 416 226 416 c 256
 286 416 333 463 333 523 c 256
 333 582 286 629 226 629 c 256
 218 629 210 628 202 626 c 257
202 3 m 257
 50 3 l 257
 50 779 l 257
 202 779 l 257
 210 780 218 780 226 780 c 256
 369 780 484 665 484 523 c 256
 484 410.657806396 413.023986816 315.596740723 313.255218506 280 c 257
 512 -3 l 257
 372 -3 l 257
 206.913360596 265.502990723 l 257
 205.27557373 265.632476807 203.637786865 265.795288086 202 266 c 257
 202 3 l 257
EndSplineSet
Substitution2: "'c2sc' Capitals to Small Capitals in Latin lookup 0 subtable" r.sc
EndChar

StartChar: S
Encoding: 52 83 50
Width: 512
VWidth: 0
Flags: W
LayerCount: 2
Fore
SplineSet
55 57 m 257
 130 182 l 257
 136 177 142 172 152 167 c 256
 203 137 267 154 297 202 c 256
 329 258 279 306 227 315 c 257
 101 383 17 498 101 639 c 256
 171 755 328 794 453 727 c 256
 459 721 467 718 474 712 c 257
 399 587 l 257
 393 592 387 597 377 602 c 256
 326 630 262 614 232 565 c 256
 199 510 232 429 296 418 c 257
 413 355 512 270 427 130 c 256
 358 13 201 -26 76 42 c 256
 70 48 62 51 55 57 c 257
EndSplineSet
Substitution2: "'c2sc' Capitals to Small Capitals in Latin lookup 0 subtable" s.sc
EndChar

StartChar: T
Encoding: 53 84 51
Width: 676
VWidth: 0
Flags: W
HStem: -2 21G<265 417> 614 152<53 265 417 629>
VStem: 265 152<-2 614>
LayerCount: 2
Fore
SplineSet
53 614 m 1
 53 766 l 5
 629 766 l 5
 629 614 l 1
 417 614 l 1
 417 -2 l 1
 265 -2 l 1
 265 614 l 1
 53 614 l 1
EndSplineSet
Substitution2: "'c2sc' Capitals to Small Capitals in Latin lookup 0 subtable" t.sc
EndChar

StartChar: U
Encoding: 54 85 52
Width: 669
VWidth: 0
Flags: W
HStem: 741 20G<50 217 452 619>
VStem: 53 164<172.77 761> 452 164<172.95 761>
LayerCount: 2
Fore
SplineSet
616 184 m 257
 547.931600739 -55.413201197 122.236742402 -59.4453068289 53 184 c 257
 50 761 l 257
 217 761 l 257
 217 185 l 257
 255.237263098 141.0271551 414.430937416 139.917124899 452 185 c 257
 452 761 l 257
 619 761 l 257
 616 184 l 257
EndSplineSet
Substitution2: "'c2sc' Capitals to Small Capitals in Latin lookup 0 subtable" u.sc
EndChar

StartChar: V
Encoding: 55 86 53
Width: 652
VWidth: 0
Flags: W
LayerCount: 2
Fore
SplineSet
50 769 m 257
 202 769 l 257
 326 292.220001221 l 257
 450 769 l 257
 602 769 l 257
 402 0 l 257
 250 0 l 257
 50 769 l 257
EndSplineSet
Substitution2: "'c2sc' Capitals to Small Capitals in Latin lookup 0 subtable" v.sc
EndChar

StartChar: W
Encoding: 56 87 54
Width: 1000
VWidth: 0
Flags: W
LayerCount: 2
Fore
SplineSet
50 769 m 1
 202 769 l 1
 326 292.220001221 l 1
 450 769 l 1
 451 769 l 1
 602 769 l 1
 603 769 l 1
 727 292 l 1
 851 769 l 1
 1003 769 l 1
 803 0 l 1
 651 0 l 1
 526.5 478.7025 l 1
 402 0 l 1
 250 0 l 1
 50 769 l 1
EndSplineSet
Substitution2: "'c2sc' Capitals to Small Capitals in Latin lookup 0 subtable" w.sc
EndChar

StartChar: X
Encoding: 57 88 55
Width: 724
VWidth: 0
Flags: W
HStem: -1 20G<62.6104 229 487.368 674>
LayerCount: 2
Fore
SplineSet
50 770 m 257
 236 768 l 257
 365.550445557 540.843078613 l 257
 498 769 l 257
 673 768 l 257
 452.728759766 387.98248291 l 257
 674 0 l 257
 499 -2 l 257
 362.609527588 232.506546021 l 257
 229 2 l 257
 51 -1 l 257
 274.5 384 l 257
 50 770 l 257
EndSplineSet
Substitution2: "'c2sc' Capitals to Small Capitals in Latin lookup 0 subtable" x.sc
EndChar

StartChar: Y
Encoding: 58 89 56
Width: 512
VWidth: 0
Flags: W
VStem: 193 152<1 450>
LayerCount: 2
Fore
SplineSet
193 451 m 257
 193.365081787 451 l 257
 -6 765 l 257
 146 765 l 257
 270 594 l 257
 394 765 l 257
 546 765 l 257
 346 450 l 257
 345 450 l 257
 345 1 l 257
 193 1 l 257
 193 451 l 257
EndSplineSet
Substitution2: "'c2sc' Capitals to Small Capitals in Latin lookup 0 subtable" y.sc
EndChar

StartChar: Z
Encoding: 59 90 57
Width: 783
VWidth: 0
Flags: W
HStem: 10 152<301 733> 610 152<50 480>
LayerCount: 2
Fore
SplineSet
50 10 m 257
 50 162 l 257
 480 610 l 261
 50 610 l 257
 50 762 l 257
 733 762 l 261
 733 610 l 261
 301 162 l 257
 733 162 l 261
 733 10 l 261
 50 10 l 257
EndSplineSet
Substitution2: "'c2sc' Capitals to Small Capitals in Latin lookup 0 subtable" z.sc
EndChar

StartChar: bracketleft
Encoding: 60 91 58
Width: 362
VWidth: 0
Flags: W
HStem: -80 85<144 311> 689 85<144 311>
VStem: 50 262<-80 5 689 774> 50 94<5 689>
LayerCount: 2
Fore
SplineSet
51 -80 m 6xe0
 50 -80 l 5
 50 -79 l 5
 50 773 l 1
 50 774 l 1
 51 774 l 2
 312 774 l 1xe0
 311 689 l 1
 144 689 l 1
 144 5 l 5xd0
 311 5 l 5
 312 -80 l 5
 51 -80 l 6xe0
EndSplineSet
EndChar

StartChar: backslash
Encoding: 61 92 59
Width: 691
VWidth: 0
Flags: W
LayerCount: 2
Fore
SplineSet
156 818 m 257
 641 -22 l 257
 535 -83 l 257
 50 757 l 257
 156 818 l 257
EndSplineSet
EndChar

StartChar: bracketright
Encoding: 62 93 60
Width: 362
VWidth: 0
Flags: W
HStem: -81 85<51 218> 689 85<51 218>
VStem: 50 262<-81 4 689 774> 218 94<4 689>
LayerCount: 2
Fore
SplineSet
311 -81 m 2xe0
 50 -81 l 1xe0
 51 4 l 1
 218 4 l 1
 218 689 l 1xd0
 51 689 l 1
 50 774 l 1
 311 774 l 2
 312 774 l 1
 312 773 l 1
 312 -80 l 1
 312 -81 l 1
 311 -81 l 2xe0
EndSplineSet
EndChar

StartChar: asciicircum
Encoding: 63 94 61
Width: 644
VWidth: 0
Flags: W
LayerCount: 2
Fore
SplineSet
121 283 m 1
 264 617 l 1
 265 617 l 1
 416 617 l 1
 417 617 l 1
 523 283 l 1
 371 283 l 1
 329 497 l 1
 273 283 l 1
 121 283 l 1
EndSplineSet
EndChar

StartChar: underscore
Encoding: 64 95 62
Width: 544
VWidth: 0
Flags: W
HStem: 44 152<0 544>
LayerCount: 2
Fore
SplineSet
544 196 m 261
 544 44 l 261
 0 44 l 261
 0 196 l 261
 544 196 l 261
EndSplineSet
EndChar

StartChar: grave
Encoding: 65 96 63
Width: 252
VWidth: 0
Flags: W
HStem: 516 289
VStem: -19 290
LayerCount: 2
Fore
SplineSet
163 516 m 261
 -19 698 l 261
 89 805 l 261
 271 623 l 261
 163 516 l 261
EndSplineSet
EndChar

StartChar: a
Encoding: 66 97 64
Width: 512
VWidth: 0
Flags: W
HStem: 8 151<243.471 332> 372 143<243.351 331.625>
VStem: 50 151<201.471 329.671> 332 152<1 9 159.012 371.988>
LayerCount: 2
Fore
SplineSet
332 1 m 257
 332 9 l 257
 324 8 316 8 308 8 c 256
 165 8 50 123 50 266 c 256
 50 408 165 515 308 515 c 256
 316 515 324 515 332 514 c 257
 484 514 l 257
 484 1 l 257
 332 1 l 257
332 369 m 257
 324 371 316 372 308 372 c 256
 248 372 201 325 201 266 c 256
 201 206 248 159 308 159 c 256
 316 159 324 160 332 162 c 257
 332 369 l 257
EndSplineSet
Substitution2: "'smcp' Lowercase to Small Capitals in Latin lookup 0 subtable" a.sc
Substitution2: "'smcp' Lowercase to Small Capitals in Latin lookup 0 subtable" a.sc
EndChar

StartChar: b
Encoding: 67 98 65
Width: 512
VWidth: 0
Flags: W
HStem: 4 150<202.375 290.649> 367 151<202 290.529>
VStem: 50 152<154.012 366.988 517 780> 333 151<196.066 324.529>
LayerCount: 2
Fore
SplineSet
202 780 m 257
 202 517 l 257
 210 518 218 518 226 518 c 256
 369 518 484 403 484 260 c 256
 484 118 369 3 226 3 c 256
 218 3 210 3 202 4 c 257
 50 4 l 257
 50 780 l 257
 202 780 l 257
202 157 m 257
 210 155 218 154 226 154 c 256
 286 154 333 201 333 260 c 256
 333 320 286 367 226 367 c 256
 218 367 210 366 202 364 c 257
 202 157 l 257
EndSplineSet
Substitution2: "'smcp' Lowercase to Small Capitals in Latin lookup 0 subtable" b.sc
EndChar

StartChar: c
Encoding: 68 99 66
Width: 384
VWidth: 0
Flags: W
HStem: 3 151<243.471 334> 367 151<243.471 334>
VStem: 50 151<196.066 324.529>
LayerCount: 2
Fore
SplineSet
334 4.29609966278 m 261
 325.446716309 3.43895053864 316.772979736 3 308 3 c 260
 165 3 50 118 50 260 c 260
 50 403 165 518 308 518 c 260
 316.772979736 518 325.446716309 517.561035156 334 516.703674316 c 261
 334 363.864593506 l 261
 325.673736572 365.915100098 316.96383667 367 308 367 c 260
 248 367 201 320 201 260 c 260
 201 201 248 154 308 154 c 260
 316.96383667 154 325.673736572 155.084884644 334 157.131896973 c 261
 334 4.29609966278 l 261
EndSplineSet
Substitution2: "'smcp' Lowercase to Small Capitals in Latin lookup 0 subtable" c.sc
EndChar

StartChar: d
Encoding: 69 100 67
Width: 512
VWidth: 0
Flags: W
HStem: 3 151<242.454 332> 367 151<243.471 332>
VStem: 50 151<196.066 324.529> 332 152<4 4.10351 154.011 366.989 516.896 780>
LayerCount: 2
Fore
SplineSet
332 780 m 257
 484 780 l 257
 484 4 l 257
 332 4 l 257
 332 4.10350751877 l 257
 324.095489502 3.37326002121 316.089935303 3 308 3 c 256
 165 3 50 118 50 260 c 256
 50 403 165 518 308 518 c 256
 316.089935303 518 324.095489502 517.626708984 332 516.89630127 c 257
 332 780 l 257
332 156.660415649 m 257
 332 364.336853027 l 257
 324.282409668 366.081298828 316.248718262 367 308 367 c 256
 248 367 201 320 201 260 c 256
 201 201 248 154 308 154 c 256
 316.248718262 154 324.282409668 154.918685913 332 156.660415649 c 257
EndSplineSet
Substitution2: "'smcp' Lowercase to Small Capitals in Latin lookup 0 subtable" d.sc
EndChar

StartChar: e
Encoding: 70 101 68
Width: 617
VWidth: 0
Flags: HW
HStem: 3 151<243.073 556.239> 205.32 128.941<230.301 387.264> 367 151<242.682 372.767>
VStem: 50 517<208.188 330.811>
LayerCount: 2
Fore
SplineSet
566 260 m 256
 566 241.327877436 567 223 567 208 c 257
 215.985275269 205.320495605 l 257
 234.489715576 174.456954956 268.415710449 154 308 154 c 256
 322.516235352 154 544 157 557 162 c 257
 557 6 l 257
 544 4 321.945861816 3 308 3 c 256
 165 3 50 118 50 260 c 256
 50 403 165 518 308 518 c 256
 450 518 566 403 566 260 c 256
210.680664062 296.67578125 m 261
 406.883789062 294.1015625 l 261
 382.395507812 320.966796875 347.046875 375.099609375 307.8046875 375.099609375 c 260
 269.188476562 375.099609375 234.879882812 322.025390625 210.680664062 296.67578125 c 261
EndSplineSet
Substitution2: "'smcp' Lowercase to Small Capitals in Latin lookup 0 subtable" e.sc
EndChar

StartChar: f
Encoding: 71 102 69
Width: 512
VWidth: 0
Flags: W
HStem: -3 21G<145 312> 359 152<50 146.882 312 409> 610 151<328.841 458.555>
VStem: 145 167<-3 359 511 589.119>
LayerCount: 2
Fore
SplineSet
464 752 m 1
 464 584 l 1
 445 600 420 610 393 610 c 0
 360 610 332 596 312 573 c 1
 312 511 l 1
 409 511 l 1
 409 359 l 1
 312 359 l 1
 312 -3 l 1
 145 -3 l 1
 146.882149047 359 l 1
 50 359 l 1
 50 511 l 1
 147.672443674 511 l 1
 148 574 l 1
 179 683 275 761 393 761 c 0
 418 761 441 758 464 752 c 1
EndSplineSet
Substitution2: "'smcp' Lowercase to Small Capitals in Latin lookup 0 subtable" f.sc
EndChar

StartChar: g
Encoding: 72 103 70
Width: 620
VWidth: 0
Flags: W
HStem: -205 151<129.297 399.488> 498 20G<307.408 308.151 311.478 383.333>
VStem: 50 151<197.15 323.449> 419 151<-33.1189 25.9655 195.937 324.857>
LayerCount: 2
Fore
SplineSet
309.954681396 366.982788086 m 256
 301.641906738 366.84274292 293.393859863 365.848449707 286 364 c 257
 286 364.828063965 l 257
 236.898666382 354.945495605 201 312.437438965 201 260 c 256
 201 208.436508179 236.898666382 166.038650513 286 156.169952393 c 257
 286 157 l 257
 293.393859863 155.151535034 301.641937256 154.157287598 309.954711914 154.017227173 c 257
 318.230712891 154.163162231 326.28024292 155.23399353 334 157.131896973 c 257
 334 156.169952393 l 257
 383.101318359 166.038650513 419 208.436508179 419 260 c 256
 419 312.437438965 383.101318359 354.945495605 334 364.828063965 c 257
 334 363.864593506 l 257
 326.28024292 365.76574707 318.230682373 366.83682251 309.954681396 366.982788086 c 256
308.905792236 3.00155997276 m 256
 308.603973389 3.00052022934 308.302032471 3 308 3 c 256
 306.815063477 3 305.632049561 3.00789618492 304.45123291 3.02363610268 c 256
 303.723999023 3.03060817719 302.284912109 3.03491783142 300.34942627 3.04071426392 c 256
 289.538635254 3.07309031487 263.240753174 3.15184640884 259 4 c 257
 125 13 50 123.964859009 50 260 c 256
 50 396.991333008 155.538726807 508.286254883 290.128723145 517.397338867 c 256
 295.001708984 517.795227051 299.66027832 517.930419922 304.451171875 517.976379395 c 256
 305.632171631 517.992126465 306.815124512 518 308 518 c 256
 308.302062988 518 308.604003906 517.999450684 308.905517578 517.998413086 c 257
 309.925628662 518 310.956085205 518 312 518 c 256
 454.666503906 518 569.463439941 403.535736084 569.99810791 261 c 257
 570 261 l 257
 569.998596191 260.868469238 l 258
 569.999511719 260.579101562 570 260.289611816 570 260 c 256
 570 257.823120117 569.972961426 255.652557373 569.919250488 253.488677979 c 258
 567 -18 l 257
 536 -127 443 -205 325 -205 c 256
 300 -205 143 -202 120 -196 c 257
 120 -28 l 257
 139 -44 298 -54 325 -54 c 256
 358 -54 399 -40 419 -17 c 257
 419 25.9655418396 l 257
 386.440979004 11.215256691 350.220611572 3 312 3 c 256
 310.956176758 3 309.925842285 3 308.905792236 3.00155997276 c 256
EndSplineSet
Substitution2: "'smcp' Lowercase to Small Capitals in Latin lookup 0 subtable" g.sc
EndChar

StartChar: h
Encoding: 73 104 71
Width: 597
VWidth: 0
Flags: W
HStem: 373 151<233.435 363.159>
VStem: 50 169<6 355.866 512 768> 380 167<6 352.119>
LayerCount: 2
Fore
SplineSet
50 768 m 257
 219 768 l 257
 219 512 l 257
 245 520 271 524 299 524 c 256
 417 524 513 446 544 337 c 257
 547 6 l 257
 380 6 l 257
 380 336 l 257
 360 359 332 373 299 373 c 256
 267 373 239 360 219 338 c 257
 219 6 l 257
 50 6 l 257
 50 768 l 257
EndSplineSet
Substitution2: "'smcp' Lowercase to Small Capitals in Latin lookup 0 subtable" h.sc
EndChar

StartChar: i
Encoding: 74 105 72
Width: 252
VWidth: 0
Flags: W
HStem: -2 21G<50 202> 492 20G<50 202> 630 142<50 202>
VStem: 50 152<-2 512 630 772>
LayerCount: 2
Fore
SplineSet
50 512 m 257
 202 512 l 257
 202 -2 l 257
 50 -2 l 257
 50 512 l 257
50 772 m 257
 202 772 l 257
 202 630 l 257
 50 630 l 257
 50 772 l 257
EndSplineSet
Substitution2: "'smcp' Lowercase to Small Capitals in Latin lookup 0 subtable" i.sc
EndChar

StartChar: j
Encoding: 75 106 73
Width: 419
VWidth: 0
Flags: W
HStem: -204 151<55.4451 185.159> 497 20G<202 369> 630 142<214 366>
VStem: 202 164<-32.1189 517> 214 152<630 772>
LayerCount: 2
Fore
SplineSet
50 -195 m 257xf0
 50 -27 l 257
 69 -43 94 -53 121 -53 c 256
 154 -53 182 -39 202 -16 c 257
 202 517 l 257
 369 517 l 257
 366 -17 l 257
 335 -126 239 -204 121 -204 c 256
 96 -204 73 -201 50 -195 c 257xf0
214 772 m 257xe8
 366 772 l 257
 366 630 l 257
 214 630 l 257
 214 772 l 257xe8
EndSplineSet
Substitution2: "'smcp' Lowercase to Small Capitals in Latin lookup 0 subtable" j.sc
EndChar

StartChar: k
Encoding: 76 107 74
Width: 753
VWidth: 0
Flags: HW
HStem: -2 20G<61 202 463 630.185> 754 20G<61 202>
VStem: 61 141<-2 154 317 774>
LayerCount: 2
Fore
SplineSet
61 752 m 257
 202 752 l 257
 202 317 l 257
 447 514 l 261
 640 512 l 261
 379 284 l 257
 649 -3 l 257
 463 -2 l 257
 259 226 l 257
 202 154 l 257
 202 -2 l 257
 61 -2 l 257
 61 752 l 257
EndSplineSet
Substitution2: "'smcp' Lowercase to Small Capitals in Latin lookup 0 subtable" k.sc
EndChar

StartChar: l
Encoding: 77 108 75
Width: 419
VWidth: 0
Flags: W
HStem: -3 151<233.008 363.885> 741 20G<50 217>
VStem: 53 164<166.215 761>
LayerCount: 2
Fore
SplineSet
369 6 m 257
 346.333333333 0 322.666666667 -3 298 -3 c 0
 240 -3 188.666666667 14.3333333333 144 49 c 0
 99.3333333333 83.6666666667 69 128.666666667 53 184 c 257
 50 761 l 257
 217 761 l 257
 217 185 l 1
 238.333333333 160.333333333 265.333333333 148 298 148 c 0
 324.666666667 148 348.333333333 156.666666667 369 174 c 257
 369 6 l 257
EndSplineSet
Substitution2: "'smcp' Lowercase to Small Capitals in Latin lookup 0 subtable" l.sc
EndChar

StartChar: m
Encoding: 78 109 76
Width: 924
VWidth: 0
Flags: W
HStem: 373 151<232.824 364.747 559.824 690.715>
VStem: 50 169<6 356.608 512 522> 380 166<6 355.109> 707 167<6 352.119>
LayerCount: 2
Fore
SplineSet
50 522 m 1
 219 522 l 1
 219 512 l 1
 245 520 271 524 299 524 c 0
 360.004988784 524 415.129814507 503.152149152 458.432670891 467.950979903 c 1
 546 512 l 1
 572 520 598 524 626 524 c 0
 744 524 840 446 871 337 c 1
 874 6 l 1
 707 6 l 1
 707 336 l 1
 687 359 659 373 626 373 c 0
 594 373 566 360 546 338 c 1
 546 116.333333333 l 1
 547 6 l 1
 546 6 l 1
 380 6 l 1
 377 6 l 1
 380 323.25 l 1
 380 336 l 1
 360 359 332 373 299 373 c 0
 267 373 239 360 219 338 c 1
 219 6 l 1
 50 6 l 1
 50 522 l 1
EndSplineSet
Substitution2: "'smcp' Lowercase to Small Capitals in Latin lookup 0 subtable" m.sc
EndChar

StartChar: n
Encoding: 79 110 77
Width: 597
VWidth: 0
Flags: W
HStem: 373 151<232.824 363.715>
VStem: 50 169<6 356.608 512 522> 380 167<6 352.119>
LayerCount: 2
Fore
SplineSet
50 522 m 257
 219 522 l 257
 219 512 l 257
 245 520 271 524 299 524 c 256
 417 524 513 446 544 337 c 257
 547 6 l 257
 380 6 l 257
 380 336 l 257
 360 359 332 373 299 373 c 256
 267 373 239 360 219 338 c 257
 219 6 l 257
 50 6 l 257
 50 522 l 257
EndSplineSet
Substitution2: "'smcp' Lowercase to Small Capitals in Latin lookup 0 subtable" n.sc
EndChar

StartChar: o
Encoding: 80 111 78
Width: 616
VWidth: 0
Flags: W
HStem: 3 21G<307.408 308.151 311.478 383.5> 498 20G<307.408 308.151 311.478 383.5>
VStem: 50 151<197.14 323.449> 419 151<195.844 324.753>
LayerCount: 2
Fore
SplineSet
308.905792236 3.00155997276 m 256
 308.603973389 3.00052022934 308.302032471 3 308 3 c 256
 306.815063477 3 305.632049561 3.00789618492 304.45123291 3.02363610268 c 256
 299.66192627 3.0695514679 295.0050354 3.20466184616 290.134063721 3.60223269463 c 256
 155.541519165 12.7090320587 50 123.964859009 50 260 c 256
 50 396.991333008 155.538726807 508.286254883 290.128723145 517.397338867 c 256
 295.001708984 517.795227051 299.66027832 517.930419922 304.451171875 517.976379395 c 256
 305.632171631 517.992126465 306.815124512 518 308 518 c 256
 308.302062988 518 308.604003906 517.999450684 308.905517578 517.998413086 c 257
 309.925628662 518 310.956085205 518 312 518 c 256
 455 518 570 403 570 260 c 256
 570 118 455 3 312 3 c 256
 310.956176758 3 309.925842285 3 308.905792236 3.00155997276 c 256
309.954681396 366.982788086 m 260
 301.641906738 366.84274292 293.393859863 365.848449707 286 364 c 261
 286 364.828063965 l 261
 236.898666382 354.945495605 201 312.437438965 201 260 c 260
 201 208.436508179 236.898666382 166.038650513 286 156.169952393 c 261
 286 157 l 261
 293.393859863 155.151535034 301.641937256 154.157287598 309.954711914 154.017227173 c 261
 318.230712891 154.163162231 326.28024292 155.23399353 334 157.131896973 c 261
 334 156.169952393 l 261
 383.101318359 166.038650513 419 208.436508179 419 260 c 260
 419 312.437438965 383.101318359 354.945495605 334 364.828063965 c 261
 334 363.864593506 l 261
 326.28024292 365.76574707 318.230682373 366.83682251 309.954681396 366.982788086 c 260
EndSplineSet
Substitution2: "'smcp' Lowercase to Small Capitals in Latin lookup 0 subtable" o.sc
EndChar

StartChar: p
Encoding: 81 112 79
Width: 512
VWidth: 0
Flags: W
HStem: -202 21G<50 202> -5 151<202 290.529> 359 150<202.375 290.409>
VStem: 50 152<-202 -4 146.026 358.974> 333 151<188.471 316.934>
LayerCount: 2
Fore
SplineSet
202 -202 m 257
 50 -202 l 257
 50 509 l 257
 202 509 l 257
 210 510 218 510 226 510 c 256
 369 510 484 395 484 253 c 256
 484 110 369 -5 226 -5 c 256
 218 -5 210 -5 202 -4 c 257
 202 -202 l 257
202 356 m 257
 202 149 l 257
 210 147 218 146 226 146 c 256
 286 146 333 193 333 253 c 256
 333 312 286 359 226 359 c 256
 218 359 210 358 202 356 c 257
EndSplineSet
Substitution2: "'smcp' Lowercase to Small Capitals in Latin lookup 0 subtable" p.sc
EndChar

StartChar: q
Encoding: 82 113 80
Width: 512
VWidth: 0
Flags: W
HStem: -202 21G<332 484> -5 151<243.471 332> 359 151<243.591 331.625>
VStem: 50 151<188.471 316.934> 332 152<-202 -4 146.026 358.974>
LayerCount: 2
Fore
SplineSet
332 -202 m 257
 332 -4 l 257
 324 -5 316 -5 308 -5 c 256
 165 -5 50 110 50 253 c 256
 50 395 165 510 308 510 c 256
 316 510 324 510 332 509 c 257
 484 509 l 257
 484 -202 l 257
 332 -202 l 257
332 356 m 257
 324 358 316 359 308 359 c 256
 248 359 201 312 201 253 c 256
 201 193 248 146 308 146 c 256
 316 146 324 147 332 149 c 257
 332 356 l 257
EndSplineSet
Substitution2: "'smcp' Lowercase to Small Capitals in Latin lookup 0 subtable" q.sc
EndChar

StartChar: r
Encoding: 83 114 81
Width: 587
VWidth: 0
Flags: HW
HStem: 373 151<232.824 364.013>
VStem: 50 169<6 356.608 512 522>
LayerCount: 2
Fore
SplineSet
50 555 m 261
 219 555 l 261
 219 512 l 257
 245 520 271 524 299 524 c 256
 409.273376465 524 500 443 537 345 c 257
 372 345 l 257
 372 344.316375732 l 257
 352.808166504 362.329833984 327.80947876 373 299 373 c 256
 267 373 239 360 219 338 c 257
 219 6 l 257
 50 6 l 257
 50 555 l 261
EndSplineSet
Substitution2: "'smcp' Lowercase to Small Capitals in Latin lookup 0 subtable" r.sc
EndChar

StartChar: s
Encoding: 84 115 82
Width: 508
VWidth: 0
Flags: W
LayerCount: 2
Fore
SplineSet
68.6148213609 47 m 257
 135.614821361 159 l 257
 141.614821361 153 148.614821361 150 157.614821361 147 c 256
 210.614821361 123 254.614821361 131 280.614821361 162 c 256
 309.614821361 196 258.614821361 202 204.614821361 211 c 257
 76.6148213609 262 5.61482136094 345 80.6148213609 434 c 256
 143.614821361 510 296.614821361 527 423.614821361 473 c 256
 430.614821361 470 438.614821361 468 445.614821361 462 c 257
 378.614821361 332 l 257
 372.614821361 336 365.614821361 341 356.614821361 344 c 256
 303.614821361 366 281.614821361 359 255.614821361 328 c 256
 225.614821361 293 222.614821361 286 286.614821361 275 c 257
 405.614821361 225 508.614821361 164 432.614821361 75 c 256
 370.614821361 -1 217.614821361 -21 90.6148213609 34 c 256
 83.6148213609 36 76.6148213609 41 68.6148213609 47 c 257
EndSplineSet
Substitution2: "'smcp' Lowercase to Small Capitals in Latin lookup 0 subtable" s.sc
EndChar

StartChar: t
Encoding: 85 116 83
Width: 514
VWidth: 0
Flags: W
HStem: -3 151<328.841 458.555> 364 152<50 146.274 312 409>
VStem: 146.274 165.726<168.881 364 516 712>
LayerCount: 2
Fore
SplineSet
464 6 m 257
 441 0 418 -3 393 -3 c 256
 275 -3 179 75 148 184 c 257
 147.064117432 364 l 257
 50 364 l 257
 50 516 l 257
 146.273834229 516 l 257
 145 712 l 261
 312 712 l 261
 312 516 l 257
 409 516 l 257
 409 364 l 257
 312 364 l 257
 312 185 l 257
 332 162 360 148 393 148 c 256
 420 148 445 158 464 174 c 257
 464 6 l 257
EndSplineSet
Substitution2: "'smcp' Lowercase to Small Capitals in Latin lookup 0 subtable" t.sc
EndChar

StartChar: u
Encoding: 86 117 84
Width: 598
VWidth: 0
Flags: HW
HStem: 6 151<234.841 364.565> 504 20G<51 218 379 548>
VStem: 54 164<177.881 524> 379 169<8 18 174.134 524>
LayerCount: 2
Fore
SplineSet
548 2 m 261
 379 2 l 261
 379 12 l 261
 353 4 327 0 299 0 c 260
 181 0 85 78 54 187 c 261
 51 518 l 261
 218 518 l 261
 218 188 l 261
 238 165 266 151 299 151 c 260
 331 151 359 164 379 186 c 261
 379 518 l 261
 548 518 l 261
 548 2 l 261
EndSplineSet
Substitution2: "'smcp' Lowercase to Small Capitals in Latin lookup 0 subtable" u.sc
EndChar

StartChar: v
Encoding: 87 118 85
Width: 652
VWidth: 0
Flags: W
HStem: 491 20G<50 208.757 443.243 602>
LayerCount: 2
Fore
SplineSet
50 511 m 257
 202 511 l 257
 326 144 l 257
 450 511 l 257
 602 511 l 257
 402 0 l 257
 250 0 l 257
 50 511 l 257
EndSplineSet
Substitution2: "'smcp' Lowercase to Small Capitals in Latin lookup 0 subtable" v.sc
EndChar

StartChar: w
Encoding: 88 119 86
Width: 1044
VWidth: 0
Flags: W
HStem: 491 20G<50 204.757 439.243 604.54 835.243 994>
LayerCount: 2
Fore
SplineSet
446 511 m 257
 598 511 l 257
 718 144 l 257
 842 511 l 257
 994 511 l 257
 794 0 l 257
 646 0 l 257
 522 316.820007324 l 257
 398 0 l 257
 250 0 l 257
 50 511 l 257
 198 511 l 257
 322 144 l 257
 446 511 l 257
EndSplineSet
Substitution2: "'smcp' Lowercase to Small Capitals in Latin lookup 0 subtable" w.sc
EndChar

StartChar: x
Encoding: 89 120 87
Width: 724
VWidth: 0
Flags: W
HStem: -1 20G<68.4269 229 481.563 674> 493 20G<67.4369 236 480.573 673>
LayerCount: 2
Fore
SplineSet
50 513 m 257
 236 511 l 257
 365.491546631 359.926544189 l 257
 498 512 l 257
 673 511 l 257
 452.585205078 258.317260742 l 257
 674 0 l 257
 499 -2 l 257
 362.290985107 154.804321289 l 257
 229 2 l 257
 51 -1 l 257
 274.5 255.5 l 257
 50 513 l 257
EndSplineSet
Substitution2: "'smcp' Lowercase to Small Capitals in Latin lookup 0 subtable" x.sc
EndChar

StartChar: y
Encoding: 90 121 88
Width: 652
VWidth: 0
Flags: W
HStem: 491 20G<50 227.757 450 627.185>
LayerCount: 2
Fore
SplineSet
50 511 m 257
 221 511 l 257
 345 144 l 257
 450 511 l 257
 635 514 l 257
 356 -200 l 257
 208 -204 l 257
 277.328125 0 l 257
 277 0 l 257
 50 511 l 257
EndSplineSet
Substitution2: "'smcp' Lowercase to Small Capitals in Latin lookup 0 subtable" y.sc
EndChar

StartChar: z
Encoding: 91 122 89
Width: 512
VWidth: 0
Flags: W
HStem: 10 152<301 503> 366 152<50 293>
LayerCount: 2
Fore
SplineSet
50 10 m 257
 50 162 l 257
 293 366 l 257
 50 366 l 257
 50 518 l 257
 503 518 l 257
 503 366 l 257
 301 162 l 257
 503 162 l 257
 503 10 l 257
 50 10 l 257
EndSplineSet
Substitution2: "'smcp' Lowercase to Small Capitals in Latin lookup 0 subtable" z.sc
EndChar

StartChar: braceleft
Encoding: 92 123 90
Width: 419
VWidth: 0
Flags: W
HStem: -92 121<378.218 450.506> 684 121<378.745 450.506>
VStem: 289 84<34.1962 228 485 674.933>
LayerCount: 2
Fore
SplineSet
451 -85 m 1
 440 -90 427 -92 414 -92 c 0
 354 -92 305 -29 289 58 c 1
 288 228 l 1
 179 358 l 1
 288 485 l 1
 289 655 l 1
 305 742 354 805 414 805 c 0
 427 805 440 803 451 798 c 1
 451 663 l 1
 441 676 428 684 414 684 c 0
 397 684 383 672 373 654 c 1
 374 470 l 1
 292 369 l 5
 373 228 l 1
 373 58 l 1
 383 40 397 29 414 29 c 0
 428 29 441 37 451 50 c 1
 451 -85 l 1
EndSplineSet
EndChar

StartChar: bar
Encoding: 93 124 91
Width: 252
VWidth: 0
Flags: W
VStem: 65 122<-99 871>
LayerCount: 2
Fore
SplineSet
65 871 m 257
 187 871 l 257
 187 -99 l 257
 65 -99 l 257
 65 871 l 257
EndSplineSet
EndChar

StartChar: braceright
Encoding: 94 125 92
Width: 419
VWidth: 0
Flags: W
HStem: -92 121<179.494 251.782> 684 121<179.494 251.255>
VStem: 257 84<34.1962 228 485 674.933>
LayerCount: 2
Fore
SplineSet
179 -85 m 1
 179 50 l 1
 189 37 202 29 216 29 c 0
 233 29 247 40 257 58 c 1
 257 228 l 1
 338 369 l 5
 256 470 l 1
 257 654 l 1
 247 672 233 684 216 684 c 0
 202 684 189 676 179 663 c 1
 179 798 l 1
 190 803 203 805 216 805 c 0
 276 805 325 742 341 655 c 1
 342 485 l 1
 451 358 l 1
 342 228 l 1
 341 58 l 1
 325 -29 276 -92 216 -92 c 0
 203 -92 190 -90 179 -85 c 1
EndSplineSet
EndChar

StartChar: asciitilde
Encoding: 95 126 93
Width: 644
VWidth: 0
Flags: W
HStem: 344 152.581<255.052 477.98> 400 152<101.251 233.491>
LayerCount: 2
Fore
SplineSet
549 577 m 257x80
 549 425 l 257
 548.596972099 423.50077041 492.831054688 344 421 344 c 11
 373 344 369 344 321 344 c 27x80
 257 344 232 400 168 400 c 27x40
 117 400 50 344 50 344 c 257x80
 50 496 l 257
 50 496 114 552 164 552 c 27x40
 230 552 258 497 324 497 c 27
 368 497 369 497 413 496.581054688 c 24
 482 497 549 577 549 577 c 257x80
EndSplineSet
EndChar

StartChar: .notdef
Encoding: 0 0 94
Width: 1000
Flags: W
HStem: 0 66<293 685> 205.75 71<421 497> 321.75 117.5<421 477.005> 545.75 75.5<421 476.239> 732 62<293 685>
VStem: 243 50<66 732> 421 76<205.75 276.75 321.75 394.448> 487.5 75.5<449.629 534.632> 685 48<66 732>
LayerCount: 2
Fore
SplineSet
421 205.75 m 257xfe80
 421 276.75 l 257
 497 276.75 l 257
 497 205.75 l 257
 421 205.75 l 257xfe80
421 620.75 m 1
 425.5 621.25 429.5 621.25 434 621.25 c 0
 505.5 621.25 563 563.75 563 492.75 c 0xfd80
 563 444.165039062 536.450195312 402.044921875 497 380.037109375 c 1
 497 321.75 l 1
 421 321.75 l 1
 421 364.25 l 1
 421 426.75 l 1
 421 440.75 l 1xfe80
 425 439.75 429.5 439.25 434 439.25 c 0
 464 439.25 487.5 462.75 487.5 492.75 c 0xfd80
 487.5 522.25 464 545.75 434 545.75 c 0
 429.5 545.75 425 545.25 421 544.25 c 1
 421 620.75 l 1
308 732 m 2
 300 732 293 725 293 717 c 2
 293 81 l 2
 293 73 300 66 308 66 c 2
 670 66 l 2
 678 66 685 73 685 81 c 2
 685 717 l 2
 685 725 678 732 670 732 c 2
 308 732 l 2
258 794 m 2
 718 794 l 2
 726 794 733 787 733 779 c 2
 733 15 l 2
 733 7 726 0 718 0 c 2
 258 0 l 2
 250 0 243 7 243 15 c 2
 243 779 l 2
 243 787 250 794 258 794 c 2
EndSplineSet
EndChar

StartChar: u09A4
Encoding: 370 2468 95
Width: 726
VWidth: 75
Flags: W
HStem: 4.7002 133.6<305.264 468.805> 513.479 120.821<395.987 467.023> 671 132<0 726>
VStem: 92.4004 111.399<240.829 328.876> 570.2 133.399<240.829 414.049>
LayerCount: 2
Fore
SplineSet
726 803 m 257
 726 671 l 257
 0 671 l 257
 0 803 l 257
 726 803 l 257
389.780273438 513.478515625 m 5
 389.400390625 511.099609375 395.987304688 634.29296875 395.987304688 634.29296875 c 5
 396.657226562 634.297851562 397.328125 634.299804688 398 634.299804688 c 260
 566.799804688 634.299804688 703.599609375 493.5 703.599609375 319.900390625 c 260
 703.599609375 145.5 566.799804688 4.7001953125 398 4.7001953125 c 260
 229.200195312 4.7001953125 92.400390625 145.5 92.400390625 319.900390625 c 260
 92.400390625 320.77734375 203.86328125 330.658203125 203.870117188 331.533203125 c 5
 203.823242188 329.794921875 203.799804688 328.049804688 203.799804688 326.299804688 c 260
 203.799804688 222.299804688 285.400390625 138.299804688 387 138.299804688 c 260
 488.599609375 138.299804688 570.200195312 222.299804688 570.200195312 326.299804688 c 260
 570.200195312 428.556640625 490.084960938 511.962890625 389.780273438 513.478515625 c 5
EndSplineSet
EndChar

StartChar: uni09AC
Encoding: 375 2476 96
Width: 723
VWidth: 0
Flags: HW
HStem: 671 132<0 524 670 723> 671 106<524 670>
VStem: 524 146<1 73.5 225.5 473.5 625.5 777> 524 57.5<73.5 225.5 473.5 473.5>
LayerCount: 2
Fore
SplineSet
581.5 625.5 m 261x10
 581.5 473.5 l 261
 214.5 349.5 l 261
 523.5 154.5 l 261
 523.5 2.5 l 261
 70.5 273.5 l 261
 70.5 425.5 l 261
 581.5 625.5 l 261x10
723 803 m 257x80
 723 671 l 257
 0 671 l 257
 0 803 l 257
 723 803 l 257x80
524 777 m 261x60
 670 777 l 261
 670 1 l 261
 524 1 l 261
 524 777 l 261x60
EndSplineSet
EndChar

StartChar: exclamdown
Encoding: 97 161 99
Width: 252
VWidth: 0
Flags: HW
HStem: -2 21G<50 202> 492 20G<50 202> 630 142<50 202>
VStem: 50 152<-2 512 630 772>
LayerCount: 2
Fore
SplineSet
202 550 m 257
 202 93 l 261
 50 93 l 261
 50 550 l 257
 202 550 l 257
202 810 m 257
 202 668 l 257
 50 668 l 257
 50 810 l 257
 202 810 l 257
EndSplineSet
EndChar

StartChar: sterling
Encoding: 99 163 103
Width: 772
VWidth: 0
Flags: W
HStem: -3 169.5<2.5 597.285> 359 152<50 146.882 312 409> 610 151<328.841 458.555>
VStem: 145 167<-3 359 511 589.119> 615.5 151<182.508 312.889>
LayerCount: 2
Fore
SplineSet
757.5 318.5 m 257
 763.5 295.833007812 766.5 272.166992188 766.5 247.5 c 0
 766.5 189.5 749.166992188 138.166992188 714.5 93.5 c 0
 679.833007812 48.8330078125 634.833007812 18.5 579.5 2.5 c 257
 2.5 -0.5 l 257
 2.5 166.5 l 257
 578.5 166.5 l 1
 603.166992188 187.833007812 615.5 214.833007812 615.5 247.5 c 0
 615.5 274.166992188 606.833007812 297.833007812 589.5 318.5 c 257
 757.5 318.5 l 257
464 752 m 1
 464 584 l 1
 445 600 420 610 393 610 c 0
 360 610 332 596 312 573 c 1
 312 511 l 1
 409 511 l 1
 409 359 l 1
 312 359 l 1
 312 -3 l 1
 145 -3 l 1
 146.882149047 359 l 1
 50 359 l 1
 50 511 l 1
 147.672443674 511 l 1
 148 574 l 1
 179 683 275 761 393 761 c 0
 418 761 441 758 464 752 c 1
EndSplineSet
EndChar

StartChar: uni098F
Encoding: 355 2447 104
Width: 697
VWidth: 0
Flags: HW
HStem: 610 151<310.445 440.159>
VStem: 2.5 151<182.508 312.889>
LayerCount: 2
Fore
SplineSet
305 752 m 1
 328 758 351 761 376 761 c 0
 494 761 590 683 621 574 c 1
 624 -3 l 1
 457 -3 l 1
 457 573 l 1
 437 596 409 610 376 610 c 0
 349 610 324 600 305 584 c 1
 305 752 l 1
11.5 318.5 m 257
 179.5 318.5 l 257
 162.166992188 297.833007812 153.5 274.166992188 153.5 247.5 c 0
 153.5 214.833007812 165.833007812 187.833007812 190.5 166.5 c 1
 554.5 166.5 l 257
 554.5 -0.5 l 257
 189.5 2.5 l 257
 134.166992188 18.5 89.1669921875 48.8330078125 54.5 93.5 c 0
 19.8330078125 138.166992188 2.5 189.5 2.5 247.5 c 0
 2.5 272.166992188 5.5 295.833007812 11.5 318.5 c 257
EndSplineSet
EndChar

StartChar: uni0985
Encoding: 347 2437 105
Width: 946
VWidth: 0
Flags: HW
HStem: -2 21G<751 791.187> 4.7002 125.6<314.372 481.628> 505.479 128.821<400.78 481.669> 671 132<0 773 925 946> 671 105<773 925>
VStem: 92.4004 122.399<233.067 322.113> 581.2 122.399<273.807 406.338> 773 152<105 776>
LayerCount: 2
Fore
SplineSet
946 803 m 261x37
 946 671 l 261
 0 671 l 261
 0 803 l 261
 946 803 l 261x37
400.780273438 505.478515625 m 1
 400.400390625 503.099609375 395.987304688 634.29296875 395.987304688 634.29296875 c 1
 396.657226562 634.297851562 397.328125 634.299804688 398 634.299804688 c 256
 566.799804688 634.299804688 703.599609375 493.5 703.599609375 319.900390625 c 256
 703.599609375 145.5 566.799804688 4.7001953125 398 4.7001953125 c 256
 229.200195312 4.7001953125 92.400390625 145.5 92.400390625 319.900390625 c 256
 92.400390625 320.77734375 214.86328125 322.658203125 214.870117188 323.533203125 c 1
 214.823242188 321.794921875 214.799804688 320.049804688 214.799804688 318.299804688 c 256
 214.799804688 214.299804688 296.400390625 130.299804688 398 130.299804688 c 256x67
 499.599609375 130.299804688 581.200195312 214.299804688 581.200195312 318.299804688 c 256
 581.200195312 420.556640625 501.084960938 503.962890625 400.780273438 505.478515625 c 1
697 287 m 261
 879 105 l 261
 771 -2 l 261xa7
 589 180 l 261
 697 287 l 261
773 0 m 261
 773 776 l 261
 925 776 l 261x2f
 925 0 l 261
 773 0 l 261
EndSplineSet
EndChar

StartChar: uni09BE
Encoding: 387 2494 106
Width: 436
VWidth: 0
Flags: W
HStem: -2 21G<234 386> 671 132<273 434>
VStem: 234 200<671 803> 234 152<-2 487 803 847> 273 113<671 803>
LayerCount: 2
Fore
SplineSet
434 803 m 257xe0
 434 671 l 257xe0
 273 671 l 257
 273 803 l 257xc8
 434 803 l 257xe0
232 487 m 261
 -73 785 l 261
 128 782 l 261
 340 594 l 261
 232 487 l 261
234 847 m 257xd0
 386 847 l 257
 386 -2 l 257
 234 -2 l 257
 234 847 l 257xd0
EndSplineSet
EndChar

StartChar: uni0986
Encoding: 348 2438 107
Width: 1261
VWidth: 0
Flags: HW
HStem: -2 21G<751 791.187> 4.7002 125.6<314.372 481.628> 505.479 128.821<400.78 481.669> 671 129<0 754 773 946 1100 1261> 671 105<773 925>
VStem: 92.4004 122.399<233.067 322.113> 581.2 122.399<273.807 406.338> 773 173<671 776> 1061 200<671 803> 1061 152<-2 487 803 850> 1100 113<671 803>
LayerCount: 2
Fore
SplineSet
1261 803 m 257x3780
 1261 671 l 257x3780
 1100 671 l 257
 1100 803 l 257x3720
 1261 803 l 257x3780
946 800 m 257
 946 671 l 257
 0 671 l 257
 0 800 l 257
 946 800 l 257
400.780273438 505.478515625 m 1
 400.400390625 503.099609375 395.987304688 634.29296875 395.987304688 634.29296875 c 1
 396.657226562 634.297851562 397.328125 634.299804688 398 634.299804688 c 256
 566.799804688 634.299804688 703.599609375 493.5 703.599609375 319.900390625 c 256
 703.599609375 145.5 566.799804688 4.7001953125 398 4.7001953125 c 256
 229.200195312 4.7001953125 92.400390625 145.5 92.400390625 319.900390625 c 256
 92.400390625 320.77734375 214.86328125 322.658203125 214.870117188 323.533203125 c 1
 214.823242188 321.794921875 214.799804688 320.049804688 214.799804688 318.299804688 c 256
 214.799804688 214.299804688 296.400390625 130.299804688 398 130.299804688 c 256x67
 499.599609375 130.299804688 581.200195312 214.299804688 581.200195312 318.299804688 c 256
 581.200195312 420.556640625 501.084960938 503.962890625 400.780273438 505.478515625 c 1
697 287 m 261
 879 105 l 261
 771 -2 l 261xa7
 589 180 l 261
 697 287 l 261
773 0 m 257
 773 776 l 257
 925 776 l 257x2f
 925 0 l 257
 773 0 l 257
1059 487 m 257
 754 800 l 257
 955 800 l 257x37
 1167 594 l 257
 1059 487 l 257
1061 850 m 257xa740
 1213 850 l 257
 1213 -2 l 257
 1061 -2 l 257
 1061 850 l 257xa740
EndSplineSet
EndChar

StartChar: uni09B9
Encoding: 384 2489 108
Width: 689
VWidth: 0
Flags: W
HStem: -1 21G<407 593> 671 132<0 689>
LayerCount: 2
Fore
SplineSet
236.141601562 472.20703125 m 13
 236.141601562 472.20703125 128.799804688 578.45703125 128.026367188 577.68359375 c 261
 230.65625 680.313476562 392.620117188 682.33203125 495.080078125 579.872070312 c 260
 596.706054688 478.24609375 594.452148438 316.5078125 492.18359375 213.525390625 c 260
 372.48828125 92.9951171875 221.6953125 125.170898438 130.920898438 217.127929688 c 13
 233.453125 319.66015625 l 5
 233.686523438 319.422851562 233.921875 319.186523438 234.158203125 318.950195312 c 260
 276.666992188 276.440429688 340.711914062 277.127929688 386.141601562 321.051757812 c 260
 429.873046875 366.353515625 430.990234375 430.416015625 388.306640625 473.099609375 c 260
 345.163085938 516.244140625 281.517578125 515.487304688 236.141601562 472.20703125 c 13
689 803 m 257
 689 671 l 257
 0 671 l 257
 0 803 l 257
 689 803 l 257
434 -1 m 257
 137 219 l 257
 338 221 l 257
 593 -1 l 257
 434 -1 l 257
EndSplineSet
EndChar

StartChar: uni0987
Encoding: 349 2439 109
Width: 734
VWidth: 0
Flags: HW
HStem: -1 21G<452 638> 671 132<45 352.581 588.755 734>
LayerCount: 2
Fore
SplineSet
384.090820312 688.745117188 m 261
 384.090820312 688.745117188 393.283203125 792.689453125 344.7890625 841.776367188 c 28
 313.380859375 872.592773438 312.673828125 873.299804688 281.560546875 904.412109375 c 28
 234.891601562 951.081054688 176.202148438 931.989257812 129.532226562 978.658203125 c 28
 94.177734375 1014.01367188 88.5205078125 1098.8671875 88.5205078125 1098.8671875 c 261
 176.909179688 1187.25488281 l 261
 176.909179688 1187.25488281 184.6875 1100.28125 220.749023438 1064.21875 c 28
 266.00390625 1018.96386719 323.280273438 1040.88378906 368.53515625 995.62890625 c 28
 402.475585938 961.688476562 405.3046875 958.859375 439.245117188 924.918945312 c 20
 489.2734375 874.890625 469.794921875 777.1796875 472.479492188 777.1328125 c 261
 384.090820312 688.745117188 l 261
281.141601562 472.20703125 m 9
 281.141601562 472.20703125 173.799804688 578.45703125 173.026367188 577.68359375 c 257
 275.65625 680.313476562 437.620117188 682.33203125 540.080078125 579.872070312 c 256
 641.706054688 478.24609375 639.452148438 316.5078125 537.18359375 213.525390625 c 256
 417.48828125 92.9951171875 266.6953125 125.170898438 175.920898438 217.127929688 c 9
 278.453125 319.66015625 l 1
 278.686523438 319.422851562 278.921875 319.186523438 279.158203125 318.950195312 c 256
 321.666992188 276.440429688 385.711914062 277.127929688 431.141601562 321.051757812 c 256
 474.873046875 366.353515625 475.990234375 430.416015625 433.306640625 473.099609375 c 256
 390.163085938 516.244140625 326.517578125 515.487304688 281.141601562 472.20703125 c 9
734 803 m 257
 734 671 l 257
 45 671 l 257
 45 803 l 257
 734 803 l 257
479 -1 m 257
 182 219 l 257
 383 221 l 257
 638 -1 l 257
 479 -1 l 257
EndSplineSet
EndChar

StartChar: uni09A1
Encoding: 367 2465 110
Width: 616
VWidth: 0
Flags: W
HStem: 3.00156 151.016<243.473 373.671> 366 151.998<309 441> 671 132<0 309 441 616> 671 80<309 441>
VStem: 309 132<517.998 751>
LayerCount: 2
Fore
SplineSet
309 751 m 261xd8
 441 751 l 261
 441 366 l 261
 309 366 l 261
 309 751 l 261xd8
616 803 m 261xe8
 616 671 l 261
 0 671 l 261
 0 803 l 261
 616 803 l 261xe8
310.771484375 366.965820312 m 13
 310.771484375 366.965820312 310 517.998413086 308.905517578 517.998413086 c 261
 454.047133504 517.998413086 573.452805737 404.858946303 570 260 c 260
 566.541106206 114.885635484 452.286645156 2.8001721638 308.905792236 3.00155997276 c 260
 139.039267851 3.24014864388 55.1649552713 131.789550758 56.0009765625 261 c 13
 201.004086554 261 l 5
 201.001363701 260.667152961 201 260.33381812 201 260 c 260
 201 199.88239772 246.772259079 155.081776804 309.954711914 154.017227173 c 260
 372.911202253 155.127371927 419 199.636531606 419 260 c 260
 419 321.015280879 373.461470044 365.484193346 310.771484375 366.965820312 c 13
EndSplineSet
EndChar

StartChar: uni0989
Encoding: 351 2441 111
Width: 612
VWidth: 0
Flags: HW
HStem: 3.00195 151.016<238.473 368.671> 366 151.998<304 436> 671 132<-5 436 543.755 611>
LayerCount: 2
Fore
SplineSet
299.301757812 721.96875 m 257
 299.301757812 721.96875 308.494140625 825.913085938 260 875 c 24
 228.591796875 905.81640625 227.884765625 906.5234375 196.771484375 937.635742188 c 24
 150.102539062 984.3046875 91.4130859375 965.212890625 44.7431640625 1011.88183594 c 24
 9.388671875 1047.23730469 3.7314453125 1132.09082031 3.7314453125 1132.09082031 c 257
 92.1201171875 1220.47851562 l 257
 92.1201171875 1220.47851562 99.8984375 1133.50488281 135.959960938 1097.44238281 c 24
 181.21484375 1052.1875 238.491210938 1074.10742188 283.74609375 1028.85253906 c 24
 317.686523438 994.912109375 320.515625 992.083007812 354.456054688 958.142578125 c 16
 404.484375 908.114257812 385.005859375 810.403320312 387.690429688 810.356445312 c 257
 299.301757812 721.96875 l 257
304 751 m 257
 436 751 l 257
 436 366 l 257
 304 366 l 257
 304 751 l 257
611 803 m 257
 611 671 l 257
 -5 671 l 257
 -5 803 l 257
 611 803 l 257
305.771484375 366.965820312 m 9
 305.771484375 366.965820312 305 517.998046875 303.905273438 517.998046875 c 257
 449.046875 517.998046875 568.453125 404.859375 565 260 c 256
 561.541015625 114.885742188 447.287109375 2.7998046875 303.90625 3.001953125 c 256
 134.0390625 3.240234375 50.1650390625 131.7890625 51.0009765625 261 c 9
 196.00390625 261 l 1
 196.000976562 260.666992188 196 260.333984375 196 260 c 256
 196 199.8828125 241.772460938 155.08203125 304.955078125 154.017578125 c 256
 367.911132812 155.126953125 414 199.63671875 414 260 c 256
 414 321.015625 368.461914062 365.484375 305.771484375 366.965820312 c 9
EndSplineSet
EndChar

StartChar: uni09A2
Encoding: 368 2466 112
Width: 642
VWidth: 0
Flags: W
HStem: 671 132<0 50 217 639> 671 90<50 217>
VStem: 53 164<172.77 761> 452 164<172.95 373>
LayerCount: 2
Fore
SplineSet
639 803 m 257xb0
 639 671 l 257
 0 671 l 257
 0 803 l 257
 639 803 l 257xb0
616 184 m 257
 547.931600739 -55.413201197 122.236742402 -59.4453068289 53 184 c 257
 50 761 l 257
 217 761 l 257x70
 217 185 l 257
 255.237263098 141.0271551 414.430937416 139.917124899 452 185 c 257
 452 373 l 257
 619 373 l 257
 616 184 l 257
EndSplineSet
EndChar

StartChar: uni099F
Encoding: 366 2463 113
Width: 642
VWidth: 0
Flags: W
HStem: 671 132<0 50 543.755 639> 671 90<50 217>
VStem: 53 164<172.77 761> 452 164<172.95 373>
LayerCount: 2
Fore
SplineSet
543.754882812 802.409179688 m 257x30
 455.3671875 714.020507812 l 257
 455.3203125 716.705078125 357.609375 697.2265625 307.581054688 747.254882812 c 8
 273.640625 781.1953125 270.811523438 784.024414062 236.87109375 817.96484375 c 24
 191.616210938 863.219726562 213.536132812 920.49609375 168.28125 965.750976562 c 24
 132.21875 1001.8125 45.2451171875 1009.59082031 45.2451171875 1009.59082031 c 257
 133.6328125 1097.97949219 l 257
 133.6328125 1097.97949219 218.486328125 1092.32226562 253.841796875 1056.96777344 c 24
 300.510742188 1010.29785156 281.418945312 951.608398438 328.087890625 904.939453125 c 24
 359.200195312 873.826171875 359.907226562 873.119140625 390.723632812 841.7109375 c 24
 439.810546875 793.216796875 543.754882812 802.409179688 543.754882812 802.409179688 c 257x30
639 803 m 257xb0
 639 671 l 257
 0 671 l 257
 0 803 l 257
 639 803 l 257xb0
616 184 m 257
 547.931600739 -55.413201197 122.236742402 -59.4453068289 53 184 c 257
 50 761 l 257
 217 761 l 257x70
 217 185 l 257
 255.237263098 141.0271551 414.430937416 139.917124899 452 185 c 257
 452 373 l 257
 619 373 l 257
 616 184 l 257
EndSplineSet
EndChar

StartChar: uni0995
Encoding: 359 2453 114
Width: 1095
VWidth: 0
Flags: HW
HStem: 351.5 151<716.566 845.029> 671 132<0 524 670 1088> 671 106<524 670>
VStem: 523.5 58<73.5 218.5 473.5 473.5> 524 146<1 73.5 218.5 244.5 625.5 777> 887.5 151<218.5 309.029>
LayerCount: 2
Fore
SplineSet
590.5 625.5 m 261x10
 590.5 473.5 l 261
 223.5 349.5 l 261
 532.5 154.5 l 261
 532.5 2.5 l 261
 79.5 273.5 l 261
 79.5 425.5 l 261
 590.5 625.5 l 261x10
1098 803 m 257x80
 1098 671 l 257
 0 671 l 257
 0 803 l 257
 1098 803 l 257x80
527 777 m 261x60
 673 777 l 261
 673 1 l 261
 527 1 l 261
 527 777 l 261x60
527.795898438 218.5 m 261x94
 526.938476562 227.053710938 526.5 235.7265625 526.5 244.5 c 260
 526.5 387.5 641.5 502.5 783.5 502.5 c 260
 926.5 502.5 1041.5 387.5 1041.5 244.5 c 260
 1041.5 235.7265625 1041.06054688 227.053710938 1040.20410156 218.5 c 261
 887.364257812 218.5 l 261
 889.415039062 226.826171875 890.5 235.536132812 890.5 244.5 c 260
 890.5 304.5 843.5 351.5 783.5 351.5 c 260
 724.5 351.5 677.5 304.5 677.5 244.5 c 260
 677.5 235.536132812 678.584960938 226.826171875 680.631835938 218.5 c 261
 527.795898438 218.5 l 261x94
EndSplineSet
EndChar

StartChar: uni0993
Encoding: 357 2451 115
Width: 616
VWidth: 0
Flags: W
HStem: 3 151.017<247.114 376.368> 676 6<225.316 227.624>
VStem: 50 151<198.344 364.102> 419 151<195.94 324.826 500.937 633.001>
LayerCount: 2
Fore
SplineSet
287 682 m 0
 365.104366021 686.19526104 419 643.319849683 419 565 c 256
 419 513.436523438 383.1015625 471.0390625 334 461.169921875 c 257
 334 462.131835938 l 257
 326.280273438 460.234375 318.23046875 459.163085938 309.955078125 459.017578125 c 256
 334 363.864593506 l 257
 334 364.828063965 l 257
 383.101318359 354.945495605 419 312.437438965 419 260 c 256
 419 199.640275116 372.901330704 155.127197857 309.954711914 154.017227173 c 256
 246.760359118 155.081977304 201 199.879084003 201 260 c 256
 201 404.883119019 286.961635046 362.550074527 108 412 c 257
 111.3359375 412.833984375 92.798828125 407.602539062 96.41015625 408.088867188 c 1
 67.1383262217 366.2353949 50 315.204104449 50 260 c 0
 50 123.964859009 155.541519165 12.7090320587 290.134063721 3.60223269463 c 0
 295.0050354 3.20466184616 299.66192627 3.0695514679 304.45123291 3.02363610268 c 0
 305.632049561 3.00789618492 306.815063477 3 308 3 c 0
 308.302032471 3 308.603973389 3.00155997276 308.905792236 3.00155997276 c 0
 309.925842285 3.00155997276 310.956176758 3 312 3 c 0
 455 3 570 118 570 260 c 0
 570 317.334346404 551.513465846 370.167623622 520.147722665 412.892506528 c 1
 551.513465846 455.473502878 568.886810809 508.077476926 570 565 c 0
 572.978594643 717.309350141 474.523173823 827.895976636 331 808 c 0
 279.1413532 800.811067387 218.190429688 759.309570313 207 760 c 0
 204.358392055 760.16298253 227.624023438 676.109375 225 676 c 1
 231.076171875 677.51953125 280.208007812 681.634765625 287 682 c 0
EndSplineSet
EndChar

StartChar: uni09B0
Encoding: 379 2480 116
Width: 723
VWidth: 0
Flags: HW
HStem: -2 142<161 313> 671 132<0 524 670 723> 671 106<524 670>
VStem: 161 152<-2 140> 524 146<1 73.5 225.5 473.5 625.5 777> 524 57.5<73.5 225.5 473.5 473.5>
LayerCount: 2
Fore
SplineSet
581.5 625.5 m 257x10
 581.5 473.5 l 257
 214.5 349.5 l 257
 523.5 154.5 l 257
 523.5 2.5 l 257
 70.5 273.5 l 257
 70.5 425.5 l 257
 581.5 625.5 l 257x10
723 803 m 257x80
 723 671 l 257
 0 671 l 257
 0 803 l 257
 723 803 l 257x80
524 777 m 257x60
 670 777 l 257
 670 1 l 257
 524 1 l 257
 524 777 l 257x60
94 -2 m 261x90
 94 140 l 261
 246 140 l 261
 246 -2 l 261
 94 -2 l 261x90
EndSplineSet
EndChar

StartChar: mu
Encoding: 114 181 119
Width: 598
VWidth: 0
Flags: W
HStem: 6 151<234.435 364.159> 504 20G<51 220 381 548>
VStem: 51 169<-189 18 174.134 524> 381 164<177.881 524>
LayerCount: 2
Fore
SplineSet
51 -189 m 261
 51 524 l 257
 220 524 l 257
 220 192 l 257
 240 170 268 157 300 157 c 256
 333 157 361 171 381 194 c 257
 381 524 l 257
 548 524 l 257
 545 193 l 257
 514 84 418 6 300 6 c 256
 272 6 246 10 220 18 c 257
 220 -189 l 261
 51 -189 l 261
EndSplineSet
EndChar

StartChar: guillemotleft
Encoding: 106 171 120
Width: 1282
VWidth: 0
Flags: W
LayerCount: 2
Fore
SplineSet
1194 663 m 1
 1194 511 l 1
 787.895507812 337.71875 l 1
 1194 158 l 1
 1194 6 l 1
 650 250 l 1
 650 251 l 1
 650 402 l 1
 650 403 l 1
 1194 663 l 1
594 663 m 1
 594 511 l 1
 187.895507812 337.71875 l 1
 594 158 l 1
 594 6 l 1
 50 250 l 1
 50 251 l 1
 50 402 l 1
 50 403 l 1
 594 663 l 1
EndSplineSet
EndChar

StartChar: guillemotright
Encoding: 120 187 121
Width: 1282
VWidth: 0
Flags: W
LayerCount: 2
Fore
SplineSet
50 663 m 1
 594 403 l 1
 594 402 l 1
 594 251 l 1
 594 250 l 1
 50 6 l 1
 50 158 l 1
 456.104492188 337.71875 l 1
 50 511 l 1
 50 663 l 1
650 663 m 1
 1194 403 l 1
 1194 402 l 1
 1194 251 l 1
 1194 250 l 1
 650 6 l 1
 650 158 l 1
 1056.10449219 337.71875 l 1
 650 511 l 1
 650 663 l 1
EndSplineSet
EndChar

StartChar: cent
Encoding: 98 162 122
Width: 384
VWidth: 0
Flags: W
HStem: 3 151<287.13 334> 367 151<287.13 334>
VStem: 50 151<196.066 324.529> 238 47<-99 700>
LayerCount: 2
Fore
SplineSet
238 700 m 261
 285 700 l 261
 285 -99 l 257
 238 -99 l 257
 238 700 l 261
334 4.29609966278 m 257
 325.446716309 3.43895053864 316.772979736 3 308 3 c 256
 165 3 50 118 50 260 c 256
 50 403 165 518 308 518 c 256
 316.772979736 518 325.446716309 517.561035156 334 516.703674316 c 257
 334 363.864593506 l 257
 325.673736572 365.915100098 316.96383667 367 308 367 c 256
 248 367 201 320 201 260 c 256
 201 201 248 154 308 154 c 256
 316.96383667 154 325.673736572 155.084884644 334 157.131896973 c 257
 334 4.29609966278 l 257
EndSplineSet
EndChar

StartChar: yen
Encoding: 100 165 123
Width: 612
VWidth: 0
Flags: W
HStem: 196 62<36 580> 334 62<36 580>
VStem: 229 152<1 450>
LayerCount: 2
Fore
SplineSet
580 396 m 257
 580 334 l 257
 36 334 l 257
 36 396 l 257
 580 396 l 257
580 258 m 257
 580 196 l 257
 36 196 l 257
 36 258 l 257
 580 258 l 257
229 451 m 257
 229.365234375 451 l 257
 30 765 l 257
 182 765 l 257
 306 594 l 257
 430 765 l 257
 582 765 l 257
 382 450 l 257
 381 450 l 257
 381 1 l 257
 229 1 l 257
 229 451 l 257
EndSplineSet
EndChar

StartChar: questiondown
Encoding: 124 191 124
Width: 384
VWidth: 0
Flags: W
HStem: -2 151<243.471 334> 687 142<182 334>
VStem: 50 151<191.066 318.017> 182 152<467.009 597 687 829>
LayerCount: 2
Fore
SplineSet
334 829 m 257xd0
 334 687 l 257
 182 687 l 257
 182 829 l 257
 334 829 l 257xd0
334 -1 m 1
 325 -2 317 -2 308 -2 c 0
 165 -2 50 113 50 255 c 0xe0
 50 352.168945312 103.098632812 436.41015625 182 480.426757812 c 1
 182 597 l 1
 334 597 l 1
 334 512 l 1
 334 387 l 1
 334 359 l 1xd0
 326 361 317 362 308 362 c 0
 248 362 201 315 201 255 c 0xe0
 201 196 248 149 308 149 c 0
 317 149 326 150 334 152 c 1
 334 -1 l 1
EndSplineSet
EndChar

StartChar: plusminus
Encoding: 110 177 125
Width: 644
VWidth: 0
Flags: W
HStem: -30 152<50 594> 344 152<50 594>
VStem: 246 152<149 692>
LayerCount: 2
Fore
SplineSet
594 122 m 257
 594 -30 l 257
 50 -30 l 257
 50 122 l 257
 594 122 l 257
594 496 m 257
 594 344 l 257
 50 344 l 257
 50 496 l 257
 594 496 l 257
246 692 m 257
 398 692 l 257
 398 149 l 257
 246 149 l 257
 246 692 l 257
EndSplineSet
EndChar

StartChar: gravecomb
Encoding: 322 768 127
Width: 0
VWidth: 0
GlyphClass: 4
Flags: W
HStem: 516 289
VStem: -145 290
LayerCount: 2
Fore
SplineSet
37 516 m 261
 -145 698 l 261
 -37 805 l 261
 145 623 l 261
 37 516 l 261
EndSplineSet
EndChar

StartChar: acutecomb
Encoding: 323 769 128
Width: 0
VWidth: 0
GlyphClass: 4
Flags: W
HStem: 516 289
VStem: -145 290
LayerCount: 2
Fore
SplineSet
-37 516 m 261
 -145 623 l 261
 37 805 l 261
 145 698 l 261
 -37 516 l 261
EndSplineSet
EndChar

StartChar: uni0302
Encoding: 324 770 129
Width: 0
VWidth: 0
GlyphClass: 4
Flags: W
HStem: 766.5 167<-29 -24.5 24.5 47.5>
VStem: -100.5 201
LayerCount: 2
Fore
SplineSet
-100.5 766.5 m 1
 -29 933.5 l 1
 -28.5 933.5 l 1
 47 933.5 l 1
 47.5 933.5 l 1
 100.5 766.5 l 1
 24.5 766.5 l 1
 3.5 873.5 l 1
 -24.5 766.5 l 1
 -100.5 766.5 l 1
EndSplineSet
EndChar

StartChar: tildecomb
Encoding: 325 771 130
Width: 0
VWidth: 0
GlyphClass: 4
Flags: W
HStem: 802.25 76.291<-40.2727 104.864> 830.25 76<-116.384 -14.504>
VStem: -124.75 249.5<754.486 802.25>
LayerCount: 2
Fore
SplineSet
124.75 918.75 m 257xa0
 124.75 842.75 l 257
 124.548828125 842 96.666015625 802.25 60.75 802.25 c 11
 36.75 802.25 34.75 802.25 10.75 802.25 c 27xa0
 -21.25 802.25 -33.75 830.25 -65.75 830.25 c 27x60
 -91.25 830.25 -124.75 802.25 -124.75 802.25 c 257xa0
 -124.75 878.25 l 257
 -124.75 878.25 -92.75 906.25 -67.75 906.25 c 27x60
 -34.75 906.25 -20.75 878.75 12.25 878.75 c 27
 34.25 878.75 34.75 878.75 56.75 878.541015625 c 24
 91.25 878.75 124.75 918.75 124.75 918.75 c 257xa0
EndSplineSet
EndChar

StartChar: uni0306
Encoding: 327 774 131
Width: 0
VWidth: 0
GlyphClass: 4
Flags: HW
HStem: 807.75 52<-90.3917 88.2935>
VStem: -197.25 14.5<965.212 1021.98> 183.75 12.5<969.659 1027.14>
LayerCount: 2
Fore
SplineSet
128.5 931.5 m 257
 128.5 927.5 128.5 922.5 128.5 918.5 c 256
 128.5 846.5 71.5 789.5 0.5 789.5 c 256
 -71.5 789.5 -128.5 846.5 -128.5 918.5 c 256
 -128.5 922.5 -128.5 927.5 -128.5 931.5 c 257
 -51.5 931.5 l 257
 -52.5 927.5 -53.5 922.5 -53.5 918.5 c 256
 -53.5 888.5 -29.5 864.5 0.5 864.5 c 256
 30.5 864.5 53.5 888.5 53.5 918.5 c 256
 53.5 922.5 52.5 927.5 51.5 931.5 c 257
 128.5 931.5 l 257
EndSplineSet
EndChar

StartChar: uni0304
Encoding: 326 772 132
Width: 0
VWidth: 0
GlyphClass: 4
Flags: W
HStem: 782 76<-136 136>
VStem: -136 272<782 858>
LayerCount: 2
Fore
SplineSet
136 858 m 261
 136 782 l 261
 -136 782 l 261
 -136 858 l 261
 136 858 l 261
EndSplineSet
EndChar

StartChar: dieresis
Encoding: 103 168 133
Width: 452
VWidth: 0
Flags: W
HStem: -2 142<50 202 250 402>
VStem: 50 152<-2 140> 250 152<-2 140>
LayerCount: 2
Fore
SplineSet
250 -2 m 257
 250 140 l 257
 402 140 l 257
 402 -2 l 257
 250 -2 l 257
50 -2 m 257
 50 140 l 257
 202 140 l 257
 202 -2 l 257
 50 -2 l 257
EndSplineSet
EndChar

StartChar: uni0308
Encoding: 329 776 135
Width: 0
VWidth: 0
GlyphClass: 4
Flags: W
HStem: 498 142<-176 -24 24 176>
VStem: -176 152<498 640> 24 152<498 640>
LayerCount: 2
Fore
SplineSet
24 498 m 257
 24 640 l 257
 176 640 l 257
 176 498 l 257
 24 498 l 257
-176 498 m 257
 -176 640 l 257
 -24 640 l 257
 -24 498 l 257
 -176 498 l 257
EndSplineSet
EndChar

StartChar: uni0307
Encoding: 328 775 136
Width: 0
VWidth: 0
GlyphClass: 4
Flags: W
HStem: 498 142<-76 76>
VStem: -76 152<498 640>
LayerCount: 2
Fore
SplineSet
-76 498 m 257
 -76 640 l 257
 76 640 l 257
 76 498 l 257
 -76 498 l 257
EndSplineSet
EndChar

StartChar: hookabovecomb
Encoding: 330 777 137
Width: 0
VWidth: 0
GlyphClass: 4
Flags: W
HStem: 432 77<-71 -13.343> 614 75<-71 -16.3337>
VStem: -4 75<518.071 602.495>
LayerCount: 2
Fore
SplineSet
-71 432 m 261
 -71 509 l 261
 -67 508 -62 507 -58 507 c 260
 -28 507 -4 530 -4 560 c 260
 -4 590 -28 614 -58 614 c 260
 -62 614 -67 613 -71 612 c 261
 -71 689 l 261
 -67 689 -62 689 -58 689 c 260
 14 689 71 632 71 560 c 260
 71 489 14 432 -58 432 c 260
 -62 432 -67 432 -71 432 c 261
EndSplineSet
EndChar

StartChar: uni030A
Encoding: 331 778 138
Width: 0
VWidth: 0
GlyphClass: 4
Flags: W
HStem: 432 75<-11.8125 11.8125> 614 75<-11.8125 11.8125>
VStem: -130 76<517.334 603.111> 54 76<517.933 602.698>
LayerCount: 2
Fore
SplineSet
-1 432 m 260
 -2 432 -2 432 -3 432 c 260
 -5 432 -8 432 -10 432 c 260
 -77 437 -130 492 -130 560 c 260
 -130 628 -77 684 -10 689 c 260
 -8 689 -5 689 -3 689 c 260
 -2 689 -2 689 -1 689 c 260
 0 689 0 689 1 689 c 260
 73 689 130 632 130 560 c 260
 130 489 73 432 1 432 c 260
 0 432 0 432 -1 432 c 260
0 614 m 260
 -4 614 -8 613 -12 612 c 261
 -12 613 l 261
 -37 608 -54 586 -54 560 c 260
 -54 534 -37 513 -12 508 c 261
 -12 509 l 261
 -8 508 -4 507 0 507 c 261
 4 507 8 508 12 509 c 261
 12 508 l 261
 37 513 54 534 54 560 c 260
 54 586 37 608 12 613 c 261
 12 612 l 261
 8 613 4 614 0 614 c 260
EndSplineSet
EndChar

StartChar: uni030B
Encoding: 332 779 139
Width: 0
VWidth: 0
GlyphClass: 4
Flags: W
HStem: 514 289
LayerCount: 2
Fore
SplineSet
106 514 m 257
 -2 621 l 257
 180 803 l 257
 288 696 l 257
 106 514 l 257
-180 516 m 257
 -288 623 l 257
 -106 805 l 257
 2 698 l 257
 -180 516 l 257
EndSplineSet
EndChar

StartChar: uni030C
Encoding: 333 780 140
Width: 0
VWidth: 0
GlyphClass: 4
Flags: W
HStem: 766 168<-29 -24 24 48>
VStem: -100 200
LayerCount: 2
Fore
SplineSet
-100 934 m 1
 -24 934 l 1
 4 826 l 1
 24 934 l 1
 100 934 l 1
 48 766 l 1
 47 766 l 1
 -28 766 l 1
 -29 766 l 1
 -100 934 l 1
EndSplineSet
EndChar

StartChar: uni030F
Encoding: 334 783 141
Width: 0
VWidth: 0
GlyphClass: 4
Flags: W
HStem: 514 289
LayerCount: 2
Fore
SplineSet
-106 514 m 257
 -288 696 l 257
 -180 803 l 257
 2 621 l 257
 -106 514 l 257
180 516 m 257
 -2 698 l 257
 106 805 l 257
 288 623 l 257
 180 516 l 257
EndSplineSet
EndChar

StartChar: dotbelowcomb
Encoding: 337 803 142
Width: 0
VWidth: 0
GlyphClass: 4
Flags: W
HStem: -2 142<-76 76>
VStem: -76 152<-2 140>
LayerCount: 2
Fore
SplineSet
-76 -2 m 257
 -76 140 l 257
 76 140 l 257
 76 -2 l 257
 -76 -2 l 257
EndSplineSet
EndChar

StartChar: uni0328
Encoding: 340 808 143
Width: 0
VWidth: 0
GlyphClass: 4
Flags: W
HStem: -68 75<16.3337 71> 114 75<16.3337 71>
VStem: -71 75<18.0713 102.495>
LayerCount: 2
Fore
SplineSet
71 -68 m 261
 67 -68 62 -68 58 -68 c 260
 -14 -68 -71 -11 -71 60 c 260
 -71 132 -14 189 58 189 c 260
 62 189 67 189 71 189 c 261
 71 112 l 261
 67 113 62 114 58 114 c 260
 28 114 4 90 4 60 c 260
 4 30 28 7 58 7 c 260
 62 7 67 8 71 9 c 261
 71 -68 l 261
EndSplineSet
EndChar

StartChar: uni0327
Encoding: 339 807 144
Width: 0
VWidth: 0
GlyphClass: 4
Flags: W
HStem: -68 77<-71 -13.343> 114 75<-71 -16.3337>
VStem: -4 75<18.0713 102.495>
LayerCount: 2
Fore
SplineSet
-71 -68 m 261
 -71 9 l 261
 -67 8 -62 7 -58 7 c 260
 -28 7 -4 30 -4 60 c 260
 -4 90 -28 114 -58 114 c 260
 -62 114 -67 113 -71 112 c 261
 -71 189 l 261
 -67 189 -62 189 -58 189 c 260
 14 189 71 132 71 60 c 260
 71 -11 14 -68 -58 -68 c 260
 -62 -68 -67 -68 -71 -68 c 261
EndSplineSet
EndChar

StartChar: dotlessi
Encoding: 238 305 145
Width: 252
VWidth: 0
Flags: W
HStem: -2 21G<50 202> 492 20G<50 202>
VStem: 50 152<-2 512>
LayerCount: 2
Fore
SplineSet
50 512 m 257
 202 512 l 257
 202 -2 l 257
 50 -2 l 257
 50 512 l 257
EndSplineSet
EndChar

StartChar: uni0313
Encoding: 336 787 292
Width: 0
VWidth: 400
GlyphClass: 4
Flags: W
HStem: 266 274<-33.2324 19.1818>
VStem: -76 152<398 540>
LayerCount: 2
Fore
SplineSet
-76 398 m 5
 -76 540 l 5
 76 540 l 5
 76 398 l 5
 16 266 l 5
 -42 270 l 5
 -33.232421875 398 l 5
 -76 398 l 5
EndSplineSet
EndChar

StartChar: uni0312
Encoding: 335 786 293
Width: 0
VWidth: 400
GlyphClass: 4
Flags: W
HStem: 266 274<-19.1818 33.2324>
VStem: -76 152<266 408>
LayerCount: 2
Fore
SplineSet
76 408 m 5
 76 266 l 5
 -76 266 l 5
 -76 408 l 5
 -16 540 l 5
 42 536 l 5
 33.232421875 408 l 5
 76 408 l 5
EndSplineSet
EndChar

StartChar: uni0326
Encoding: 338 806 297
Width: 0
VWidth: 100
GlyphClass: 4
Flags: W
HStem: -34 274<-33.2324 19.1818>
VStem: -76 152<98 240>
LayerCount: 2
Fore
SplineSet
-76 98 m 5
 -76 240 l 5
 76 240 l 5
 76 98 l 5
 16 -34 l 5
 -42 -30 l 5
 -33.232421875 98 l 5
 -76 98 l 5
EndSplineSet
EndChar

StartChar: multiply
Encoding: 148 215 308
Width: 724
VWidth: 200
Flags: HW
HStem: 199 20G<68.4269 229 481.563 674> 693 20G<67.4369 236 480.573 673>
LayerCount: 2
Fore
SplineSet
50 713 m 257
 236 711 l 257
 365.491210938 559.926757812 l 257
 498 712 l 257
 673 711 l 257
 452.584960938 458.317382812 l 257
 674 200 l 257
 499 198 l 257
 362.291015625 354.8046875 l 257
 229 202 l 257
 51 199 l 257
 274.5 455.5 l 257
 50 713 l 257
EndSplineSet
EndChar

StartChar: periodcentered
Encoding: 116 183 309
Width: 252
VWidth: 400
Flags: HW
HStem: 398 142<50 202>
VStem: 50 152<398 540>
LayerCount: 2
Fore
SplineSet
50 398 m 257
 50 540 l 257
 202 540 l 257
 202 398 l 257
 50 398 l 257
EndSplineSet
EndChar

StartChar: registered
Encoding: 107 174 310
Width: 864
VWidth: 0
Flags: HW
LayerCount: 2
Fore
SplineSet
395.185546875 472.629882812 m 257
 395.185546875 397.178710938 l 257
 398.1015625 396.44921875 401.017578125 396.083984375 403.932617188 396.083984375 c 256
 425.802734375 396.083984375 442.935546875 413.216796875 442.935546875 435.0859375 c 256
 442.935546875 456.591796875 425.802734375 473.72265625 403.932617188 473.72265625 c 256
 401.017578125 473.72265625 398.1015625 473.358398438 395.185546875 472.629882812 c 257
395.185546875 245.545898438 m 257
 339.78125 245.545898438 l 257
 339.78125 528.3984375 l 257
 395.185546875 528.3984375 l 257
 398.1015625 528.762695312 401.017578125 528.762695312 403.932617188 528.762695312 c 256
 456.057617188 528.762695312 497.974609375 486.845703125 497.974609375 435.0859375 c 256
 497.974609375 394.137695312 472.103515625 359.48828125 435.73828125 346.512695312 c 257
 508.1796875 243.359375 l 257
 457.150390625 243.359375 l 257
 396.977539062 341.228515625 l 257
 396.37890625 341.275390625 395.783203125 341.334960938 395.185546875 341.409179688 c 257
 395.185546875 245.545898438 l 257
710.477539062 379.865234375 m 260
 710.477539062 220.942382812 585.819335938 92.638671875 432 92.638671875 c 260
 278.180664062 92.638671875 153.522460938 220.942382812 153.522460938 379.865234375 c 260
 153.522460938 538.057617188 278.180664062 666.361328125 432 666.361328125 c 260
 585.819335938 666.361328125 710.477539062 538.057617188 710.477539062 379.865234375 c 260
666.760742188 378.5546875 m 260
 666.760742188 510.799804688 562.1953125 618.44140625 432 618.44140625 c 260
 301.8046875 618.44140625 197.239257812 510.799804688 197.239257812 378.5546875 c 260
 197.239257812 245.284179688 301.8046875 137.642578125 432 137.642578125 c 260
 562.1953125 137.642578125 666.760742188 245.284179688 666.760742188 378.5546875 c 260
EndSplineSet
EndChar

StartChar: copyright
Encoding: 104 169 311
Width: 864
VWidth: 0
Flags: HW
LayerCount: 2
Fore
SplineSet
493.25 195.623046875 m 257
 487.904296875 195.086914062 482.483398438 194.8125 477 194.8125 c 256
 387.625 194.8125 315.75 266.6875 315.75 355.4375 c 256
 315.75 444.8125 387.625 516.6875 477 516.6875 c 256
 482.483398438 516.6875 487.904296875 516.413085938 493.25 515.876953125 c 257
 493.25 420.353515625 l 257
 488.045898438 421.634765625 482.6015625 422.3125 477 422.3125 c 256
 439.5 422.3125 410.125 392.9375 410.125 355.4375 c 256
 410.125 318.5625 439.5 289.1875 477 289.1875 c 256
 482.6015625 289.1875 488.045898438 289.865234375 493.25 291.145507812 c 257
 493.25 195.623046875 l 257
780.096679688 379.95703125 m 256
 780.096679688 181.302734375 624.274414062 20.923828125 432 20.923828125 c 256
 239.725585938 20.923828125 83.9033203125 181.302734375 83.9033203125 379.95703125 c 256
 83.9033203125 577.697265625 239.725585938 738.076171875 432 738.076171875 c 256
 624.274414062 738.076171875 780.096679688 577.697265625 780.096679688 379.95703125 c 256
725.451171875 378.318359375 m 256
 725.451171875 543.625 594.744140625 678.176757812 432 678.176757812 c 256
 269.255859375 678.176757812 138.548828125 543.625 138.548828125 378.318359375 c 256
 138.548828125 211.73046875 269.255859375 77.177734375 432 77.177734375 c 256
 594.744140625 77.177734375 725.451171875 211.73046875 725.451171875 378.318359375 c 256
EndSplineSet
EndChar

StartChar: brokenbar
Encoding: 101 166 312
Width: 252
VWidth: 0
Flags: HW
HStem: -2 21G<50 202> 492 20G<50 202> 630 142<50 202>
VStem: 50 152<-2 512 630 772>
LayerCount: 2
Fore
SplineSet
202 370 m 257
 202 -30 l 257
 50 -30 l 257
 50 370 l 257
 202 370 l 257
202 833 m 257
 202 459 l 257
 50 459 l 257
 50 833 l 257
 202 833 l 257
EndSplineSet
EndChar

StartChar: section
Encoding: 102 167 313
Width: 512
VWidth: 0
Flags: HW
LayerCount: 2
Fore
SplineSet
-25 108 m 261
 50 233 l 261
 56 228 62 223 72 218 c 260
 123 188 187 205 217 253 c 260
 249 309 199 357 147 366 c 261
 21 434 -63 549 21 690 c 260
 91 806 248 845 373 778 c 260
 379 772 387 769 394 763 c 261
 319 638 l 261
 313 643 307 648 297 653 c 260
 246 681 182 665 152 616 c 260
 119 561 152 480 216 469 c 261
 333 406 432 321 347 181 c 260
 278 64 121 25 -4 93 c 260
 -10 99 -18 102 -25 108 c 261
55 457 m 257
 130 582 l 257
 136 577 142 572 152 567 c 256
 203 537 267 554 297 602 c 256
 329 658 279 706 227 715 c 257
 101 783 17 898 101 1039 c 256
 171 1155 328 1194 453 1127 c 256
 459 1121 467 1118 474 1112 c 257
 399 987 l 257
 393 992 387 997 377 1002 c 256
 326 1030 262 1014 232 965 c 256
 199 910 232 829 296 818 c 257
 413 755 512 670 427 530 c 256
 358 413 201 374 76 442 c 256
 70 448 62 451 55 457 c 257
EndSplineSet
EndChar

StartChar: paragraph
Encoding: 115 182 314
Width: 776
VWidth: 0
Flags: HW
HStem: 265 151<243.471 332> 629 150<243.591 331.625>
VStem: 332 152<3 266 416.026 628.974> 50 151<458.471 586.934>
LayerCount: 2
Fore
SplineSet
550 774 m 257
 702 774 l 257
 702 -2 l 257
 550 -2 l 257
 550 774 l 257
332 3 m 257
 332 266 l 257
 324 265 316 265 308 265 c 256
 165 265 50 380 50 523 c 256
 50 665 165 780 308 780 c 256
 316 780 324 780 332 779 c 257
 484 779 l 257
 484 3 l 257
 332 3 l 257
EndSplineSet
EndChar

StartChar: Thorn
Encoding: 155 222 315
Width: 512
VWidth: 0
Flags: HW
HStem: -202 21G<50 202> -5 151<202 290.529> 359 150<202.375 290.409>
VStem: 50 152<-202 -4 146.026 358.974> 333 151<188.471 316.934>
LayerCount: 2
Fore
SplineSet
202 3 m 261
 50 3 l 261
 50 903 l 261
 197 903 l 5
 202 714 l 261
 210 715 218 715 226 715 c 260
 369 715 484 600 484 458 c 260
 484 315 369 200 226 200 c 260
 218 200 210 200 202 201 c 261
 202 3 l 261
202 561 m 261
 202 354 l 261
 210 352 218 351 226 351 c 260
 286 351 333 398 333 458 c 260
 333 517 286 564 226 564 c 260
 218 564 210 563 202 561 c 261
EndSplineSet
EndChar

StartChar: germandbls
Encoding: 156 223 316
Width: 671
VWidth: 0
Flags: HW
LayerCount: 2
Fore
SplineSet
264.615234375 47 m 1
 331.615234375 159 l 1
 337.615234375 153 344.615234375 150 353.615234375 147 c 0
 406.615234375 123 450.615234375 131 476.615234375 162 c 0
 505.615234375 196 454.615234375 202 400.615234375 211 c 1
 272.615234375 262 201.615234375 289 276.615234375 378 c 0
 337.99609375 452.046875 396.775390625 493.022460938 396.775390625 493.022460938 c 0
 397.504882812 493.147460938 398.256835938 493 399 493 c 0
 459 493 506 540 506 600 c 0
 506 664.255859375 241.541992188 676.190429688 199 627 c 1
 199 2 l 1
 32 2 l 1
 35 628 l 1
 51 683.333007812 81.3330078125 728.333007812 126 763 c 0
 265.345703125 871.1484375 657 800.984375 657 600 c 0
 657 227.000976562 556.249023438 497.412109375 441 360 c 0
 411 325 418.615234375 286 482.615234375 275 c 1
 601.615234375 225 704.615234375 164 628.615234375 75 c 0
 566.615234375 -1 413.615234375 -21 286.615234375 34 c 0
 279.615234375 36 272.615234375 41 264.615234375 47 c 1
EndSplineSet
EndChar

StartChar: thorn
Encoding: 187 254 317
Width: 512
VWidth: 0
Flags: HW
HStem: -202 21G<50 202> -5 151<202 290.529> 359 150<202.375 290.409>
VStem: 50 152<-202 -4 146.026 358.974> 333 151<188.471 316.934>
LayerCount: 2
Fore
SplineSet
202 -199 m 261
 50 -199 l 261
 50 701 l 261
 197 701 l 5
 202 512 l 261
 210 513 218 513 226 513 c 260
 369 513 484 398 484 256 c 260
 484 113 369 -2 226 -2 c 260
 218 -2 210 -2 202 -1 c 261
 202 -199 l 261
202 359 m 261
 202 152 l 261
 210 150 218 149 226 149 c 260
 286 149 333 196 333 256 c 260
 333 315 286 362 226 362 c 260
 218 362 210 361 202 359 c 261
EndSplineSet
EndChar

StartChar: AE
Encoding: 131 198 318
Width: 1024
VWidth: 0
Flags: HW
HStem: -3 152<558 973> 333 152<558 865> 626 152<558 973>
VStem: 406 568<-3 149 626 778> 406 152<149 333 485 626>
LayerCount: 2
Fore
SplineSet
412.827148438 367 m 257
 400.200195312 658.223632812 l 257
 314.448242188 367 l 257
 412.827148438 367 l 257
865 485 m 1
 866 333 l 1
 558 333 l 1
 558 149 l 1
 973 149 l 1
 974 -3 l 1
 407 -3 l 1
 406.993164062 -2 l 1
 406 -2 l 1
 406 227 l 1
 278.038085938 227 l 1
 202 0 l 1
 50 0 l 1
 250 778 l 1
 973 778 l 1
 974 626 l 1
 558 626 l 1
 558 485 l 1
 865 485 l 1
EndSplineSet
EndChar

StartChar: Eth
Encoding: 141 208 319
Width: 690
VWidth: 0
Flags: HW
HStem: -13.9789 157.014<262 347.489> 611.965 161.035<262 353.477>
VStem: 110 152<-14 -13.9789 143.035 611.965> 487 153<282.064 475.736>
LayerCount: 2
Fore
SplineSet
262 143.03515625 m 1
 387.134765625 145.211914062 487 249.368164062 487 378 c 0
 487 505.642578125 387.134765625 609.788085938 262 611.96484375 c 1
 262 496 l 1
 321 496 l 1
 321 344 l 1
 262 344 l 1
 262 143.03515625 l 1
110 768 m 1
 159.62109375 760.911132812 208.3828125 773 258 773 c 0
 469 773 640 597 640 380 c 0
 640 163.37890625 471.157226562 -11.771484375 262 -13.978515625 c 2
 110 -14 l 1
 110 344 l 1
 50 344 l 1
 50 496 l 1
 110 496 l 1
 110 768 l 1
EndSplineSet
EndChar

StartChar: Oslash
Encoding: 149 216 320
Width: 864
VWidth: 0
Flags: HW
HStem: -14 157<337.027 526.973> 612 161<337.027 526.973>
VStem: 50 153<278.712 478.774> 661 153<278.712 478.774>
LayerCount: 2
Fore
SplineSet
814 380 m 0
 814 162 643 -14 432 -14 c 0
 383.677326913 -14 337.452612753 -4.76898072303 294.899393872 12.0834862942 c 1
 240 -83 l 1
 134 -22 l 1
 190.00199535 74.9931465863 l 1
 104.530904967 147.181232094 50 256.893838244 50 380 c 0
 50 597 221 773 432 773 c 0
 483.051899881 773 531.762166392 762.696813173 576.275305098 744.002590273 c 1
 619 818 l 1
 725 757 l 1
 679.946246068 678.968756077 l 1
 761.990985758 606.878654225 814 499.674325896 814 380 c 0
494.917552918 603.094318457 m 1
 474.945697396 608.894077778 453.842601343 612 432 612 c 0
 305 612 203 507 203 378 c 0
 203 313.299989375 228.265166878 254.792421611 269.303151047 212.339478101 c 1
 494.917552918 603.094318457 l 1
598.806473053 538.438015185 m 1
 374.731302318 150.349059685 l 1
 393.019217602 145.550649247 412.205960081 143 432 143 c 0
 559 143 661 248 661 378 c 0
 661 440.030781663 637.415033765 496.512159507 598.806473053 538.438015185 c 1
EndSplineSet
EndChar

StartChar: ae
Encoding: 163 230 321
Width: 905
VWidth: 0
Flags: HW
HStem: 3 151<531.073 844.239> 205.32 128.941<518.301 675.264> 367 151<530.682 660.767>
VStem: 338 517<208.188 330.811>
LayerCount: 2
Fore
SplineSet
502.680664062 296.67578125 m 257
 694.883789062 294.1015625 l 257
 670.395507812 320.966796875 635.046875 375.099609375 595.8046875 375.099609375 c 256
 557.188476562 375.099609375 526.879882812 322.025390625 502.680664062 296.67578125 c 257
332 369 m 257
 324 371 316 372 308 372 c 256
 248 372 201 325 201 266 c 256
 201 206 248 159 308 159 c 256
 316 159 324 160 332 162 c 257
 332 369 l 257
854 260 m 0
 854 241.328125 855 223 855 208 c 1
 507.985351562 205.3203125 l 1
 526.489257812 174.45703125 556.416015625 154 596 154 c 0
 610.516601562 154 832 157 845 162 c 1
 845 6 l 1
 832 4 609.946289062 3 596 3 c 0
 563.931640625 3 533.271484375 8.783203125 505 19.357421875 c 5
 332 1 l 5
 332 9 l 1
 324 8 316 8 308 8 c 0
 165 8 50 123 50 266 c 0
 50 408 165 515 308 515 c 0
 316 515 324 515 332 514 c 2
 505 514 l 1
 596 518 l 0
 738 518 854 403 854 260 c 0
EndSplineSet
EndChar

StartChar: eth
Encoding: 173 240 322
Width: 612
VWidth: 0
Flags: HW
HStem: 3 151<242.454 332> 367 151<243.471 332>
VStem: 50 151<196.066 324.529> 332 152<4 4.10351 154.011 366.989 516.896 780>
LayerCount: 2
Fore
SplineSet
309.954681396 366.982788086 m 256
 301.641906738 366.84274292 293.393859863 365.848449707 286 364 c 257
 286 364.828063965 l 257
 236.898666382 354.945495605 201 312.437438965 201 260 c 256
 201 208.436508179 236.898666382 166.038650513 286 156.169952393 c 257
 286 157 l 257
 293.393859863 155.151535034 301.641937256 154.157287598 309.954711914 154.017227173 c 257
 318.230712891 154.163162231 326.28024292 155.23399353 334 157.131896973 c 257
 334 156.169952393 l 257
 383.101318359 166.038650513 419 208.436508179 419 260 c 256
 419 312.437438965 383.101318359 354.945495605 334 364.828063965 c 257
 334 363.864593506 l 257
 326.28024292 365.76574707 318.230682373 366.83682251 309.954681396 366.982788086 c 256
135 780 m 1
 287 780 l 1
 291.97764262 775.721755337 296.989716489 771.398168562 302.025825151 767.025825151 c 1
 340 805 l 1
 427 729 l 1
 386.727324567 688.727324567 l 1
 530.247928085 544.008430973 645.581709145 342.996110635 484 4 c 1
 332 4 l 1
 332 4.10350751877 l 1
 324.095489502 3.37326002121 316.089935303 3 308 3 c 0
 165 3 50 118 50 260 c 0
 50 403 165 518 308 518 c 0
 316.089935303 518 324.095489502 517.626708984 332 516.89630127 c 1
 281.86037123 583.86037123 l 1
 245 547 l 1
 158 623 l 1
 212.06958257 677.06958257 l 1
 135 780 l 1
EndSplineSet
EndChar

StartChar: divide
Encoding: 180 247 323
Width: 644
VWidth: 0
Flags: HW
HStem: -2 142<50 202> 398 142<50 202>
VStem: 50 152<-2 140 398 540>
LayerCount: 2
Fore
SplineSet
594 496 m 257
 594 344 l 257
 50 344 l 257
 50 496 l 257
 594 496 l 257
250 551 m 261
 250 693 l 261
 402 693 l 261
 402 551 l 261
 250 551 l 261
250 151 m 261
 250 293 l 261
 402 293 l 261
 402 151 l 261
 250 151 l 261
EndSplineSet
EndChar

StartChar: oslash
Encoding: 181 248 324
Width: 616
VWidth: 0
Flags: HW
HStem: 3 21G<307.408 308.151 311.478 383.5> 498 20G<307.408 308.151 311.478 383.5>
VStem: 50 151<197.14 323.449> 419 151<195.844 324.753>
LayerCount: 2
Fore
SplineSet
50 260 m 0
 50 400.960208359 161.197316369 518 308 518 c 0
 308.302062988 518 308.604003906 517.999450684 308.905517578 517.998413086 c 0
 309.925628662 518 310.956085205 518 312 518 c 0
 338.643724238 518 364.315427098 514.007769341 388.452383943 506.586032661 c 1
 458 625 l 1
 564 564 l 1
 493.417705665 443.82435675 l 1
 540.753204707 397.109257716 570 332.115108285 570 260 c 0
 570 118 455 3 312 3 c 0
 310.956176758 3 309.925842285 3.00155997276 308.905792236 3.00155997276 c 0
 308.603973389 3.00155997276 308.302032471 3 308 3 c 0
 282.426642008 3 261.399706555 6.16967414411 239.807894379 12.0202833249 c 1
 184 -83 l 1
 78 -22 l 1
 132.735181214 71.1938480148 l 1
 81.7941079846 118.136184617 50 185.335740374 50 260 c 0
306.393656043 366.87025121 m 1
 299.299696772 366.540807315 292.336203131 365.584037707 286 364 c 1
 286 364.828063965 l 1
 236.898666382 354.945495605 201 312.437438965 201 260 c 0
 201 241.526391164 205.607837586 224.229253707 213.779808204 209.182989231 c 1
 306.393656043 366.87025121 l 1
323.872278164 155.150957822 m 1
 327.303628876 155.653330953 330.682269533 156.316232437 334 157.131896973 c 1
 334 156.169952393 l 1
 383.101318359 166.038650513 419 208.436508179 419 260 c 0
 419 275.224543412 415.973894199 289.612082231 410.477150021 302.607147536 c 1
 323.872278164 155.150957822 l 1
EndSplineSet
EndChar

StartChar: dcaron
Encoding: 204 271 326
Width: 710
VWidth: 0
Flags: HW
HStem: 3 151<242.454 332> 367 151<243.471 332>
VStem: 50 151<196.066 324.529> 332 152<4 4.10351 154.011 366.989 516.896 780>
LayerCount: 2
Fore
SplineSet
516 532 m 261
 516 789 l 261
 668 789 l 261
 623 532 l 261
 516 532 l 261
332 780 m 257
 484 780 l 257
 484 4 l 257
 332 4 l 257
 332 4.10350751877 l 257
 324.095489502 3.37326002121 316.089935303 3 308 3 c 256
 165 3 50 118 50 260 c 256
 50 403 165 518 308 518 c 256
 316.089935303 518 324.095489502 517.626708984 332 516.89630127 c 257
 332 780 l 257
332 156.660415649 m 257
 332 364.336853027 l 257
 324.282409668 366.081298828 316.248718262 367 308 367 c 256
 248 367 201 320 201 260 c 256
 201 201 248 154 308 154 c 256
 316.248718262 154 324.282409668 154.918685913 332 156.660415649 c 257
EndSplineSet
EndChar

StartChar: dcroat
Encoding: 206 273 327
Width: 585
VWidth: 0
Flags: HW
HStem: 3 151<242.454 332> 367 151<243.471 332>
VStem: 50 151<196.066 324.529> 332 152<4 4.10351 154.011 366.989 516.896 780>
LayerCount: 2
Fore
SplineSet
535 739 m 257
 535 587 l 257
 264 587 l 257
 264 739 l 257
 535 739 l 257
332 780 m 257
 484 780 l 257
 484 4 l 257
 332 4 l 257
 332 4.10350751877 l 257
 324.095489502 3.37326002121 316.089935303 3 308 3 c 256
 165 3 50 118 50 260 c 256
 50 403 165 518 308 518 c 256
 316.089935303 518 324.095489502 517.626708984 332 516.89630127 c 257
 332 780 l 257
332 156.660415649 m 257
 332 364.336853027 l 257
 324.282409668 366.081298828 316.248718262 367 308 367 c 256
 248 367 201 320 201 260 c 256
 201 201 248 154 308 154 c 256
 316.248718262 154 324.282409668 154.918685913 332 156.660415649 c 257
EndSplineSet
EndChar

StartChar: Hbar
Encoding: 227 294 328
Width: 652
VWidth: 0
Flags: HW
HStem: -2 21G<50 202 450 602> 333 152<202 450> 754 20G<50 202 450 602>
VStem: 50 152<-2 333 485 774> 450 152<-2 333 485 774>
LayerCount: 2
Fore
SplineSet
450 774 m 1
 602 774 l 1
 602 713 l 1
 647 713 l 1
 647 561 l 1
 602 561 l 1
 602 -2 l 1
 450 -2 l 1
 450 333 l 1
 202 333 l 1
 202 -2 l 1
 50 -2 l 1
 50 561 l 1
 0 561 l 1
 0 713 l 1
 50 713 l 1
 50 774 l 1
 202 774 l 1
 202 713 l 1
 450 713 l 1
 450 774 l 1
202 561 m 1
 202 485 l 1
 450 485 l 1
 450 561 l 1
 202 561 l 1
EndSplineSet
EndChar

StartChar: hbar
Encoding: 228 295 329
Width: 658
VWidth: 0
Flags: HW
HStem: 644 152<61 605>
LayerCount: 2
Fore
SplineSet
111 768 m 257
 280 768 l 257
 280 512 l 257
 306 520 332 524 360 524 c 256
 478 524 574 446 605 337 c 257
 608 6 l 257
 441 6 l 257
 441 336 l 257
 421 359 393 373 360 373 c 256
 328 373 300 360 280 338 c 257
 280 6 l 257
 111 6 l 257
 111 768 l 257
338 731 m 257
 338 579 l 257
 50 579 l 257
 50 731 l 257
 338 731 l 257
EndSplineSet
EndChar

StartChar: lcaron
Encoding: 248 318 332
Width: 419
VWidth: 0
Flags: HW
HStem: -3 151<233.008 363.885> 741 20G<50 217>
VStem: 53 164<166.215 761>
LayerCount: 2
Fore
SplineSet
260 504 m 261
 260 761 l 261
 412 761 l 261
 367 504 l 261
 260 504 l 261
369 6 m 257
 346.333333333 0 322.666666667 -3 298 -3 c 0
 240 -3 188.666666667 14.3333333333 144 49 c 0
 99.3333333333 83.6666666667 69 128.666666667 53 184 c 257
 50 761 l 257
 217 761 l 257
 217 185 l 1
 238.333333333 160.333333333 265.333333333 148 298 148 c 0
 324.666666667 148 348.333333333 156.666666667 369 174 c 257
 369 6 l 257
EndSplineSet
EndChar

StartChar: Lslash
Encoding: 251 321 333
Width: 718
VWidth: 0
Flags: W
HStem: -3 152<202 667> 754 20G<50 202>
VStem: 50 152<149 774>
LayerCount: 2
Fore
SplineSet
50 774 m 261
 202 774 l 261
 202 149 l 261
 667 149 l 261
 668 -3 l 261
 51 -3 l 261
 50.9934196472 -2 l 261
 50 -2 l 261
 50 774 l 261
EndSplineSet
EndChar

StartChar: Lcaron
Encoding: 247 317 334
Width: 718
VWidth: 0
Flags: HW
HStem: -3 152<202 667> 754 20G<50 202>
VStem: 50 152<149 774>
LayerCount: 2
Fore
SplineSet
252 520 m 257
 252 777 l 257
 404 777 l 257
 359 520 l 257
 252 520 l 257
50 774 m 257
 202 774 l 257
 202 149 l 257
 667 149 l 257
 668 -3 l 257
 51 -3 l 257
 50.9934196472 -2 l 257
 50 -2 l 257
 50 774 l 257
EndSplineSet
EndChar

StartChar: lslash
Encoding: 252 322 335
Width: 419
VWidth: 0
Flags: W
HStem: -3 151<233.008 363.885> 741 20G<50 217>
VStem: 53 164<166.215 761>
LayerCount: 2
Fore
SplineSet
369 6 m 257
 346.333333333 0 322.666666667 -3 298 -3 c 0
 240 -3 188.666666667 14.3333333333 144 49 c 0
 99.3333333333 83.6666666667 69 128.666666667 53 184 c 257
 50 761 l 257
 217 761 l 257
 217 185 l 1
 238.333333333 160.333333333 265.333333333 148 298 148 c 0
 324.666666667 148 348.333333333 156.666666667 369 174 c 257
 369 6 l 257
EndSplineSet
EndChar

StartChar: OE
Encoding: 265 338 336
Width: 1068
VWidth: 0
Flags: HW
HStem: -3 152<602 1017> 333 152<602 909> 626 152<602 1017>
VStem: 450 568<-3 149 626 778> 450 152<149 333 485 626>
LayerCount: 2
Fore
SplineSet
909 485 m 1
 910 333 l 1
 602 333 l 1
 602 149 l 1
 1017 149 l 1
 1018 -3 l 1
 505 -3 l 1
 505 -6.830078125 l 1
 481.37109375 -11.5361328125 456.965820312 -14 432 -14 c 0
 221 -14 50 162 50 380 c 0
 50 597 221 773 432 773 c 0
 438.034179688 773 444.03515625 772.856445312 450 772.571289062 c 1
 450 774 l 1
 450 778 l 1
 1017 778 l 1
 1018 626 l 1
 602 626 l 1
 602 485 l 1
 909 485 l 1
432 612 m 0
 305 612 203 507 203 378 c 0
 203 248 305 143 432 143 c 0
 438.059570312 143 444.0625 143.239257812 450 143.708007812 c 1
 450 611.291992188 l 1
 444.0625 611.760742188 438.059570312 612 432 612 c 0
EndSplineSet
EndChar

StartChar: oe
Encoding: 266 339 337
Width: 1000
VWidth: 0
Flags: HW
LayerCount: 2
Fore
SplineSet
309.954681396 366.982788086 m 256
 301.641906738 366.84274292 293.393859863 365.848449707 286 364 c 257
 286 364.828063965 l 257
 236.898666382 354.945495605 201 312.437438965 201 260 c 256
 201 208.436508179 236.898666382 166.038650513 286 156.169952393 c 257
 286 157 l 257
 293.393859863 155.151535034 301.641937256 154.157287598 309.954711914 154.017227173 c 257
 318.230712891 154.163162231 326.28024292 155.23399353 334 157.131896973 c 257
 334 156.169952393 l 257
 383.101318359 166.038650513 419 208.436508179 419 260 c 256
 419 312.437438965 383.101318359 354.945495605 334 364.828063965 c 257
 334 363.864593506 l 257
 326.28024292 365.76574707 318.230682373 366.83682251 309.954681396 366.982788086 c 256
592.680664062 296.67578125 m 257
 788.883789062 294.1015625 l 257
 764.395507812 320.966796875 729.046875 375.099609375 689.8046875 375.099609375 c 256
 651.188476562 375.099609375 616.879882812 322.025390625 592.680664062 296.67578125 c 257
308.905792236 3.00155997276 m 0
 308.603973389 3.00155997276 308.302032471 3 308 3 c 0
 306.815063477 3 305.632049561 3.00789618492 304.45123291 3.02363610268 c 0
 299.66192627 3.0695514679 295.0050354 3.20466184616 290.134063721 3.60223269463 c 0
 155.541519165 12.7090320587 50 123.964859009 50 260 c 0
 50 396.991333008 155.538726807 508.286254883 290.128723145 517.397338867 c 0
 295.001708984 517.795227051 299.66027832 517.930419922 304.451171875 517.976379395 c 0
 305.632171631 517.992126465 306.815124512 518 308 518 c 0
 308.302062988 518 308.604003906 517.999450684 308.905517578 517.998413086 c 0
 309.925628662 518 310.956085205 518 312 518 c 0
 386.818310007 518 453.971803821 486.519504918 501 436.018996196 c 1
 548.028196179 486.519504918 615.181689993 518 690 518 c 0
 832 518 948 403 948 260 c 0
 948 241.328125 949 223 949 208 c 1
 597.985351562 205.3203125 l 1
 616.489257812 174.45703125 650.416015625 154 690 154 c 0
 704.516601562 154 926 157 939 162 c 1
 939 6 l 1
 926 4 703.946289062 3 690 3 c 0
 615.181689993 3 548.028196179 34.4804950815 501 84.837779879 c 1
 453.971803821 34.4804950815 386.818310007 3 312 3 c 0
 310.956176758 3 309.925842285 3.00155997276 308.905792236 3.00155997276 c 0
EndSplineSet
EndChar

StartChar: tcaron
Encoding: 284 357 338
Width: 630
VWidth: 0
Flags: HW
HStem: -3 151<328.285 459.024> 364 152<50 146.274 312 409> 741 20G<145 312>
VStem: 146.274 165.726<168.881 364 516 761>
LayerCount: 2
Fore
SplineSet
441 504 m 257
 441 761 l 257
 593 761 l 257
 548 504 l 257
 441 504 l 257
464 6 m 257
 441 0 418 -3 393 -3 c 256
 275 -3 179 75 148 184 c 257
 147.064117432 364 l 257
 50 364 l 257
 50 516 l 257
 146.273834229 516 l 257
 145 761 l 257
 312 761 l 257
 312 516 l 257
 409 516 l 257
 409 364 l 257
 312 364 l 257
 312 185 l 257
 332 162 360 148 393 148 c 256
 420 148 445 158 464 174 c 257
 464 6 l 257
EndSplineSet
EndChar

StartChar: uni0237
Encoding: 312 567 343
Width: 419
VWidth: 0
Flags: HW
HStem: -204 151<55.4451 185.159> 497 20G<202 369> 630 142<214 366>
VStem: 202 164<-32.1189 517> 214 152<630 772>
LayerCount: 2
Fore
SplineSet
50 -195 m 257xf0
 50 -27 l 257
 69 -43 94 -53 121 -53 c 256
 154 -53 182 -39 202 -16 c 257
 202 517 l 257
 369 517 l 257
 366 -17 l 257
 335 -126 239 -204 121 -204 c 256
 96 -204 73 -201 50 -195 c 257xf0
EndSplineSet
EndChar

StartChar: uni1E9E
Encoding: 402 7838 359
Width: 771
VWidth: 0
Flags: HW
LayerCount: 2
Fore
SplineSet
238.615234375 47 m 1
 305.615234375 159 l 1
 311.615234375 153 318.615234375 150 327.615234375 147 c 0
 380.615234375 123 424.615234375 131 450.615234375 162 c 0
 479.615234375 196 428.615234375 202 374.615234375 211 c 1
 246.615234375 262 175.615234375 440 250.615234375 529 c 4
 311.99609375 603.046875 356.811523438 693.086914062 481.775390625 644.022460938 c 4
 482.515625 644.0078125 483.256835938 644 484 644 c 4
 544 644 591 596 591 656 c 0
 591 720.255828523 215.542104214 732.190707732 173 683 c 1
 173 2 l 1
 6 2 l 1
 9 684 l 1
 25 739.333007812 55.3330078125 784.333007812 100 819 c 0
 239.345309054 927.148825425 742 856.984739035 742 656 c 0
 742 283.000662842 540.864257812 632.412109375 425.615234375 495 c 4
 395.615234375 460 392.615234375 381 456.615234375 370 c 5
 575.615234375 320 678.615234375 164 602.615234375 75 c 0
 540.615234375 -1 387.615234375 -21 260.615234375 34 c 0
 253.615234375 36 246.615234375 41 238.615234375 47 c 1
EndSplineSet
EndChar

StartChar: uni0982
Encoding: 345 2434 365
Width: 445
VWidth: 0
Flags: HW
HStem: 82 75<498.188 521.812> 264 75<498.188 521.812> 483 75<193.188 216.812> 665 75<193.188 216.812>
VStem: 75 76<568.334 654.111> 259 76<568.933 653.698> 380 76<167.334 253.111> 564 76<167.933 252.698>
LayerCount: 2
Fore
SplineSet
204 483 m 256
 203 483 203 483 202 483 c 256
 200 483 197 483 195 483 c 256
 128 488 75 543 75 611 c 256
 75 679 128 735 195 740 c 256
 197 740 200 740 202 740 c 256
 203 740 203 740 204 740 c 256
 205 740 205 740 206 740 c 256
 278 740 335 683 335 611 c 256
 335 540 278 483 206 483 c 256
 205 483 205 483 204 483 c 256
205 665 m 256
 201 665 197 664 193 663 c 257
 193 664 l 257
 168 659 151 637 151 611 c 256
 151 585 168 564 193 559 c 257
 193 560 l 257
 197 559 201 558 205 558 c 257
 209 558 213 559 217 560 c 257
 217 559 l 257
 242 564 259 585 259 611 c 256
 259 637 242 659 217 664 c 257
 217 663 l 257
 213 664 209 665 205 665 c 256
158 427 m 261
 391 69 l 261
 285 8 l 261
 52 366 l 261
 158 427 l 261
EndSplineSet
EndChar

StartChar: uni0983
Encoding: 346 2435 366
Width: 445
VWidth: 0
Flags: HW
LayerCount: 2
Fore
SplineSet
204 83 m 256
 203 83 203 83 202 83 c 256
 200 83 197 83 195 83 c 256
 128 88 75 143 75 211 c 256
 75 279 128 335 195 340 c 256
 197 340 200 340 202 340 c 256
 203 340 203 340 204 340 c 256
 205 340 205 340 206 340 c 256
 278 340 335 283 335 211 c 256
 335 140 278 83 206 83 c 256
 205 83 205 83 204 83 c 256
205 265 m 256
 201 265 197 264 193 263 c 257
 193 264 l 257
 168 259 151 237 151 211 c 256
 151 185 168 164 193 159 c 257
 193 160 l 257
 197 159 201 158 205 158 c 257
 209 158 213 159 217 160 c 257
 217 159 l 257
 242 164 259 185 259 211 c 256
 259 237 242 259 217 264 c 257
 217 263 l 257
 213 264 209 265 205 265 c 256
204 483 m 256
 203 483 203 483 202 483 c 256
 200 483 197 483 195 483 c 256
 128 488 75 543 75 611 c 256
 75 679 128 735 195 740 c 256
 197 740 200 740 202 740 c 256
 203 740 203 740 204 740 c 256
 205 740 205 740 206 740 c 256
 278 740 335 683 335 611 c 256
 335 540 278 483 206 483 c 256
 205 483 205 483 204 483 c 256
205 665 m 256
 201 665 197 664 193 663 c 257
 193 664 l 257
 168 659 151 637 151 611 c 256
 151 585 168 564 193 559 c 257
 193 560 l 257
 197 559 201 558 205 558 c 257
 209 558 213 559 217 560 c 257
 217 559 l 257
 242 564 259 585 259 611 c 256
 259 637 242 659 217 664 c 257
 217 663 l 257
 213 664 209 665 205 665 c 256
EndSplineSet
EndChar

StartChar: uni098A
Encoding: 352 2442 367
Width: 612
VWidth: 0
Flags: W
HStem: 3.00195 151.016<238.473 368.671> 366 151.998<304 436> 671 132<-5 436 543.755 611>
LayerCount: 2
Fore
SplineSet
299.301757812 721.96875 m 257
 299.301757812 721.96875 308.494140625 825.913085938 260 875 c 24
 228.591796875 905.81640625 227.884765625 906.5234375 196.771484375 937.635742188 c 24
 150.102539062 984.3046875 91.4130859375 965.212890625 44.7431640625 1011.88183594 c 24
 9.388671875 1047.23730469 3.7314453125 1132.09082031 3.7314453125 1132.09082031 c 257
 92.1201171875 1220.47851562 l 257
 92.1201171875 1220.47851562 99.8984375 1133.50488281 135.959960938 1097.44238281 c 24
 181.21484375 1052.1875 238.491210938 1074.10742188 283.74609375 1028.85253906 c 24
 317.686523438 994.912109375 320.515625 992.083007812 354.456054688 958.142578125 c 16
 404.484375 908.114257812 385.005859375 810.403320312 387.690429688 810.356445312 c 257
 299.301757812 721.96875 l 257
304 751 m 257
 436 751 l 257
 436 366 l 257
 304 366 l 257
 304 751 l 257
611 803 m 257
 611 671 l 257
 -5 671 l 257
 -5 803 l 257
 611 803 l 257
305.771484375 366.965820312 m 9
 305.771484375 366.965820312 305 517.998046875 303.905273438 517.998046875 c 257
 449.046875 517.998046875 568.453125 404.859375 565 260 c 256
 561.541015625 114.885742188 447.287109375 2.7998046875 303.90625 3.001953125 c 256
 134.0390625 3.240234375 50.1650390625 131.7890625 51.0009765625 261 c 9
 196.00390625 261 l 1
 196.000976562 260.666992188 196 260.333984375 196 260 c 256
 196 199.8828125 241.772460938 155.08203125 304.955078125 154.017578125 c 256
 367.911132812 155.126953125 414 199.63671875 414 260 c 256
 414 321.015625 368.461914062 365.484375 305.771484375 366.965820312 c 9
EndSplineSet
EndChar

StartChar: uni0990
Encoding: 356 2448 368
Width: 956
VWidth: 0
Flags: HW
HStem: 610 151<310.445 440.159>
VStem: 2.5 151<182.508 312.889>
LayerCount: 2
Fore
SplineSet
592 450 m 1
 592 450 678 413 736 414 c 0
 758 414 770 432 775 453 c 0
 800.106821904 562.842345831 738.099135477 683.875891727 662.560546875 759.412109375 c 0
 615.891601562 806.081054688 557.202148438 786.989257812 510.532226562 833.658203125 c 0
 475.177734375 869.013671875 469.520507812 953.8671875 469.520507812 953.8671875 c 1
 557.909179688 1042.25488281 l 1
 557.909179688 1042.25488281 565.6875 955.28125 601.749023438 919.21875 c 0
 647.00390625 873.963867188 704.280273438 895.883789062 749.53515625 850.62890625 c 0
 783.475585938 816.688476562 786.3046875 813.859375 820.245117188 779.918945312 c 0
 870.132756054 730.031306446 983.613208221 407.951203969 847 342 c 0
 802 321 773 312 724 312 c 0
 670 312 589 342 589 342 c 1
 592 450 l 1
11.5 318.5 m 257
 179.5 318.5 l 257
 162.166992188 297.833007812 153.5 274.166992188 153.5 247.5 c 0
 153.5 214.833007812 165.833007812 187.833007812 190.5 166.5 c 1
 554.5 166.5 l 257
 554.5 -0.5 l 257
 189.5 2.5 l 257
 134.166992188 18.5 89.1669921875 48.8330078125 54.5 93.5 c 0
 19.8330078125 138.166992188 2.5 189.5 2.5 247.5 c 0
 2.5 272.166992188 5.5 295.833007812 11.5 318.5 c 257
305 752 m 1
 328 758 351 761 376 761 c 0
 494 761 590 683 621 574 c 1
 624 -3 l 1
 457 -3 l 1
 457 573 l 1
 437 596 409 610 376 610 c 0
 349 610 324 600 305 584 c 1
 305 752 l 1
EndSplineSet
EndChar

StartChar: uni0994
Encoding: 358 2452 369
Width: 616
VWidth: 0
Flags: HW
HStem: 3.00195 151.016<238.473 368.671> 366 151.998<304 436> 671 132<-5 436 543.755 611>
LayerCount: 2
Fore
SplineSet
518 450 m 1
 518 450 604 413 662 414 c 0
 684 414 696 432 701 453 c 0
 726.106445312 562.842773438 664.099609375 683.875976562 588.560546875 759.412109375 c 0
 541.891601562 806.081054688 483.202148438 786.989257812 436.532226562 833.658203125 c 0
 401.177734375 869.013671875 395.520507812 953.8671875 395.520507812 953.8671875 c 1
 483.909179688 1042.25488281 l 1
 483.909179688 1042.25488281 491.6875 955.28125 527.749023438 919.21875 c 0
 573.00390625 873.963867188 630.280273438 895.883789062 675.53515625 850.62890625 c 0
 709.475585938 816.688476562 712.3046875 813.859375 746.245117188 779.918945312 c 0
 796.1328125 730.03125 909.61328125 407.951171875 773 342 c 0
 728 321 699 312 650 312 c 0
 596 312 515 342 515 342 c 1
 518 450 l 1
287 682 m 4
 280.208007812 681.634765625 231.076171875 677.51953125 225 676 c 5
 227.624023438 676.109375 204.358392055 760.16298253 207 760 c 4
 218.190429688 759.309570313 279.1413532 800.811067387 331 808 c 4
 474.523173823 827.895976636 572.978594643 717.309350141 570 565 c 4
 568.886810809 508.077476926 551.513465846 455.473502878 520.147722665 412.892506528 c 5
 551.513465846 370.167623622 570 317.334346404 570 260 c 4
 570 118 455 3 312 3 c 4
 310.956176758 3 309.925842285 3.00155997276 308.905792236 3.00155997276 c 4
 308.603973389 3.00155997276 308.302032471 3 308 3 c 4
 306.815063477 3 305.632049561 3.00789618492 304.45123291 3.02363610268 c 4
 299.66192627 3.0695514679 295.0050354 3.20466184616 290.134063721 3.60223269463 c 4
 155.541519165 12.7090320587 50 123.964859009 50 260 c 4
 50 315.204104449 67.1383262217 366.2353949 96.41015625 408.088867188 c 5
 92.798828125 407.602539062 111.3359375 412.833984375 108 412 c 261
 286.961635046 362.550074527 201 404.883119019 201 260 c 260
 201 199.879084003 246.760359118 155.081977304 309.954711914 154.017227173 c 260
 372.901330704 155.127197857 419 199.640275116 419 260 c 260
 419 312.437438965 383.101318359 354.945495605 334 364.828063965 c 261
 334 363.864593506 l 261
 309.955078125 459.017578125 l 260
 318.23046875 459.163085938 326.280273438 460.234375 334 462.131835938 c 261
 334 461.169921875 l 261
 383.1015625 471.0390625 419 513.436523438 419 565 c 260
 419 643.319849683 365.104366021 686.19526104 287 682 c 4
EndSplineSet
EndChar

StartChar: uni099E
Encoding: 365 2462 370
Width: 821
VWidth: 0
Flags: HW
HStem: 610 151<310.445 440.159>
VStem: 2.5 151<182.508 312.889>
LayerCount: 2
Fore
SplineSet
637.5 543.75 m 4
 634.103515625 543.567382812 609.538085938 541.509765625 606.5 540.75 c 5
 607.8125 540.8046875 596.178710938 582.831054688 597.5 582.75 c 4
 603.095703125 582.405273438 633.5703125 603.155273438 659.5 606.75 c 4
 731.26171875 616.698242188 780.489257812 561.404296875 779 485.25 c 4
 778.443359375 456.7890625 769.756835938 430.486328125 754.07421875 409.196289062 c 5
 769.756835938 387.833984375 779 361.416992188 779 332.75 c 4
 779 261.75 721.5 204.25 650 204.25 c 4
 649.478515625 204.25 648.962890625 204.250976562 648.453125 204.250976562 c 4
 648.301757812 204.250976562 648.151367188 204.25 648 204.25 c 4
 647.407226562 204.25 646.81640625 204.25390625 646.225585938 204.26171875 c 4
 643.831054688 204.28515625 641.502929688 204.352539062 639.067382812 204.55078125 c 4
 571.770507812 209.104492188 519 264.732421875 519 332.75 c 4
 519 360.352539062 527.569335938 385.868164062 542.205078125 406.794921875 c 5
 540.399414062 406.55078125 549.66796875 409.166992188 548 408.75 c 261
 637.48046875 384.025390625 594.5 405.19140625 594.5 332.75 c 260
 594.5 302.689453125 617.379882812 280.291015625 648.977539062 279.758789062 c 260
 680.450195312 280.313476562 703.5 302.5703125 703.5 332.75 c 260
 703.5 358.96875 685.55078125 380.22265625 661 385.1640625 c 261
 661 384.682617188 l 261
 648.977539062 432.258789062 l 260
 653.115234375 432.33203125 657.140625 432.8671875 661 433.81640625 c 261
 661 433.334960938 l 261
 685.55078125 438.26953125 703.5 459.46875 703.5 485.25 c 260
 703.5 524.41015625 676.551757812 545.84765625 637.5 543.75 c 4
305 752 m 1
 328 758 351 761 376 761 c 0
 494 761 590 683 621 574 c 1
 624 -3 l 1
 457 -3 l 1
 457 573 l 1
 437 596 409 610 376 610 c 0
 349 610 324 600 305 584 c 1
 305 752 l 1
11.5 318.5 m 257
 179.5 318.5 l 257
 162.166992188 297.833007812 153.5 274.166992188 153.5 247.5 c 0
 153.5 214.833007812 165.833007812 187.833007812 190.5 166.5 c 1
 554.5 166.5 l 257
 554.5 -0.5 l 257
 189.5 2.5 l 257
 134.166992188 18.5 89.1669921875 48.8330078125 54.5 93.5 c 0
 19.8330078125 138.166992188 2.5 189.5 2.5 247.5 c 0
 2.5 272.166992188 5.5 295.833007812 11.5 318.5 c 257
EndSplineSet
EndChar

StartChar: uni099D
Encoding: 364 2461 371
Width: 944
VWidth: 0
Flags: HW
HStem: 671 132<0 524 670 723> 671 106<524 670>
VStem: 524 146<1 73.5 225.5 473.5 625.5 777> 524 57.5<73.5 225.5 473.5 473.5>
LayerCount: 2
Fore
SplineSet
673 287 m 257
 855 105 l 257
 747 -2 l 257xa7
 565 180 l 257
 673 287 l 257
749 0 m 257
 749 776 l 257
 901 776 l 257x2f
 901 0 l 257
 749 0 l 257
581.5 625.5 m 257x10
 581.5 473.5 l 257
 214.5 349.5 l 257
 523.5 154.5 l 257
 523.5 2.5 l 257
 70.5 273.5 l 257
 70.5 425.5 l 257
 581.5 625.5 l 257x10
944 803 m 257x80
 944 671 l 257
 0 671 l 257
 0 803 l 257
 944 803 l 257x80
524 777 m 257x60
 670 777 l 257
 670 1 l 257
 524 1 l 257
 524 777 l 257x60
EndSplineSet
EndChar

StartChar: uni099C
Encoding: 363 2460 372
Width: 616
VWidth: 0
Flags: W
HStem: 3.00156 151.016<243.473 373.671> 366 151.998<309 441> 671 132<0 309 441 616> 671 80<309 441>
VStem: 309 132<517.998 751>
LayerCount: 2
Fore
SplineSet
309 751 m 257xd8
 441 751 l 257
 441 366 l 257
 309 366 l 257
 309 751 l 257xd8
616 803 m 261xe8
 616 671 l 261
 0 671 l 257
 0 803 l 257
 616 803 l 261xe8
310.771484375 366.965820312 m 9
 310.771484375 366.965820312 310 517.998413086 308.905517578 517.998413086 c 257
 454.047133504 517.998413086 573.452805737 404.858946303 570 260 c 256
 566.541106206 114.885635484 452.286645156 2.8001721638 308.905792236 3.00155997276 c 256
 139.039267851 3.24014864388 55.1649552713 131.789550758 56.0009765625 261 c 9
 201.004086554 261 l 1
 201.001363701 260.667152961 201 260.33381812 201 260 c 256
 201 199.88239772 246.772259079 155.081776804 309.954711914 154.017227173 c 256
 372.911202253 155.127371927 419 199.636531606 419 260 c 256
 419 321.015280879 373.461470044 365.484193346 310.771484375 366.965820312 c 9
EndSplineSet
EndChar

StartChar: uni09A3
Encoding: 369 2467 373
Width: 613
VWidth: 0
Flags: HW
LayerCount: 2
Fore
SplineSet
51.2958984375 468.5 m 257
 50.4384765625 477.053710938 50 485.7265625 50 494.5 c 256
 50 637.5 165 752.5 307 752.5 c 256
 450 752.5 565 637.5 565 494.5 c 256
 565 485.7265625 564.560546875 477.053710938 563.704101562 468.5 c 257
 410.864257812 468.5 l 257
 412.915039062 476.826171875 414 485.536132812 414 494.5 c 256
 414 554.5 367 601.5 307 601.5 c 256
 248 601.5 201 554.5 201 494.5 c 256
 201 485.536132812 202.084960938 476.826171875 204.131835938 468.5 c 257
 51.2958984375 468.5 l 257
611.5 803 m 261x3780
 611.5 671 l 261x3780
 450.5 671 l 261
 450.5 803 l 261x3720
 611.5 803 l 261x3780
411.5 850 m 261xa740
 563.5 850 l 261
 563.5 -2 l 261
 411.5 -2 l 261
 411.5 850 l 261xa740
EndSplineSet
EndChar

StartChar: uni0964
Encoding: 341 2404 374
Width: 252
VWidth: 0
Flags: HW
HStem: -2 21G<50 202> 492 20G<50 202> 630 142<50 202>
VStem: 50 152<-2 512 630 772>
LayerCount: 2
Fore
SplineSet
202 370 m 261
 202 -30 l 261
 50 -30 l 261
 50 370 l 261
 202 370 l 261
EndSplineSet
EndChar

StartChar: uni0981
Encoding: 344 2433 376
Width: 0
Flags: HW
LayerCount: 2
Fore
SplineSet
193 619 m 261
 193 613 193 606 193 600 c 260
 193 492 107 406 1 406 c 260
 -107 406 -193 492 -193 600 c 260
 -193 606 -193 613 -193 619 c 261
 -77 619 l 261
 -79 613 -80 606 -80 600 c 260
 -80 555 -44 519 1 519 c 260
 46 519 80 555 80 600 c 260
 80 606 79 613 77 619 c 261
 193 619 l 261
-61 658 m 257
 -61 772 l 257
 61 772 l 257
 61 658 l 257
 -61 658 l 257
EndSplineSet
EndChar

StartChar: uni09AD
Encoding: 376 2477 377
Width: 726
VWidth: 75
Flags: HW
HStem: 4.7002 133.6<305.264 468.805> 513.479 120.821<395.987 467.023> 671 132<0 726>
VStem: 92.4004 111.399<240.829 328.876> 570.2 133.399<240.829 414.049>
LayerCount: 2
Fore
SplineSet
509 617 m 257
 509 611 509 604 509 598 c 256
 509 490 423 404 317 404 c 256
 209 404 123 490 123 598 c 256
 123 604 123 611 123 617 c 257
 239 617 l 257
 237 611 236 604 236 598 c 256
 236 553 272 517 317 517 c 256
 362 517 396 553 396 598 c 256
 396 604 395 611 393 617 c 257
 509 617 l 257
726 803 m 257
 726 671 l 257
 0 671 l 257
 0 803 l 257
 726 803 l 257
389.780273438 513.478515625 m 1
 389.400390625 511.099609375 395.987304688 634.29296875 395.987304688 634.29296875 c 1
 396.657226562 634.297851562 397.328125 634.299804688 398 634.299804688 c 256
 566.799804688 634.299804688 703.599609375 493.5 703.599609375 319.900390625 c 256
 703.599609375 145.5 566.799804688 4.7001953125 398 4.7001953125 c 256
 229.200195312 4.7001953125 92.400390625 145.5 92.400390625 319.900390625 c 256
 92.400390625 320.77734375 203.86328125 330.658203125 203.870117188 331.533203125 c 1
 203.823242188 329.794921875 203.799804688 328.049804688 203.799804688 326.299804688 c 256
 203.799804688 222.299804688 285.400390625 138.299804688 387 138.299804688 c 256
 488.599609375 138.299804688 570.200195312 222.299804688 570.200195312 326.299804688 c 256
 570.200195312 428.556640625 490.084960938 511.962890625 389.780273438 513.478515625 c 1
EndSplineSet
EndChar

StartChar: uni09A7
Encoding: 372 2471 378
Width: 752
Flags: HW
LayerCount: 2
Fore
SplineSet
561 625.5 m 257x10
 561 473.5 l 257
 194 349.5 l 257
 503 154.5 l 257
 503 2.5 l 257
 50 273.5 l 257
 50 425.5 l 257
 561 625.5 l 257x10
702.5 803 m 257x80
 702.5 671 l 257
 504.5 671 l 257
 504.5 803 l 257
 702.5 803 l 257x80
503.5 777 m 257x60
 649.5 777 l 257
 649.5 1 l 257
 503.5 1 l 257
 503.5 777 l 257x60
355 413.5 m 261
 349 413.5 342 413.5 336 413.5 c 260
 228 413.5 142 499.5 142 605.5 c 260
 142 713.5 228 799.5 336 799.5 c 260
 342 799.5 349 799.5 355 799.5 c 261
 355 683.5 l 261
 349 685.5 342 686.5 336 686.5 c 260
 291 686.5 255 650.5 255 605.5 c 260
 255 560.5 291 526.5 336 526.5 c 260
 342 526.5 349 527.5 355 529.5 c 261
 355 413.5 l 261
EndSplineSet
EndChar

StartChar: uni09A8
Encoding: 373 2472 379
Width: 661
VWidth: 0
Flags: HW
LayerCount: 2
Fore
SplineSet
321.219726562 125.521484375 m 1
 321.599609375 127.900390625 315.012695312 4.70703125 315.012695312 4.70703125 c 1
 314.342773438 4.70214843836 313.671875 4.7001953125 313 4.7001953125 c 256
 144.200195312 4.7001953125 7.400390625 145.5 7.400390625 319.099609375 c 256
 7.400390625 493.5 144.200195312 634.299804688 313 634.299804688 c 256
 481.799804688 634.299804688 618.599609375 493.5 618.599609375 319.099609375 c 256
 618.599609375 318.22265625 507.13671875 308.341796875 507.129882812 307.466796875 c 1
 507.176757812 309.205078125 507.200195312 310.950195312 507.200195312 312.700195312 c 256
 507.200195312 416.700195312 425.599609375 500.700195312 324 500.700195312 c 256
 222.400390625 500.700195312 140.799804688 416.700195312 140.799804688 312.700195312 c 256
 140.799804688 210.443359375 220.915039062 127.037109375 321.219726562 125.521484375 c 1
661 803 m 257x3780
 661 671 l 257x3780
 0 671 l 257
 0 803 l 257x3720
 661 803 l 257x3780
464 803 m 257xa740
 616 803 l 257
 616 -2 l 257
 464 -2 l 257
 464 803 l 257xa740
EndSplineSet
EndChar

StartChar: uni09B6
Encoding: 381 2486 380
Width: 642
Flags: HW
LayerCount: 2
Fore
SplineSet
642.5 803 m 257xe0
 642.5 671 l 257xe0
 481.5 671 l 257
 481.5 803 l 257xc8
 642.5 803 l 257xe0
529.5 487 m 257
 395.5 622 l 257
 420.5 703 l 257
 548.5 594 l 257
 529.5 487 l 257
442.5 847 m 257xd0
 594.5 847 l 257
 594.5 -2 l 257
 442.5 -2 l 257
 442.5 847 l 257xd0
423 705.5 m 257
 423 589.5 l 257
 417 591.5 410 592.5 404 592.5 c 256
 359 592.5 323 558.5 323 513.5 c 256
 323 468.5 359 432.5 404 432.5 c 256
 410 432.5 417 433.5 423 435.5 c 257
 423 319.5 l 257
 417 319.5 410 319.5 404 319.5 c 256
 296 319.5 210 405.5 210 513.5 c 256
 210 619.5 296 705.5 404 705.5 c 256
 410 705.5 417 705.5 423 705.5 c 257
0 705.5 m 257
 6 705.5 13 705.5 19 705.5 c 260
 127 705.5 213 619.5 213 513.5 c 260
 213 405.5 127 319.5 19 319.5 c 256
 13 319.5 6 319.5 0 319.5 c 257
 0 435.5 l 257
 6 433.5 13 432.5 19 432.5 c 256
 64 432.5 100 468.5 100 513.5 c 256
 100 558.5 64 592.5 19 592.5 c 256
 13 592.5 6 591.5 0 589.5 c 257
 0 705.5 l 257
EndSplineSet
EndChar

StartChar: uni0988
Encoding: 350 2440 381
Width: 1077
VWidth: 0
Flags: HW
HStem: -1 21G<407 593> 671 132<0 307.581 543.755 689>
LayerCount: 2
Fore
SplineSet
1077 803 m 1
 1077 671 l 1
 0 671 l 1
 0 803 l 1
 538.488825367 803 l 1
 532.990715846 828.393884523 522.923165745 854.420599746 504.7890625 872.776367188 c 0
 473.380859375 903.592773438 472.673828125 904.299804688 441.560546875 935.412109375 c 0
 394.891601562 982.081054688 336.202148438 962.989257812 289.532226562 1009.65820312 c 0
 254.177734375 1045.01367188 248.520507812 1129.8671875 248.520507812 1129.8671875 c 1
 336.909179688 1218.25488281 l 1
 336.909179688 1218.25488281 344.6875 1131.28125 380.749023438 1095.21875 c 0
 426.00390625 1049.96386719 483.280273438 1071.88378906 528.53515625 1026.62890625 c 0
 562.475585938 992.688476562 565.3046875 989.859375 599.245117188 955.918945312 c 0
 649.2734375 905.890625 629.794921875 808.1796875 632.479492188 808.1328125 c 1
 627.346622977 803 l 1
 1077 803 l 1
236.141601562 472.20703125 m 1
 236.141601562 472.20703125 128.799804688 578.45703125 128.026367188 577.68359375 c 1
 230.65625 680.313476562 392.620117188 682.33203125 495.080078125 579.872070312 c 0
 526.888223308 548.063925129 548.519862862 510.366928414 560.093512702 470.425818834 c 1
 638.814649885 534.57646276 l 1
 648.905456559 550.61500217 660.972621644 565.818324769 675.026367188 579.872070312 c 0
 702.492771488 607.338474613 734.235205576 627.296913924 767.964395312 639.821885126 c 1
 778 648 l 1
 776.53545103 642.831003635 l 1
 866.62869286 672.658147053 969.281397155 650.48227472 1042.08007812 577.68359375 c 1
 1041.30664062 578.45703125 933.96484375 472.20703125 933.96484375 472.20703125 c 1
 888.588867188 515.487304688 824.943359375 516.244140625 781.799804688 473.099609375 c 0
 739.116210938 430.416015625 740.233398438 366.353515625 783.96484375 321.051757812 c 0
 829.39453125 277.127929688 893.439453125 276.440429688 935.948242188 318.950195312 c 0
 936.184570312 319.186523438 936.419921875 319.422851562 936.653320312 319.66015625 c 1
 1039.18554688 217.127929688 l 1
 948.411132812 125.170898438 797.618164062 92.9951171875 677.922851562 213.525390625 c 0
 641.264117347 250.440014518 617.456305689 294.904202505 606.677441949 341.443112516 c 1
 534 265 l 1
 532.737729726 265.574550607 l 1
 521.664750243 247.09526651 508.141809596 229.594999916 492.18359375 213.525390625 c 0
 372.48828125 92.9951171875 221.6953125 125.170898438 130.920898438 217.127929688 c 1
 233.453125 319.66015625 l 1
 233.686523438 319.422851562 233.921875 319.186523438 234.158203125 318.950195312 c 0
 276.666992188 276.440429688 340.711914062 277.127929688 386.141601562 321.051757812 c 0
 388.659551356 323.660122363 391.036227423 326.33068206 393.271403281 329.055775058 c 1
 389 331 l 1
 402.678401037 342.146666141 l 1
 429.25300919 384.7487879 424.707732449 436.698517551 388.306640625 473.099609375 c 0
 345.163085938 516.244140625 281.517578125 515.487304688 236.141601562 472.20703125 c 1
EndSplineSet
EndChar

StartChar: uni0996
Encoding: 360 2454 382
Width: 752
Flags: HW
LayerCount: 2
Fore
SplineSet
319.5 714 m 257x80
 451.5 714 l 257
 335.5 444 l 257
 288.5 509 l 257
 319.5 714 l 257x80
335 597.5 m 257x10
 335 445.5 l 257
 194 273.5 l 257
 503 159.5 l 261
 503 2.5 l 257
 50 179.5 l 257
 50 331.5 l 257
 335 597.5 l 257x10
724.5 803 m 257x80
 724.5 671 l 257
 526.5 671 l 257
 526.5 803 l 257
 724.5 803 l 257x80
503.5 777 m 257x60
 649.5 777 l 257
 649.5 1 l 257
 503.5 1 l 257
 503.5 777 l 257x60
317.5 713 m 257
 317.5 707 317.5 700 317.5 694 c 256
 317.5 586 231.5 500 125.5 500 c 256
 17.5 500 -68.5 586 -68.5 694 c 256
 -68.5 700 -68.5 707 -68.5 713 c 257
 47.5 713 l 257
 45.5 707 44.5 700 44.5 694 c 256
 44.5 649 80.5 613 125.5 613 c 256
 170.5 613 204.5 649 204.5 694 c 256
 204.5 700 203.5 707 201.5 713 c 257
 317.5 713 l 257
EndSplineSet
EndChar

StartChar: uni098B
Encoding: 353 2443 383
Width: 1344
Flags: HW
LayerCount: 2
Fore
SplineSet
1344.5 795 m 257x3780
 1344.5 663 l 257x3780
 1144.5 663 l 257
 1144.5 795 l 257x3720
 1344.5 795 l 257x3780
1066.5 287 m 257
 1248.5 105 l 257
 1140.5 -2 l 257xa7
 958.5 180 l 257
 1066.5 287 l 257
1142.5 0 m 257
 1142.5 776 l 257
 1294.5 776 l 257x2f
 1294.5 0 l 257
 1142.5 0 l 257
436 713 m 257
 436 707 436 700 436 694 c 256
 436 586 350 500 244 500 c 256
 136 500 50 586 50 694 c 256
 50 700 50 707 50 713 c 257
 166 713 l 257
 164 707 163 700 163 694 c 256
 163 649 199 613 244 613 c 256
 289 613 323 649 323 694 c 256
 323 700 322 707 320 713 c 257
 436 713 l 257
738 714 m 257x80
 925 714 l 257
 754 444 l 257
 707 509 l 257
 738 714 l 257x80
753.5 597.5 m 257x10
 753.5 445.5 l 257
 612.5 273.5 l 257
 921.5 159.5 l 257
 921.5 2.5 l 257
 468.5 179.5 l 257
 468.5 331.5 l 257
 753.5 597.5 l 257x10
922 777 m 257x60
 1068 777 l 257
 1068 1 l 257
 922 1 l 257
 922 777 l 257x60
736 713 m 257
 736 707 736 700 736 694 c 256
 736 586 650 500 544 500 c 256
 436 500 350 586 350 694 c 256
 350 700 350 707 350 713 c 257
 466 713 l 257
 464 707 463 700 463 694 c 256
 463 649 499 613 544 613 c 256
 589 613 623 649 623 694 c 256
 623 700 622 707 620 713 c 257
 736 713 l 257
EndSplineSet
EndChar

StartChar: uni09B2
Encoding: 380 2482 384
Width: 943
VWidth: 0
Flags: HW
LayerCount: 2
Fore
SplineSet
561 122 m 257
 550 99 487 0 488 -1 c 257
 379 94 367 261 470 363 c 256
 571 465 717 458 820 356 c 256
 940 236 906 89 814 -2 c 257
 745 80 l 257
 767 87 746 118 747 118 c 256
 789 161 772 209 728 254 c 256
 683 298 619 299 576 257 c 256
 533 213 518 168 561 122 c 257
943 803 m 257
 943 671 l 257
 895 671 l 257
 895 46.6672 l 258
 895.227 45.6097 895.31 44.5539 895.204 43.5 c 258
 895 43.5 l 257
 895 -2 l 257
 743 -2 l 257
 743 43.5 l 257
 742.364 43.5 l 257
 742.588 44.4071 742.8 45.3188 743 46.2349 c 258
 743 93.0699 l 257
 743 299.968 l 257
 743 671 l 257
 0 671 l 257
 0 803 l 257
 743 803 l 257
 895 803 l 257
 943 803 l 257
249 110 m 257
 249 110 143 3 144 2 c 257
 41 105 39 267 142 369 c 256
 243 471 389 464 492 362 c 256
 612 242 580 91 488 0 c 257
 435 91 l 257
 419 89 423 112 422 113 c 256
 413 123 444 215 400 260 c 256
 355 304 291 305 248 263 c 256
 205 219 206 156 249 110 c 257
EndSplineSet
EndChar

StartChar: uni09AF
Encoding: 378 2479 385
Width: 841
VWidth: 0
Flags: HW
HStem: 10 152<235.1 580.7> 610 152<34.3 378.3>
LayerCount: 2
Fore
SplineSet
841 803 m 257x3780
 841 671 l 257x3780
 0 671 l 261
 0 803 l 261x3720
 841 803 l 257x3780
644 803 m 257xa740
 796 803 l 257
 796 -2 l 257
 644 -2 l 257
 644 803 l 257xa740
76.755859375 180.198242188 m 257
 108.228515625 327.01953125 l 257
 379.267578125 487.461914062 l 257
 89.9892578125 690.75390625 l 257
 121.461914062 802.575195312 l 257
 540.244140625 568.801757812 l 257
 508.771484375 421.98046875 l 257
 302.186523438 262.055664062 l 257
 681.010742188 145.24609375 l 257
 649.538085938 -1.5751953125 l 257
 76.755859375 180.198242188 l 257
EndSplineSet
EndChar

StartChar: uni09AB
Encoding: 374 2475 386
Width: 1167
VWidth: 0
Flags: HW
HStem: 10 152<235.1 580.7> 610 152<34.3 378.3>
LayerCount: 2
Fore
SplineSet
645.795898438 294.5 m 257x94
 644.938476562 303.053710938 644.5 311.7265625 644.5 320.5 c 256
 644.5 463.5 759.5 578.5 901.5 578.5 c 256
 1044.5 578.5 1159.5 463.5 1159.5 320.5 c 256
 1159.5 311.7265625 1159.06054688 303.053710938 1158.20410156 294.5 c 257
 1005.36425781 294.5 l 257
 1007.41503906 302.826171875 1008.5 311.536132812 1008.5 320.5 c 256
 1008.5 380.5 961.5 427.5 901.5 427.5 c 256
 842.5 427.5 795.5 380.5 795.5 320.5 c 256
 795.5 311.536132812 796.584960938 302.826171875 798.631835938 294.5 c 257
 645.795898438 294.5 l 257x94
1167 803 m 261x3780
 1167 671 l 261x3780
 0 671 l 257
 0 803 l 257x3720
 1167 803 l 261x3780
644 323 m 257xa740
 796 323 l 257
 796 -2 l 257
 644 -2 l 257
 644 323 l 257xa740
76.755859375 180.198242188 m 257
 108.228515625 327.01953125 l 257
 379.267578125 487.461914062 l 257
 89.9892578125 690.75390625 l 257
 121.461914062 802.575195312 l 257
 540.244140625 568.801757812 l 257
 508.771484375 421.98046875 l 257
 302.186523438 262.055664062 l 257
 681.010742188 145.24609375 l 257
 649.538085938 -1.5751953125 l 257
 76.755859375 180.198242188 l 257
EndSplineSet
EndChar

StartChar: uni0997
Encoding: 361 2455 387
Width: 690
VWidth: 0
Flags: HW
LayerCount: 2
Fore
SplineSet
687.5 803 m 257x3780
 687.5 671 l 257x3780
 526.5 671 l 257
 526.5 803 l 257x3720
 687.5 803 l 257x3780
487.5 850 m 257xa740
 639.5 850 l 257
 639.5 -2 l 257
 487.5 -2 l 257
 487.5 850 l 257xa740
68.615234375 341 m 261
 135.615234375 453 l 261
 141.615234375 447 148.615234375 444 157.615234375 441 c 260
 210.615234375 417 254.615234375 425 280.615234375 456 c 260
 309.615234375 490 258.615234375 496 204.615234375 505 c 261
 76.615234375 556 5.615234375 639 80.615234375 728 c 260
 143.615234375 804 296.615234375 821 423.615234375 767 c 260
 430.615234375 764 549.615234375 706 556.615234375 700 c 261
 489.615234375 570 l 261
 483.615234375 574 365.615234375 635 356.615234375 638 c 260
 303.615234375 660 281.615234375 653 255.615234375 622 c 260
 225.615234375 587 222.615234375 580 286.615234375 569 c 261
 405.615234375 519 508.615234375 458 432.615234375 369 c 260
 370.615234375 293 217.615234375 273 90.615234375 328 c 260
 83.615234375 330 76.615234375 335 68.615234375 341 c 261
EndSplineSet
EndChar

StartChar: uni098C
Encoding: 354 2444 388
Width: 779
VWidth: 0
Flags: HW
HStem: 616 157<51.091 217.973> -14 161<51.091 217.973>
VStem: 352 153<282.8 477.701>
LayerCount: 2
Fore
SplineSet
98.1552734375 103.778320312 m 1
 97.2978515625 112.33203125 96.859375 121.004882812 96.859375 129.778320312 c 0
 96.859375 272.778320312 211.859375 387.779296875 353.859375 387.779296875 c 0
 448.783176582 387.779296875 531.369221454 337.105937218 576.17051436 261.206784434 c 1
 594.933037441 337.664683471 573.635885835 422.482278228 513.10546875 483.012695312 c 0
 421.181640625 574.936523438 274.810546875 577.05859375 185.0078125 487.255859375 c 0
 166.9375 469.185546875 152.58984375 448.826171875 141.946289062 427.079101562 c 1
 27.443359375 541.583007812 l 1
 40.8232421875 561.619140625 56.337890625 580.618164062 73.9921875 598.271484375 c 0
 223.19140625 747.470703125 468.557617188 743.935546875 622.70703125 589.786132812 c 0
 776.1484375 436.34375 779.684570312 190.977539062 630.485351562 41.7783203125 c 0
 612.831054688 24.125 593.83203125 8.6103515625 573.797851562 -4.771484375 c 1
 465.248046875 103.778320312 l 1
 457.724609375 103.778320312 l 1
 458.227169004 105.819684483 458.671790108 107.8841184 459.056659279 109.969707909 c 2
 456.470703125 112.555664062 l 1
 457.567377345 113.092867924 458.660540257 113.639482492 459.750074904 114.195510898 c 0
 460.481746805 119.283482789 460.859951496 124.486659364 460.859375 129.778320312 c 0
 460.860351562 189.778320312 413.859375 236.779296875 353.859375 236.778320312 c 0
 294.859375 236.779296875 247.859375 189.778320312 247.860351562 129.778320312 c 0
 247.859375 120.814453125 248.9453125 112.104492188 250.991210938 103.778320312 c 1
 98.1552734375 103.778320312 l 1
EndSplineSet
EndChar

StartChar: uni09EF
Encoding: 395 2543 389
Width: 779
VWidth: 0
Flags: W
HStem: 616 157<51.091 217.973> -14 161<51.091 217.973>
VStem: 352 153<282.8 477.701>
LayerCount: 2
Fore
SplineSet
98.1552734375 103.778320312 m 1
 97.2978515625 112.33203125 96.859375 121.004882812 96.859375 129.778320312 c 0
 96.859375 272.778320312 211.859375 387.779296875 353.859375 387.779296875 c 0
 448.783176582 387.779296875 531.369221454 337.105937218 576.17051436 261.206784434 c 1
 594.933037441 337.664683471 573.635885835 422.482278228 513.10546875 483.012695312 c 0
 421.181640625 574.936523438 274.810546875 577.05859375 185.0078125 487.255859375 c 0
 166.9375 469.185546875 152.58984375 448.826171875 141.946289062 427.079101562 c 1
 27.443359375 541.583007812 l 1
 40.8232421875 561.619140625 56.337890625 580.618164062 73.9921875 598.271484375 c 0
 223.19140625 747.470703125 468.557617188 743.935546875 622.70703125 589.786132812 c 0
 776.1484375 436.34375 779.684570312 190.977539062 630.485351562 41.7783203125 c 0
 612.831054688 24.125 593.83203125 8.6103515625 573.797851562 -4.771484375 c 1
 465.248046875 103.778320312 l 1
 457.724609375 103.778320312 l 1
 458.227169004 105.819684483 458.671790108 107.8841184 459.056659279 109.969707909 c 2
 456.470703125 112.555664062 l 1
 457.567377345 113.092867924 458.660540257 113.639482492 459.750074904 114.195510898 c 0
 460.481746805 119.283482789 460.859951496 124.486659364 460.859375 129.778320312 c 0
 460.860351562 189.778320312 413.859375 236.779296875 353.859375 236.778320312 c 0
 294.859375 236.779296875 247.859375 189.778320312 247.860351562 129.778320312 c 0
 247.859375 120.814453125 248.9453125 112.104492188 250.991210938 103.778320312 c 1
 98.1552734375 103.778320312 l 1
EndSplineSet
EndChar

StartChar: uni09EC
Encoding: 392 2540 390
Width: 616
VWidth: 0
Flags: HW
HStem: 3.00156 151.016<243.473 373.671> 366 151.998<309 441> 671 132<0 309 441 616> 671 80<309 441>
VStem: 309 132<517.998 751>
LayerCount: 2
Fore
SplineSet
309 751 m 257xd8
 441 751 l 257
 441 366 l 257
 309 366 l 257
 309 751 l 257xd8
310.771484375 366.965820312 m 9
 310.771484375 366.965820312 310 517.998413086 308.905517578 517.998413086 c 257
 454.047133504 517.998413086 573.452805737 404.858946303 570 260 c 256
 566.541106206 114.885635484 452.286645156 2.8001721638 308.905792236 3.00155997276 c 256
 139.039267851 3.24014864388 55.1649552713 131.789550758 56.0009765625 261 c 9
 201.004086554 261 l 1
 201.001363701 260.667152961 201 260.33381812 201 260 c 256
 201 199.88239772 246.772259079 155.081776804 309.954711914 154.017227173 c 256
 372.911202253 155.127371927 419 199.636531606 419 260 c 256
 419 321.015280879 373.461470044 365.484193346 310.771484375 366.965820312 c 9
EndSplineSet
EndChar

StartChar: uni09ED
Encoding: 393 2541 391
Width: 534
VWidth: 0
Flags: HW
HStem: 265 151<243.471 332> 629 150<243.591 331.625>
VStem: 332 152<3 266 416.026 628.974> 50 151<458.471 586.934>
LayerCount: 2
Fore
SplineSet
332 3 m 257
 332 266 l 257
 324 265 316 265 308 265 c 256
 165 265 50 380 50 523 c 256
 50 665 165 780 308 780 c 256
 316 780 403 787 445 752 c 280
 483 720 484 631 484 631 c 257
 484 3 l 257
 332 3 l 257
332 626 m 257
 324 628 316 629 308 629 c 256
 248 629 201 582 201 523 c 256
 201 463 248 416 308 416 c 256
 316 416 324 417 332 419 c 257
 332 626 l 257
EndSplineSet
EndChar

StartChar: uni09EE
Encoding: 394 2542 392
Width: 692
VWidth: 0
Flags: HW
HStem: 367.571 151<202 290.529> 4.57143 150<202.375 290.409>
VStem: 50 152<517.571 780.571 154.597 367.545> 333 151<196.637 325.1>
LayerCount: 2
Fore
SplineSet
202 157.571289062 m 1
 210 155.571289062 218 154.571289062 226 154.571289062 c 0
 286 154.571289062 333 201.571289062 333 260.571289062 c 0
 333 312.331236735 298.022963165 354.416684858 249.896522926 365 c 1
 203.780920361 365 l 2
 203.187280241 364.862602738 202.59364012 364.719699093 202 364.571289062 c 2
 202 157.571289062 l 1
202 780.571289062 m 1
 202 517.571289062 l 1
 210 518.571289062 218 518.571289062 226 518.571289062 c 0
 235.73451976 518.571289062 245.339287233 518.038377887 254.786857958 517 c 2
 639 517 l 1
 639 365 l 1
 462.164755899 365 l 1
 476.210340441 333.109532168 484 297.788716996 484 260.571289062 c 0
 484 118.571289062 369 3.5712890625 226 3.5712890625 c 0
 218 3.5712890625 131 -3.4287109375 89 31.5712890625 c 0
 51 63.5712890625 50 152.571289062 50 152.571289062 c 1
 50 780.571289062 l 1
 202 780.571289062 l 1
EndSplineSet
EndChar

StartChar: uni09EB
Encoding: 391 2539 393
Width: 779
VWidth: 0
Flags: HW
HStem: 616 157<549.596 716.478> -14 161<549.596 716.478>
VStem: 262.569 153<282.8 477.701>
LayerCount: 2
Fore
SplineSet
736.516601562 479.231445312 m 5
 729.537109375 484.25 722.24609375 488.966796875 714.646484375 493.353515625 c 4
 651.125976562 530.02734375 555.856445312 496.979492188 490.943359375 478.297851562 c 5
 384.618164062 600.763671875 l 5
 401.4296875 603.403320312 418.18359375 604.084960938 434.633789062 602.95703125 c 5
 392.721679688 759.372070312 l 5
 368.680664062 757.802734375 344.46875 753.866210938 320.353515625 747.403320312 c 4
 116.543945312 692.79296875 -3.0771484375 478.53125 53.3447265625 267.9609375 c 4
 109.508789062 58.3544921875 320.234375 -67.3896484375 524.044921875 -12.78125 c 4
 548.16015625 -6.3173828125 571.09375 2.37890625 592.702148438 13.037109375 c 5
 552.96875 161.319335938 l 5
 556.731445312 167.834960938 l 5
 554.712890625 168.418945312 552.702148438 169.067382812 550.702148438 169.77734375 c 6
 549.756835938 173.309570312 l 5
 548.743164062 172.627929688 547.723632812 171.956054688 546.697265625 171.290039062 c 4
 541.924804688 173.200195312 537.229492188 175.474609375 532.647460938 178.12109375 c 4
 480.685546875 208.119140625 463.481445312 272.32421875 493.482421875 324.28515625 c 4
 522.982421875 375.381835938 587.185546875 392.583984375 639.147460938 362.583007812 c 4
 646.911132812 358.102539062 653.911132812 352.805664062 660.09765625 346.872070312 c 5
 736.516601562 479.231445312 l 5
355.770507812 384.469726562 m 5
 350.025390625 376.6953125 367.659179688 408.35546875 362.711914062 399.786132812 c 4
 315.25 317.578125 317.842773438 220.720703125 361.170898438 143.971679688 c 5
 285.575195312 165.953125 222.76953125 226.805664062 200.615234375 309.491210938 c 4
 180.83984375 383.290039062 197.331054688 457.865234375 239.19140625 513.487304688 c 5
 355.770507812 384.469726562 l 5
EndSplineSet
EndChar

StartChar: uni09B7
Encoding: 382 2487 394
Width: 841
VWidth: 0
Flags: HW
HStem: 10 152<235.1 580.7> 610 152<34.3 378.3>
LayerCount: 2
Fore
SplineSet
76.755859375 180.198242188 m 1
 108.228515625 327.01953125 l 1
 379.267578125 487.461914062 l 1
 118.098465451 671 l 1
 0 671 l 1
 0 803 l 1
 841 803 l 1
 841 671 l 1
 796 671 l 1
 796 -2 l 1
 644 -2 l 1
 644 0.182325908373 l 1
 76.755859375 180.198242188 l 1
644 156.658270369 m 1
 644 381.504761905 l 1
 511.956219354 436.837393795 l 1
 302.186523438 262.055664062 l 1
 644 156.658270369 l 1
644 671 m 1
 357.165995084 671 l 1
 644 528.982142857 l 1
 644 671 l 1
EndSplineSet
EndChar

StartChar: uni09A5
Encoding: 371 2469 395
Width: 723
VWidth: 0
Flags: HW
HStem: 3 151<243.471 334> 367 151<243.471 334>
VStem: 50 151<196.066 324.529>
LayerCount: 2
Fore
SplineSet
174.400390625 766.462890625 m 1
 181.243164062 767.149414062 186.181640625 767.52734375 193.200195312 767.5 c 0
 307.951171875 767.052734375 460.767578125 698.090820312 467.599609375 578.900390625 c 0
 476.654914953 420.921070667 281.841224207 347.525355795 180 283 c 1
 524 166.745152355 l 1
 524 671 l 1
 524 777 l 1
 524 803 l 1
 723 803 l 1
 723 671 l 1
 670 671 l 1
 670 1 l 1
 524 1 l 1
 524 16.055187638 l 1
 88 197 l 1
 88 349 l 1
 88 349 229 446 311 518 c 28
 332 536 348.799804688 578.900390625 348.799804688 578.900390625 c 4
 348.799804688 626.099609375 243.200195312 646.700195312 195.200195312 646.700195312 c 0
 188.029296875 646.700195312 181.060546875 645.83203125 174.400390625 644.194335938 c 1
 174.400390625 766.462890625 l 1
EndSplineSet
EndChar

StartChar: uni0980
Encoding: 343 2432 396
Width: 534
VWidth: 0
Flags: HW
HStem: 265 151<243.471 332> 629 150<243.591 331.625>
VStem: 332 152<3 266 416.026 628.974> 50 151<458.471 586.934>
LayerCount: 2
Fore
SplineSet
260 343 m 5
 258.90625 342.962890625 261.09375 416 260 416 c 260
 200 416 201 463 201 523 c 256
 201 582 248 629 308 629 c 256
 316 629 324 628 332 626 c 257
 332 419 l 257
 333 388 l 1
 338.752929688 388.056640625 326.246650269 265.280831284 332 266 c 257
 332 3 l 257
 484 3 l 257
 484 631 l 257
 484 631 483 720 445 752 c 280
 403 787 316 780 308 780 c 256
 165 780 50 665 50 523 c 256
 50 380 117 265 260 265 c 260
 260 343 l 5
EndSplineSet
EndChar

StartChar: uni09BC
Encoding: 385 2492 397
Width: 0
VWidth: 0
GlyphClass: 4
Flags: HW
HStem: -2 142<-76 76>
VStem: -76 152<-2 140>
LayerCount: 2
Fore
SplineSet
-460 -138 m 257
 -460 4 l 257
 -308 4 l 257
 -308 -138 l 257
 -460 -138 l 257
EndSplineSet
EndChar

StartChar: uni09BD
Encoding: 386 2493 398
Width: 689
VWidth: 0
Flags: HW
LayerCount: 2
Fore
SplineSet
236.141601562 472.20703125 m 9
 236.141601562 472.20703125 128.799804688 578.45703125 128.026367188 577.68359375 c 257
 230.65625 680.313476562 392.620117188 682.33203125 495.080078125 579.872070312 c 256
 596.706054688 478.24609375 594.452148438 316.5078125 492.18359375 213.525390625 c 256
 372.48828125 92.9951171875 221.6953125 125.170898438 130.920898438 217.127929688 c 9
 233.453125 319.66015625 l 1
 233.686523438 319.422851562 233.921875 319.186523438 234.158203125 318.950195312 c 256
 276.666992188 276.440429688 340.711914062 277.127929688 386.141601562 321.051757812 c 256
 429.873046875 366.353515625 430.990234375 430.416015625 388.306640625 473.099609375 c 256
 345.163085938 516.244140625 281.517578125 515.487304688 236.141601562 472.20703125 c 9
249 599 m 257
 249 467 l 257
 0 671 l 257
 0 803 l 257
 249 599 l 257
434 -1 m 257
 137 219 l 257
 338 221 l 257
 593 -1 l 257
 434 -1 l 257
EndSplineSet
EndChar

StartChar: uni099A
Encoding: 362 2458 399
Width: 534
VWidth: 0
Flags: W
HStem: 265 151<243.471 332> 629 150<243.591 331.625>
VStem: 332 152<3 266 416.026 628.974> 50 151<458.471 586.934>
LayerCount: 2
Fore
SplineSet
332 3 m 257
 332 266 l 257
 324 265 316 265 308 265 c 256
 165 265 50 380 50 523 c 256
 50 665 165 780 308 780 c 256
 316 780 403 787 445 752 c 280
 483 720 484 631 484 631 c 257
 484 3 l 257
 332 3 l 257
332 626 m 257
 324 628 316 629 308 629 c 256
 248 629 201 582 201 523 c 256
 201 463 248 416 308 416 c 256
 316 416 324 417 332 419 c 257
 332 626 l 257
EndSplineSet
EndChar

StartChar: uni09CD
Encoding: 390 2509 400
Width: 0
VWidth: 0
Flags: HW
LayerCount: 2
Fore
SplineSet
-104 -1 m 257
 -3 -147 l 257
 -109 -208 l 257
 -210 -62 l 257
 -104 -1 l 257
EndSplineSet
EndChar

StartChar: uni09B8
Encoding: 383 2488 401
Width: 512
VWidth: 0
Flags: HW
LayerCount: 2
Fore
SplineSet
776 803 m 257x37
 776 671 l 257
 0 671 l 257
 0 803 l 257
 776 803 l 257x37
446 328 m 257
 709 105 l 257
 601 -2 l 257xa7
 419 180 l 257
 446 328 l 257
603 0 m 257
 603 776 l 257
 755 776 l 257x2f
 755 0 l 257
 603 0 l 257
55 95 m 257
 130 220 l 257
 136 215 142 210 152 205 c 256
 203 175 267 192 297 240 c 256
 329 296 279 344 227 353 c 257
 101 421 17 536 101 677 c 256
 171 793 328 832 453 765 c 256
 459 759 467 756 474 750 c 257
 399 701 l 257
 393 706 352 661 342 666 c 256
 291 694 261.560008756 652.26668126 232 603 c 256
 199 548 232 467 296 456 c 257
 413 393 512 308 427 168 c 256
 358 51 201 12 76 80 c 256
 70 86 62 89 55 95 c 257
EndSplineSet
EndChar

StartChar: uni09AE
Encoding: 377 2478 402
Width: 778
VWidth: 0
Flags: HW
LayerCount: 2
Fore
SplineSet
263.90625 3.001953125 m 256
 263.603515625 3.0009765625 263.301757812 3 263 3 c 256
 261.815429688 3 260.631835938 3.0078125 259.451171875 3.0234375 c 256
 254.662109375 3.0693359375 250.004882812 3.205078125 245.133789062 3.6025390625 c 256
 110.541992188 12.708984375 5 123.96484375 5 260 c 256
 5 396.991210938 110.5390625 508.286132812 245.12890625 517.397460938 c 256
 250.001953125 517.794921875 254.66015625 517.930664062 259.451171875 517.9765625 c 256
 260.631835938 517.9921875 261.815429688 518 263 518 c 256
 263.301757812 518 263.603515625 517.999023438 263.905273438 517.998046875 c 257
 264.92578125 518 265.956054688 518 267 518 c 256
 410 518 525 403 525 260 c 256
 525 118 410 3 267 3 c 256
 265.956054688 3 264.92578125 3 263.90625 3.001953125 c 256
264.955078125 366.982421875 m 256
 256.641601562 366.842773438 248.393554688 365.848632812 241 364 c 257
 241 364.828125 l 257
 191.8984375 354.9453125 156 312.4375 156 260 c 256
 156 208.436523438 191.8984375 166.0390625 241 156.169921875 c 257
 241 157 l 257
 248.393554688 155.151367188 256.641601562 154.157226562 264.955078125 154.017578125 c 257
 273.23046875 154.163085938 281.280273438 155.234375 289 157.131835938 c 257
 289 156.169921875 l 257
 338.1015625 166.0390625 374 208.436523438 374 260 c 256
 374 312.4375 338.1015625 354.9453125 289 364.828125 c 257
 289 363.864257812 l 257
 281.280273438 365.765625 273.23046875 366.836914062 264.955078125 366.982421875 c 256
770 803 m 257x37
 770 671 l 257
 -6 671 l 257
 -6 803 l 257
 770 803 l 257x37
440 328 m 257
 703 105 l 257
 595 -2 l 257xa7
 413 180 l 257
 440 328 l 257
597 0 m 257
 597 776 l 257
 749 776 l 257x2f
 749 0 l 257
 597 0 l 257
215.232421875 356.162109375 m 1
 92.4627337476 424.533863648 11.5030151175 538.633567909 95 677 c 256
 165 793 322 832 447 765 c 256
 453 759 461 756 468 750 c 257
 393 701 l 257
 387 706 346 661 336 666 c 256
 285 694 255.559570312 652.266601562 226 603 c 256
 193 548 226 467 290 456 c 257
 295.863268474 452.842855437 209.48046875 359.43359375 215.232421875 356.162109375 c 1
307.433300827 446.358663852 m 1025
EndSplineSet
EndChar

StartChar: uni09BF
Encoding: 388 2495 403
Width: 275
VWidth: 0
Flags: HW
LayerCount: 2
Fore
SplineSet
77.2958984375 799 m 257
 76.4384765625 807.553710938 76 816.2265625 76 825 c 256
 76 968 191 1083 333 1083 c 256
 476 1083 591 968 591 825 c 256
 591 816.2265625 590.560546875 807.553710938 589.704101562 799 c 257
 436.864257812 799 l 257
 438.915039062 807.326171875 440 816.036132812 440 825 c 256
 440 885 393 932 333 932 c 256
 274 932 227 885 227 825 c 256
 227 816.036132812 228.084960938 807.326171875 230.131835938 799 c 257
 77.2958984375 799 l 257
272 803 m 257x3780
 272 671 l 257x3780
 0 671 l 257
 0 803 l 257x3720
 272 803 l 257x3780
75 803 m 257xa740
 227 803 l 257
 227 -2 l 257
 75 -2 l 257
 75 803 l 257xa740
EndSplineSet
EndChar

StartChar: uni09C0
Encoding: 389 2496 404
Width: 246
VWidth: 0
Flags: HW
LayerCount: 2
Fore
SplineSet
-310.704101562 806 m 257
 -311.561523438 814.553710938 -312 823.2265625 -312 832 c 256
 -312 975 -197 1090 -55 1090 c 256
 88 1090 203 975 203 832 c 256
 203 823.2265625 202.560546875 814.553710938 201.704101562 806 c 257
 48.8642578125 806 l 257
 50.9150390625 814.326171875 52 823.036132812 52 832 c 256
 52 892 5 939 -55 939 c 256
 -114 939 -161 892 -161 832 c 256
 -161 823.036132812 -159.915039062 814.326171875 -157.868164062 806 c 257
 -310.704101562 806 l 257
246 803 m 257x3780
 246 671 l 257x3780
 -1 671 l 257
 -1 803 l 257x3720
 246 803 l 257x3780
49 803 m 257xa740
 201 803 l 257
 201 -2 l 257
 49 -2 l 257
 49 803 l 257xa740
EndSplineSet
EndChar

StartChar: NameMe.405
Encoding: 405 -1 405
Width: 0
VWidth: 0
Flags: HW
LayerCount: 2
Fore
SplineSet
147.125 283 m 1
 220.125 283 l 1
 220.125 -105 l 1
 146.125 -105 l 5
 -79.625 31.25 l 5
 -79.625 107.25 l 1
 147.125 195.997553816 l 1
 147.125 283 l 1
146.125 -27.7766990291 m 1
 146.125 121.536132812 l 1
 -7.625 69.25 l 1
 146.125 -27.7766990291 l 1
EndSplineSet
EndChar

StartChar: NameMe.406
Encoding: 406 -1 406
Width: 1095
VWidth: 0
Flags: HW
LayerCount: 2
Fore
SplineSet
543.75 583 m 1
 616.75 583 l 1
 616.75 433.30003488 l 1
 633.484254684 441.286398399 652.218139328 445.75 672 445.75 c 0
 743.5 445.75 801 388.25 801 316.75 c 0
 801 312.36328125 800.780273438 308.02734375 800.3515625 303.75 c 1
 723.931640625 303.75 l 1
 724.95703125 307.913085938 725.5 312.267578125 725.5 316.75 c 0
 725.5 346.75 702 370.25 672 370.25 c 0
 642.5 370.25 619 346.75 619 316.75 c 0
 619 312.267578125 619.54296875 307.913085938 620.56640625 303.75 c 1
 616.75 303.75 l 1
 616.75 195 l 1
 543.75 195 l 1
 543.75 197.395143488 l 1
 320 331.25 l 1
 320 407.25 l 1
 543.75 494.823385519 l 1
 543.75 583 l 1
543.75 308.657580606 m 2
 543.583952485 311.334326464 543.5 314.032418747 543.5 316.75 c 0
 543.5 319.485337142 543.584154528 322.200184485 543.75 324.892106443 c 2
 543.75 420.522479564 l 1
 392 369.25 l 1
 543.75 273.485436893 l 1
 543.75 308.657580606 l 2
EndSplineSet
EndChar

StartChar: bn_ka_ssa
Encoding: 407 -1 407
Width: 985
VWidth: 0
Flags: HW
LayerCount: 2
Fore
SplineSet
494 304 m 261
 488 249 481 304 475 304 c 260
 367 304 281 390 281 496 c 260
 281 604 367 690 475 690 c 260
 481 690 488 690 494 690 c 261
 494 574 l 261
 488 576 481 577 475 577 c 260
 430 577 394 541 394 496 c 260
 394 451 430 417 475 417 c 260
 481 417 488 418 494 420 c 261
 494 304 l 261
234 207 m 261
 577 285 l 261
 469 146 l 261xa7
 126 68 l 261
 234 207 l 261
32 0 m 261
 32 116 l 261
 38 114 45 113 51 113 c 260
 96 113 132 147 132 192 c 260
 132 237 96 273 51 273 c 260
 45 273 38 272 32 270 c 261
 32 386 l 261
 38 386 45 386 51 386 c 260
 159 386 245 300 245 192 c 260
 245 86 159 0 51 0 c 260
 45 0 38 -55 32 0 c 261
32 304 m 261
 32 420 l 261
 38 418 45 417 51 417 c 260
 96 417 132 451 132 496 c 260
 132 541 96 577 51 577 c 260
 45 577 38 576 32 574 c 261
 32 690 l 261
 38 690 45 690 51 690 c 260
 159 690 245 604 245 496 c 260
 245 390 159 304 51 304 c 260
 45 304 38 249 32 304 c 261
464 335 m 261
 463 344 463 352 463 361 c 260
 463 504 578 619 720 619 c 260
 863 619 978 504 978 361 c 260
 978 352 978 344 977 335 c 261
 824 335 l 261
 826 343 827 352 827 361 c 260
 827 421 780 468 720 468 c 260
 661 468 614 421 614 361 c 260
 614 352 615 343 617 335 c 261
 464 335 l 261
983 799 m 261x3780
 983 667 l 261x3780
 0 671 l 261
 0 803 l 261x3720
 983 799 l 261x3780
464 803 m 261xa740
 616 803 l 261
 616 -2 l 261
 464 -2 l 261
 464 803 l 261xa740
EndSplineSet
EndChar

StartChar: bn_ja_nya
Encoding: 408 -1 408
Width: 793
VWidth: 0
Flags: HW
HStem: 3.00156 151.016<243.473 373.671> 366 151.998<309 441> 671 132<0 309 441 616> 671 80<309 441>
VStem: 309 132<517.998 751>
LayerCount: 2
Fore
SplineSet
421.259765625 644.7109375 m 1
 470.148128456 647.315724404 521.31451122 648.866927665 573.993164062 649.645507812 c 0
 576.428710938 649.84375 578.756930564 649.902908341 581.151367188 649.934570312 c 0
 581.7421875 649.942382812 582.333007812 649.946289062 582.92578125 649.946289062 c 0
 583.077148438 649.946289062 583.227539062 649.9453125 583.37890625 649.9453125 c 0
 583.888671875 649.9453125 584.404296875 649.946289062 584.92578125 649.946289062 c 0
 656.42578125 649.946289062 713.92578125 592.446289062 713.92578125 521.446289062 c 0
 713.92578125 492.779296874 704.682617188 466.362304687 689 445 c 1
 704.682617188 423.709960937 713.369204968 397.407227821 713.92578125 368.946289062 c 0
 715.415039062 292.791992188 666.187453076 237.497708392 594.42578125 247.446289062 c 0
 568.49609375 251.041015625 538.021573624 271.789563837 532.42578125 271.446289062 c 0
 531.104492188 271.365234375 542.73828125 313.391601562 541.42578125 313.446289062 c 1
 544.463867188 312.686523438 569.029287454 310.628730951 572.42578125 310.446289062 c 0
 611.477539062 308.348632812 638.42578125 329.786132812 638.42578125 368.946289062 c 256
 638.42578125 394.727539063 620.4765625 415.926757813 595.92578125 420.861328125 c 257
 595.92578125 420.379882812 l 257
 592.06640625 421.329101562 588.041015625 421.864257812 583.903320312 421.9375 c 256
 595.92578125 469.513671875 l 257
 595.92578125 469.032226562 l 257
 620.4765625 473.973632812 638.42578125 495.227539062 638.42578125 521.446289062 c 256
 638.42578125 551.625976562 615.376399465 574.967649332 583.903320312 574.4375 c 256
 525.895794735 574.25250426 473.451013939 571.425751917 429.709960938 566.553710938 c 1
 421.259765625 644.7109375 l 1
309 751 m 257xd8
 441 751 l 257
 441 366 l 257
 309 366 l 257
 309 751 l 257xd8
790 803 m 257xe8
 790 671 l 257
 0 671 l 257
 0 803 l 257
 790 803 l 257xe8
310.771484375 366.965820312 m 1
 310.771484375 366.965820312 310 517.998413086 308.905517578 517.998413086 c 257
 454.047133504 517.998413086 573.452805737 404.858946303 570 260 c 256
 566.541106206 114.885635484 452.286645156 2.8001721638 308.905792236 3.00155997276 c 256
 139.039267851 3.24014864388 55.1649552713 131.789550758 56.0009765625 261 c 1
 201.004086554 261 l 1
 201.001363701 260.667152961 201 260.33381812 201 260 c 256
 201 199.88239772 246.77311363 152.903112973 309.954711914 154.017227173 c 256
 372.911202253 155.127371927 419 199.636531606 419 260 c 256
 419 321.015280879 373.461470044 365.484193346 310.771484375 366.965820312 c 1
EndSplineSet
EndChar

StartChar: u09CD_u09B0.blwf
Encoding: 409 -1 409
Width: 0
VWidth: 0
Flags: HW
HStem: 344 152.581<255.052 477.98> 400 152<101.251 233.491>
LayerCount: 2
Fore
SplineSet
-185 107 m 261
 -185 -293 l 261
 -337 -293 l 261
 -337 107 l 261
 -185 107 l 261
-185 -389 m 261x80
 -185 -389 -252 -309 -321 -308.581054688 c 4
 -365.001183397 -308.31389397 -366 -309 -410 -309 c 7
 -476 -309 -504 -364 -570 -364 c 7x40
 -620 -364 -684 -308 -684 -308 c 261
 -684 -156 l 261x80
 -684 -156 -617 -212 -566 -212 c 7x40
 -502 -212 -477 -156 -413 -156 c 7x80
 -365 -156 -361 -156 -313 -156 c 7
 -241.168945312 -156 -185.403027901 -235.50077041 -185 -237 c 261
 -185 -389 l 261x80
EndSplineSet
EndChar

StartChar: bn_ja_phala
Encoding: 410 -1 410
Width: 400
VWidth: 0
Flags: HW
HStem: 344 152.581<255.052 477.98> 400 152<101.251 233.491>
LayerCount: 2
Fore
SplineSet
0 799 m 1
 400 799 l 1
 400 665 l 1
 288.615234375 665 l 1
 267.719117615 614.120206557 245.80033197 543.825964579 245.581054688 472.451171875 c 0
 245.313476562 414.713867188 246 413.403320312 246 355.666992188 c 0
 246 269.061523438 301 232.3203125 301 145.71484375 c 0
 301 80.1044921875 245 -3.876953125 245 -3.876953125 c 1
 93 -3.876953125 l 1
 93 -3.876953125 149 84.041015625 149 150.962890625 c 0
 149 234.943359375 93 267.749023438 93 351.729492188 c 0
 93 414.71484375 93 419.963867188 93 482.94921875 c 0
 93 554.579100309 111.979519432 618.381033087 131.56640625 665 c 1
 0 665 l 1
 0 799 l 1
EndSplineSet
EndChar

StartChar: u0995_u09CD_u09B0
Encoding: 411 -1 411
Width: 1098
VWidth: 0
GlyphClass: 3
Flags: HW
LayerCount: 2
Fore
SplineSet
1098 803 m 1
 1098 671 l 1
 670 671 l 1
 670 525 l 1
 704.666666667 541 741.333333333 549 780 549 c 0
 852 549 913 524 963 474 c 0
 1013 424 1038 363 1038 291 c 0
 1038 282.333333333 1037.66666667 273.666666667 1037 265 c 1
 884 265 l 1
 886.666666667 273.666666667 888 282.333333333 888 291 c 0
 888 321.666666667 877.666666667 347.333333333 857 368 c 0
 836.333333333 388.666666667 810.666666667 399 780 399 c 0
 750.666666667 399 725.666666667 388.5 705 367.5 c 0
 690.762433841 353.032842761 681.429100507 336.429978178 677 317.69140625 c 1
 677 363.483398438 l 2
 677.309401077 362.322265625 677.64273441 361.161132812 678 360 c 1
 677 360 l 1
 677 75 l 1
 677 19 l 1
 677 -43 l 1
 677 -43 609.999968567 3.17407942248 541 3.4189453125 c 0
 496.998816603 3.68610603082 496 3 452 3 c 0
 386 3 358 -52 292 -52 c 0
 194.631578947 -52 70 38 70 38 c 5
 70 190 l 5
 70 190 198.322033898 100 296 100 c 0
 360 100 385 156 449 156 c 2
 511.93359375 156 l 1
 70 321 l 1
 70 473 l 1
 524 650 l 1
 524 671 l 1
 0 671 l 1
 0 803 l 1
 1098 803 l 1
525 297 m 1
 524.333333333 432.090301003 524 500.090301003 524 501 c 1
 214 397 l 1
 525 297 l 1
EndSplineSet
EndChar

StartChar: u0996_u09CD_u09B0
Encoding: 412 -1 412
Width: 674
VWidth: 0
GlyphClass: 3
Flags: HW
LayerCount: 2
Fore
SplineSet
402 731 m 5
 337.794550883 593.303783402 264.360154921 467.935853239 144 376 c 1
 450 264.192382812 l 1
 449 800 l 1
 674 800 l 1
 674 671 l 1
 600 671 l 1
 602 89 l 2
 602 33 l 1
 608 -37 l 1
 608 -37 538.043157448 16.9815229478 466 17.4189453125 c 0
 421.998816603 17.6861060308 421 17 377 17 c 0
 311 17 283 -38 217 -38 c 0
 167 -38 103 18 103 18 c 1
 103 170 l 1
 103 170 170 114 221 114 c 0
 285 114 310 170 374 170 c 2
 448.314453125 170 l 1
 0 282 l 1
 0 434 l 1
 246 562 l 1
 257 629 l 1
 243.666666667 598.76344086 218.334878543 577.425366213 187.5 555 c 0
 154.5 531 117.333333333 519 76 519 c 0
 21.3333333333 519 -24.6666666667 537.833333333 -62 575.5 c 0
 -99.3333333333 613.166666667 -118 659 -118 713 c 2
 -118 732 l 1
 -2 732 l 1
 -4.66666666667 726 -6 719.666666667 -6 713 c 0
 -6 690.333333333 2 671.166666667 18 655.5 c 0
 34 639.833333333 53.1666666667 632 75.5 632 c 0
 97.8333333333 632 116.5 639.833333333 131.5 655.5 c 0
 146.5 671.166666667 154 690.333333333 154 713 c 0
 154 719.666666667 153.333333333 726 152 732 c 1
 402 731 l 5
EndSplineSet
EndChar

StartChar: u0997_u09CD_u09B0
Encoding: 413 -1 413
Width: 690
VWidth: 0
GlyphClass: 3
Flags: HW
LayerCount: 2
Fore
SplineSet
639 489 m 257
 639 89 l 257
 487 89 l 257
 487 489 l 257
 639 489 l 257
639 -7 m 257x80
 639 -7 572 73.0000000005 503 73.4189453125 c 0
 458.998816603 73.6861060308 458 73 414 73 c 3
 348 73 320 18 254 18 c 3x40
 204 18 140 74 140 74 c 257
 140 226 l 257x80
 140 226 207 170 258 170 c 3x40
 322 170 347 226 411 226 c 3x80
 459 226 463 226 511 226 c 3
 582.831054688 226 638.596972099 146.49922959 639 145 c 257
 639 -7 l 257x80
687.5 803 m 257x3780
 687.5 671 l 257x3780
 526.5 671 l 257
 526.5 803 l 257x3720
 687.5 803 l 257x3780
487.5 850 m 257xa740
 639.5 850 l 257
 639.5 97 l 261
 487.5 97 l 261
 487.5 850 l 257xa740
68.615234375 341 m 257
 135.615234375 453 l 257
 141.615234375 447 148.615234375 444 157.615234375 441 c 256
 210.615234375 417 254.615234375 425 280.615234375 456 c 256
 309.615234375 490 258.615234375 496 204.615234375 505 c 257
 76.615234375 556 5.615234375 639 80.615234375 728 c 256
 143.615234375 804 296.615234375 821 423.615234375 767 c 256
 430.615234375 764 549.615234375 706 556.615234375 700 c 257
 489.615234375 570 l 257
 483.615234375 574 365.615234375 635 356.615234375 638 c 256
 303.615234375 660 281.615234375 653 255.615234375 622 c 256
 225.615234375 587 222.615234375 580 286.615234375 569 c 257
 405.615234375 519 508.615234375 458 432.615234375 369 c 256
 370.615234375 293 217.615234375 273 90.615234375 328 c 256
 83.615234375 330 76.615234375 335 68.615234375 341 c 257
EndSplineSet
EndChar

StartChar: u0998_u09CD_u09B0
Encoding: 414 -1 414
Width: 776
VWidth: 0
GlyphClass: 3
Flags: HW
LayerCount: 2
Fore
SplineSet
755 324.5 m 257
 755 217.935546875 755 107.43359375 755 4.5 c 257
 606 7.7001953125 l 257
 606 327.700195312 l 257
 755 324.5 l 257
754.849609375 -69.099609375 m 257x80
 754.849609375 -69.099609375 669.720703125 -5.099609375 582.049804688 -4.7646484375 c 0
 524.848632812 -4.55078125 523.549804688 -5.099609375 466.349609375 -5.099609375 c 3
 380.549804688 -5.099609375 344.149414062 -49.099609375 258.349609375 -49.099609375 c 3x40
 193.349609375 -49.099609375 110.150390625 -4.2998046875 110.150390625 -4.2998046875 c 257
 110.150390625 117.299804688 l 257x80
 110.150390625 117.299804688 197.25 72.5 263.549804688 72.5 c 3x40
 346.75 72.5 379.25 117.299804688 462.450195312 117.299804688 c 3x80
 524.850585938 117.299804688 530.049804688 117.299804688 592.450195312 117.299804688 c 3
 683.5859375 117.299804688 754.337890625 53.69921875 754.849609375 52.5 c 257
 754.849609375 -69.099609375 l 257x80
86 669.299804688 m 261
 0 668.5 l 261
 0 799.099609375 l 257
 776 799.099609375 l 257
 776 668.5 l 261
 755 668.5 l 261
 755 134.099609375 l 257
 365 149.299804688 l 257
 279.666992188 149.299804688 206.833007812 167.166992188 146.5 202.900390625 c 128
 86.1669921875 238.633789062 56 281.833007812 56 332.5 c 128
 56 383.166992188 81 426.366210938 131 462.099609375 c 257
 81 485.701171875 56 514.235351562 56 547.700195312 c 257
 56 590.66527688 66 631.199048732 86 669.299804688 c 261
603 668.5 m 261
 359 665.299804688 l 261
 316.333007812 665.299804688 280.333007812 657.966796875 251 643.299804688 c 132
 221.666992188 617.334637298 207 585.468100839 207 547.700195312 c 257
 207 527.966796875 214.194335938 484.408203125 234 496.900390625 c 128
 252 508.252929688 274.333007812 514.786132812 301 516.5 c 257
 308 516.5 308 516.5 314 516.5 c 128
 320 516.5 320 516.5 326 516.5 c 257
 333 517.299804688 333 517.299804688 340 518.099609375 c 257
 340 515.700195312 l 257
 340 409.299804688 l 257
 340 406.900390625 l 257
 333 407.700195312 333 407.700195312 326 408.5 c 257
 320 408.5 320 408.5 314 408.5 c 128
 308 408.5 308 408.5 301 408.5 c 257
 274.333007812 406.366210938 252 398.099609375 234 383.700195312 c 128
 216 369.299804688 207 352.233398438 207 332.5 c 257
 207 311.700195312 222.333007812 293.966796875 253 279.299804688 c 128
 283.666992188 264.633789062 321 257.299804688 365 257.299804688 c 257
 606 262.099609375 l 257
 603 668.5 l 261
EndSplineSet
EndChar

StartChar: u0999_u09CD_u09B0
Encoding: 415 -1 415
Width: 521
VWidth: 0
GlyphClass: 3
Flags: HW
LayerCount: 2
Fore
SplineSet
516 225 m 257
 516 -175 l 257
 364 -175 l 257
 364 225 l 257
 516 225 l 257
516 -271 m 257x80
 516 -271 449 -191 380 -190.581054688 c 0
 335.998816603 -190.313893969 335 -191 291 -191 c 3
 225 -191 197 -246 131 -246 c 3x40
 81 -246 17 -190 17 -190 c 257
 17 -38 l 257x80
 17 -38 84 -94 135 -94 c 3x40
 199 -94 224 -38 288 -38 c 3x80
 336 -38 340 -38 388 -38 c 3
 459.831054688 -38 515.596972099 -117.50077041 516 -119 c 257
 516 -271 l 257x80
-40 700 m 257
 80 796 l 257
 262 691 l 257
 264.666666667 721.666666667 277.333333333 748 300 770 c 128
 322.666666667 792 349.666666667 804.333333333 381 807 c 257
 388 807 l 257
 390 807 l 257
 392 807 l 257
 428 807 458.5 794.5 483.5 769.5 c 128
 508.5 744.5 521 714 521 678 c 257
 521 656.666666667 508 632.833333333 482 606.5 c 128
 456 580.166666667 430.333333333 560 405 546 c 257
 353 448 l 257
 377.666666667 434 394.166666667 424.666666667 402.5 420 c 128
 410.833333333 415.333333333 425 405.833333333 445 391.5 c 128
 465 377.166666667 478.833333333 364.833333333 486.5 354.5 c 128
 494.166666667 344.166666667 501.833333333 330.5 509.5 313.5 c 128
 517.166666667 296.5 520.666666667 278.666666667 520 260 c 257
 518 187.333333333 492 126.333333333 442 77 c 128
 392 27.6666666667 331 3 259 3 c 257
 217.666666667 3 180.666666667 10.3333333333 148 25 c 128
 115.333333333 39.6666666667 88.8333333333 59.3333333333 68.5 84 c 128
 48.1666666667 108.666666667 32.6666666667 136.166666667 22 166.5 c 128
 11.3333333333 196.833333333 6 228.333333333 6 261 c 257
 151 261 l 257
 151 260 l 257
 151 230 161.333333333 205 182 185 c 128
 202.666666667 165 228.666666667 154.666666667 260 154 c 257
 291.333333333 154.666666667 317.333333333 165 338 185 c 128
 358.666666667 205 369 230 369 260 c 257
 369 288 360.166666667 311.833333333 342.5 331.5 c 128
 324.833333333 351.166666667 302 362.666666667 274 366 c 257
 259 366 l 257
 268 518 l 257
 268 518 l 257
 277 544 l 257
 271 567 l 257
 261 572.333333333 252 579 244 587 c 257
 -40 700 l 257
379 730 m 257
 379 731 l 257
 379 731 l 257
 366.333333333 728.333333333 356.166666667 722.166666667 348.5 712.5 c 128
 340.833333333 702.833333333 337 691.333333333 337 678 c 257
 337 659.333333333 344 645 358 635 c 257
 367 630 l 257
 371 628 375 626.666666667 379 626 c 257
 379 627 l 257
 384.333333333 625.666666667 388.333333333 625 391 625 c 128
 393.666666667 625 397.666666667 625.666666667 403 627 c 257
 403 626 l 257
 415.666666667 628.666666667 425.833333333 634.833333333 433.5 644.5 c 128
 441.166666667 654.166666667 445 665.333333333 445 678 c 257
 445 691.333333333 441.166666667 702.833333333 433.5 712.5 c 128
 425.833333333 722.166666667 415.666666667 728.333333333 403 731 c 257
 403 730 l 257
 397.666666667 731.333333333 393.666666667 732 391 732 c 128
 388.333333333 732 384.333333333 731.333333333 379 730 c 257
EndSplineSet
EndChar

StartChar: u099A_u09CD_u09B0
Encoding: 416 -1 416
Width: 530
VWidth: 0
GlyphClass: 3
Flags: HW
LayerCount: 2
Fore
SplineSet
345 204.700195312 m 261
 345 -71.2998046875 l 261
 193 -71.2998046875 l 261
 193 204.700195312 l 261
 345 204.700195312 l 261
342.1796875 -134.5 m 261x80
 342.1796875 -134.5 299.299668256 -70.5001942946 255.139648438 -70.1650390625 c 4
 226.978910376 -69.9514350383 226.339668188 -70.5 198.1796875 -70.5 c 7
 155.939526367 -70.5 138.019458008 -114.5 95.779296875 -114.5 c 7x40
 63.7797423246 -114.5 22.8203125 -69.7001953125 22.8203125 -69.7001953125 c 261
 22.8203125 51.900390625 l 261x80
 22.8203125 51.900390625 65.7000463453 7.099609375 98.33984375 7.099609375 c 7x40
 139.29981107 7.099609375 155.299798305 51.900390625 196.259765625 51.900390625 c 7x80
 226.979765625 51.900390625 229.539765625 51.900390625 260.259765625 51.900390625 c 7
 306.231596783 51.900390625 341.921749889 -11.7009924928 342.1796875 -12.900390625 c 261
 342.1796875 -134.5 l 261x80
202 212.700195312 m 261
 210 211.099934896 218 210.299804688 226 210.299804688 c 261
 256 210.299804688 281.333333333 218.433268229 302 234.700195312 c 132
 322.666666667 250.966704177 333 271.099842198 333 295.099609375 c 261
 333 319.099917763 322.666666667 339.366844846 302 355.900390625 c 132
 281.333333333 372.43359375 256 380.700195312 226 380.700195312 c 261
 218 380.700195312 210 379.900065104 202 378.299804688 c 261
 202 212.700195312 l 261
530 803 m 257
 530 671 l 257
 202 671 l 257
 202 500.700195312 l 261
 207.333333333 501.233398438 215.333333333 501.5 226 501.5 c 261
 297.333333333 501.5 358.166666667 481.366536458 408.5 441.099609375 c 132
 458.833333333 400.832942709 484 352.166276041 484 295.099609375 c 261
 484 238.033095811 458.833333333 189.499892685 408.5 149.5 c 132
 358.166666667 109.5 297.333333333 89.5 226 89.5 c 261
 220 89.099609375 l 262
 216 88.8333333333 211.833333333 88.7001953125 207.5 88.7001953125 c 132
 203.166666667 88.7001953125 197.5 88.8333333333 190.5 89.099609375 c 132
 183.5 89.3665364583 176.666666667 89.6334635417 170 89.900390625 c 132
 163.333333333 90.1670572917 156.166666667 90.8337239583 148.5 91.900390625 c 132
 140.833333333 92.9670572917 133.666666667 94.300390625 127 95.900390625 c 132
 120.333333333 97.5002441406 113.666666667 99.6333821615 107 102.299804688 c 132
 100.333333333 104.966634115 94.3333333333 108.166829427 89 111.900390625 c 261
 77.6666666667 119.366891572 68.8333333333 131.099964489 62.5 147.099609375 c 132
 56.1666666667 163.099756781 52.3333333333 177.233220323 51 189.5 c 261
 50 208.700195312 l 261
 50 671 l 257
 0 671 l 257
 0 803 l 257
 530 803 l 257
EndSplineSet
EndChar

StartChar: u099B_u09CD_u09B0
Encoding: 417 -1 417
Width: 726
VWidth: 0
GlyphClass: 3
Flags: HW
LayerCount: 2
Fore
SplineSet
706 123 m 261
 698 -121 l 261
 546 -121 l 261
 554 123 l 261
 706 123 l 261
698 -184 m 261x80
 698 -184 630.999968567 -136.831195706 562 -136.581054688 c 4
 517.998816603 -136.313893969 517 -137 473 -137 c 7
 407 -137 379 -192 313 -192 c 7x40
 212.561403509 -192 84 -136 84 -136 c 261
 84 16 l 261x80
 84 16 216.296610169 -40 317 -40 c 7x40
 441 -40 406 16 470 16 c 7x80
 518 16 522 16 570 16 c 7
 641.831054688 16 697.596972099 -63.50077041 698 -65 c 261
 698 -184 l 261x80
726 803 m 257
 726 671 l 257
 215 671 l 257
 215 617 l 261
 219 617.666666667 225.333333333 618 234 618 c 261
 268 618 299.833333333 610.333333333 329.5 595 c 132
 359.166666667 579.666666667 383.333333333 558.666666667 402 532 c 261
 413.333333333 533.333333333 424.666666667 534 436 534 c 261
 503.333333333 534 561 514.333333333 609 475 c 132
 657 435.666666667 681 388.333333333 681 333 c 261
 681 292.333333333 667.5 256.333333333 640.5 225 c 132
 613.5 193.666666667 577.666666667 170.666666667 533 156 c 261
 709 158 l 261
 709 57 l 261
 388 54 l 261
 389 228 l 261
 404.333333333 223.333333333 420 221 436 221 c 261
 477.333333333 221 512.166666667 231.333333333 540.5 252 c 132
 568.833333333 272.666666667 583 299.333333333 583 332 c 261
 583 364.666666667 568.666666667 392.833333333 540 416.5 c 132
 511.333333333 440.166666667 477 452 437 452 c 261
 439.666666667 438.666666667 441 425.333333333 441 412 c 261
 441 355.333333333 420.833333333 306.833333333 380.5 266.5 c 132
 340.166666667 226.166666667 291.333333333 206 234 206 c 261
 225.333333333 206 219 206.333333333 215 207 c 261
 93 207 l 261
 93 671 l 257
 0 671 l 257
 0 803 l 257
 726 803 l 257
215 329 m 261
 221.666666667 327.666666667 228 327 234 327 c 261
 258 327 278.333333333 335.166666667 295 351.5 c 132
 311.666666667 367.833333333 320 388 320 412 c 261
 320 436 311.666666667 456.166666667 295 472.5 c 132
 278.333333333 488.833333333 258 497 234 497 c 261
 228 497 221.666666667 496.333333333 215 495 c 261
 215 329 l 261
EndSplineSet
EndChar

StartChar: u099C_u09CD_u09B0
Encoding: 418 -1 418
Width: 996
VWidth: 0
GlyphClass: 3
Flags: HW
LayerCount: 2
Fore
SplineSet
989 123 m 257
 991 -217 l 261
 839 -217 l 261
 837 123 l 257
 989 123 l 257
839.700195312 -221 m 257x80
 839.700195312 -221 732.499906652 -141.000000001 622.099609375 -140.581054688 c 0
 551.698005625 -140.313893969 550.099905636 -141 479.700195312 -141 c 3
 374.100195312 -141 329.300195313 -196 223.700195312 -196 c 3x40
 143.700023986 -196 41.2998046875 -140 41.2998046875 -140 c 257
 41.2998046875 12 l 257x80
 41.2998046875 12 148.49969379 -44 230.099609375 -44 c 3x40
 332.499936172 -44 372.500063828 12 474.900390625 12 c 3x80
 551.700390625 12 558.100390625 12 634.900390625 12 c 3
 749.82996852 12 839.055351286 -67.50077041 839.700195312 -69 c 257
 839.700195312 -221 l 257x80
996 803 m 257
 996 671 l 257
 441 671 l 257
 441 624.611 l 257
 990.7 628.5 l 257
 988.3 408.7 l 257
 969.433333333 414.233333333 949.967514511 416.622718173 929.9 416.7 c 256
 877.966666667 416.9 834.62739829 403.926273419 799.5 378.3 c 256
 764.5 352.766666667 746.498694974 319.433326967 746.7 278.3 c 256
 746.9 237.433333333 764.462676287 201.863706634 800.3 172.7 c 256
 836.1 143.566666667 879.302117794 128.195702171 929.9 128.7 c 256
 949.966666667 128.9 969.433333333 131.566666667 988.3 136.7 c 257
 988.3 30.2998 l 257
 969.433333333 27.4332666667 949.969069999 25.378956152 929.9 25.5 c 256
 874.633333333 25.8333333333 823.177230876 36.4942390104 776.3 59.0996 c 256
 729.433333333 81.6998666667 692.267453261 112.163198902 665.1 150.7 c 256
 637.7 189.566666667 624.479085308 231.833246525 624.3 277.5 c 256
 624.1 328.5 641.184628408 373.187627983 674.7 412.3 c 256
 708.233333333 451.433333333 752.766666667 480.1 808.3 498.3 c 257
 441 496.766 l 257
 441 484 l 257
 481 461.333333333 512.833333333 430.166666667 536.5 390.5 c 128
 560.166666667 350.833333333 571.302775713 307.33418424 570 260 c 256
 568 187.333333333 542 126.333333333 492 77 c 128
 442 27.6666666667 381 3 309 3 c 256
 267.666666667 3 230.666666667 10.3333333333 198 25 c 128
 165.333333333 39.6666666667 138.833333333 59.3333333333 118.5 84 c 128
 98.1666666667 108.666666667 82.6666666667 136.166666667 72 166.5 c 128
 61.3333333333 196.833333333 56 228.333333333 56 261 c 257
 201 261 l 257
 201 260 l 258
 201 230 211.333333333 205 232 185 c 128
 252.666666667 165 278.666666667 153.333333333 310 154 c 256
 341.333333333 154.666666667 367.333333333 165 388 185 c 128
 408.666666667 205 419 230 419 260 c 256
 419 288 410.166666667 311.833333333 392.5 331.5 c 128
 374.833333333 351.166666667 352 362.666666667 324 366 c 257
 309 366 l 257
 309 518 l 257
 309 671 l 257
 0 671 l 257
 0 803 l 257
 996 803 l 257
EndSplineSet
EndChar

StartChar: u099D_u09CD_u09B0
Encoding: 419 -1 419
Width: 944
VWidth: 0
Flags: HW
LayerCount: 2
Fore
SplineSet
902 283 m 257
 902 -117 l 257
 750 -117 l 257
 750 283 l 257
 902 283 l 257
903.700195312 -217 m 261x80
 903.700195312 -217 796.499906652 -137 686.099609375 -136.581054688 c 4
 615.698005625 -136.313893969 614.099905636 -137 543.700195312 -137 c 7
 438.100195312 -137 393.300195313 -192 287.700195312 -192 c 7x40
 207.700023986 -192 105.299804688 -136 105.299804688 -136 c 261
 105.299804688 16 l 261x80
 105.299804688 16 212.49969379 -40 294.099609375 -40 c 7x40
 396.499936172 -40 436.500063828 16 538.900390625 16 c 7x80
 615.700390625 16 622.100390625 16 698.900390625 16 c 7
 813.82996852 16 903.055351286 -63.50077041 903.700195312 -65 c 261
 903.700195312 -217 l 261x80
670 671 m 257
 670 341 l 257
 673 344 l 257
 749 268 l 257
 749 671 l 257
 670 671 l 257
944 803 m 257
 944 671 l 257
 901 671 l 257
 901 57 l 257
 749 57 l 257
 747 55 l 257
 670 132 l 257
 670 58 l 257
 526 58 l 257
 526 57 l 257
 70 331 l 257
 70 483 l 257
 524 660 l 257
 524 671 l 257
 0 671 l 257
 0 803 l 257
 944 803 l 257
524 210 m 257
 524 511 l 257
 214 407 l 257
 524 210 l 257
EndSplineSet
EndChar

StartChar: u099E_u09CD_u09B0
Encoding: 420 -1 420
Width: 777
VWidth: 0
Flags: HW
LayerCount: 2
Fore
SplineSet
615 295 m 261
 615 -105 l 261
 463 -105 l 261
 463 295 l 261
 615 295 l 261
615 -201 m 261x80
 615 -201 548 -121 479 -120.581054688 c 4
 434.998816603 -120.313893969 434 -121 390 -121 c 7
 324 -121 296 -176 230 -176 c 7x40
 180 -176 116 -120 116 -120 c 261
 116 32 l 261x80
 116 32 183 -24 234 -24 c 7x40
 298 -24 323 32 387 32 c 7x80
 435 32 439 32 487 32 c 7
 558.831054688 32 614.596972099 -47.50077041 615 -49 c 261
 615 -201 l 261x80
10 381 m 261
 178 381 l 261
 160.666992188 360.333007812 152 337 152 311 c 261
 152 277.666992188 164 250.333007812 188 229 c 261
 455 229 l 261
 455 573 l 257
 433.666992188 597.666992188 406.666992188 610 374 610 c 257
 347.333007812 610 323.666992188 601.333007812 303 584 c 257
 303 752 l 257
 325.666992188 758 349.333007812 761 374 761 c 257
 429.333007812 761 478.5 745.333007812 521.5 714 c 128
 564.5 682.666992188 595.333007812 641.666992188 614 591 c 257
 632 600.333007812 646.666992188 605.666992188 658 607 c 257
 693.333007812 611.666992188 722.166992188 602.166992188 744.5 578.5 c 128
 766.833007812 554.833007812 777.666992188 523.666992188 777 485 c 257
 776.333007812 456.333007812 768 431 752 409 c 257
 768.666992188 386.333007812 777 361 777 333 c 257
 777 297 764.5 266.5 739.5 241.5 c 128
 714.5 216.5 684 204 648 204 c 257
 647.5 204 l 258
 647 204 647 204 646 204 c 257
 645 204 645 204 644 204 c 257
 641.333007812 204 639 225.3125 637 268 c 261
 631.666992188 268 626.333007812 268.666992188 621 270 c 261
 622 60 l 261
 455 60 l 261
 455 63 l 261
 188 65 l 261
 132.666992188 81 87.5 111.5 52.5 156.5 c 132
 17.5 201.5 0 253 0 311 c 261
 0 335.666992188 3.3330078125 359 10 381 c 261
620 349 m 261
 628 303 637 280 647 280 c 257
 663 280 676.166992188 285 686.5 295 c 128
 696.833007812 305 702 317.666992188 702 333 c 257
 702 345.666992188 698 356.833007812 690 366.5 c 128
 682 376.166992188 671.666992188 382.333007812 659 385 c 257
 647 432 l 257
 651 432 655 432.666992188 659 434 c 257
 659 433 l 257
 671.666992188 435.666992188 682 441.833007812 690 451.5 c 128
 698 461.166992188 702 472.333007812 702 485 c 257
 702 504.333007812 695.833007812 519.166992188 683.5 529.5 c 128
 671.166992188 539.833007812 655.333007812 544.666992188 636 544 c 257
 632.666992188 544 627 543.333007812 619 542 c 257
 620 349 l 261
EndSplineSet
EndChar

StartChar: u099F_u09CD_u09B0
Encoding: 421 -1 421
Width: 639
VWidth: 0
Flags: HW
LayerCount: 2
Fore
SplineSet
427 211 m 261
 427 -93 l 261
 275 -93 l 261
 275 211 l 261
 427 211 l 261
425.099609375 -177 m 261x80
 425.099609375 -177 371.499705595 -96.9999999995 316.299804688 -96.5810546875 c 4
 281.098761408 -96.3138939692 280.299705934 -97 245.099609375 -97 c 7
 192.299609375 -97 169.899609375 -152 117.099609375 -152 c 7x40
 77.0999520285 -152 25.900390625 -96 25.900390625 -96 c 261
 25.900390625 56 l 261x80
 25.900390625 56 79.5000579317 0 120.299804688 0 c 7x40
 171.499968086 0 191.500031914 56 242.700195312 56 c 7x80
 281.100195312 56 284.300195313 56 322.700195312 56 c 7
 380.164710246 56 424.777188899 -23.50077041 425.099609375 -25 c 261
 425.099609375 -177 l 261x80
616 283 m 257
 605.333333333 244.333333333 585.166666667 211.166666667 555.5 183.5 c 128
 525.833333333 155.833333333 492.333333333 135.5 455 122.5 c 128
 417.666666667 109.5 377.666666667 102.833333333 335 102.5 c 128
 292.333333333 102.166666667 252.166666667 108.333333333 214.5 121 c 128
 176.833333333 133.666666667 143.333333333 154 114 182 c 128
 84.6666666667 210 64.3333333333 243.666666667 53 283 c 257
 50 671 l 257
 0 671 l 257
 0 803 l 257
 252 803 l 257
 237 818 l 257
 221.666666667 833.333333333 210.166666667 858 202.5 892 c 128
 194.833333333 926 183.333333333 950.666666667 168 966 c 257
 157.333333333 976.666666667 141.833333333 985.666666667 121.5 993 c 128
 101.166666667 1000.33333333 83.3333333333 1005 68 1007 c 257
 45 1010 l 257
 134 1098 l 257
 140 1097.33333333 148 1096.5 158 1095.5 c 128
 168 1094.5 183.833333333 1090.5 205.5 1083.5 c 128
 227.166666667 1076.5 243.333333333 1067.66666667 254 1057 c 257
 269.333333333 1041.66666667 281.666666667 1016.33333333 291 981 c 128
 300.333333333 945.666666667 312.666666667 920.333333333 328 905 c 257
 360 873 360 873 391 842 c 257
 413 820 447.333333333 807 494 803 c 257
 639 803 l 257
 639 671 l 257
 217 671 l 257
 217 284 l 257
 236.333333333 262 275.666666667 250.833333333 335 250.5 c 128
 394.333333333 250.166666667 433.333333333 261.333333333 452 284 c 257
 452 472 l 257
 619 472 l 257
 616 283 l 257
EndSplineSet
EndChar

StartChar: u09A0_u09CD_u09B0
Encoding: 422 -1 422
Width: 751
VWidth: 0
Flags: HW
LayerCount: 2
Fore
SplineSet
525 234 m 257
 525 -106 l 261
 373 -106 l 261
 373 234 l 257
 525 234 l 257
525 -202 m 261x80
 525 -202 458 -122 389 -121.581054688 c 4
 344.998816603 -121.313893969 344 -122 300 -122 c 7
 234 -122 206 -177 140 -177 c 7x40
 90 -177 26 -121 26 -121 c 261
 26 31 l 261x80
 26 31 93 -25 144 -25 c 7x40
 208 -25 233 31 297 31 c 7x80
 345 31 349 31 397 31 c 7
 468.831054688 31 524.596972099 -48.50077041 525 -50 c 261
 525 -202 l 261x80
726 803 m 257
 726 671 l 257
 615 671 l 257
 671 623 710.333333333 562.666666667 733 490 c 128
 755.666666667 458.903903904 757 427.237237237 737 395 c 257
 718.333333333 326.333333333 684.666666667 267.166666667 636 217.5 c 128
 587.333333333 167.833333333 530.166666667 133.666666667 464.5 115 c 128
 398.833333333 96.3333333333 332.666666667 96 266 114 c 257
 242 120.666666667 219 129.333333333 197 140 c 257
 237 288 l 257
 233 295 l 257
 236 296 236 296 239 297 c 257
 240 300 l 257
 241.333333333 299.333333333 242.333333333 298.666666667 243 298 c 257
 247.666666667 300 252.333333333 302.333333333 257 305 c 257
 273 314.333333333 282.166666667 355 284.5 427 c 128
 286.833333333 457.151029748 284 487.651029748 276 518.5 c 128
 268 592.166666667 259 637.666666667 249 655 c 257
 245.666666667 661 242 666.333333333 238 671 c 257
 0 671 l 257
 0 803 l 257
 252 803 l 257
 237 818 l 257
 221.666666667 833.333333333 210.166666667 858 202.5 892 c 128
 194.833333333 926 183.333333333 950.666666667 168 966 c 257
 157.333333333 976.666666667 141.833333333 985.666666667 121.5 993 c 128
 101.166666667 1000.33333333 83.3333333333 1005 68 1007 c 257
 45 1010 l 257
 134 1098 l 257
 140 1097.33333333 148 1096.5 158 1095.5 c 128
 168 1094.5 183.833333333 1090.5 205.5 1083.5 c 128
 227.166666667 1076.5 243.333333333 1067.66666667 254 1057 c 257
 269.333333333 1041.66666667 281.666666667 1016.33333333 291 981 c 128
 300.333333333 945.666666667 312.666666667 920.333333333 328 905 c 257
 360 873 360 873 391 842 c 257
 413 820 447.333333333 807 494 803 c 257
 726 803 l 257
386 616 m 257
 396 596.666666667 405.666666667 564.333333333 415 519 c 128
 444.5 364 l 129
 443.5 319.333333333 438.333333333 288.333333333 429 271 c 257
 467 282.333333333 500.5 302.5 529.5 331.5 c 128
 558.5 360.5 578.333333333 395.333333333 589 436 c 257
 452 652 l 257
 386 616 l 257
EndSplineSet
EndChar

